SplineFontDB: 3.0
FontName: Cantarell-Bold
FullName: Cantarell Bold
FamilyName: Cantarell
Weight: Bold
Copyright: Copyright (c) 2009-2011, Understanding Limited (dave@understandinglimited.com),\nCopyright (c) 2010-2012, Jakub Steiner (jimmac@gmail.com).\n\nThis Font Software is licensed under the SIL Open Font License, Version 1.1.\nThis license is copied below, and is also available with a FAQ at:\nhttp://scripts.sil.org/OFL
UComments: "Cantarell was originally designed by Dave Crossland and is developed by the GNOME community+AA0ACgAA-dave@understandinglimited.com+AA0ACgAA-http://live.gnome.org/CantarellFonts"
Version: 0.0.16
ItalicAngle: 0
UnderlinePosition: -100
UnderlineWidth: 50
Ascent: 730
Descent: 270
InvalidEm: 0
LayerCount: 3
Layer: 0 0 "Back" 1
Layer: 1 0 "Fore" 0
Layer: 2 0 "temp" 0
XUID: [1021 472 1916768597 5236576]
FSType: 0
OS2Version: 0
OS2_WeightWidthSlopeOnly: 0
OS2_UseTypoMetrics: 0
CreationTime: 1236980653
ModificationTime: 1443870577
PfmFamily: 33
TTFWeight: 700
TTFWidth: 5
LineGap: 0
VLineGap: 0
OS2TypoAscent: 730
OS2TypoAOffset: 0
OS2TypoDescent: -270
OS2TypoDOffset: 0
OS2TypoLinegap: 0
OS2WinAscent: 964
OS2WinAOffset: 0
OS2WinDescent: 293
OS2WinDOffset: 0
HheadAscent: 964
HheadAOffset: 0
HheadDescent: -293
HheadDOffset: 0
OS2FamilyClass: 2050
OS2Vendor: 'ABAT'
Lookup: 4 0 1 "'liga' Standard Ligatures in Latin lookup 0" { "'liga' Standard Ligatures in Latin lookup 0-1"  } ['liga' ('DFLT' <'dflt' > 'latn' <'dflt' > ) ]
Lookup: 260 0 0 "'mark' LGC marks" { "'mark'-aboveright"  "'mark'-cedilla"  "'mark'-above"  "'mark'-below"  } ['mark' ('DFLT' <'dflt' > 'cyrl' <'dflt' > 'latn' <'dflt' > ) ]
MarkAttachClasses: 1
DEI: 91125

StartChar: a
Encoding: 97 97 0
Width: 510
Flags: HMW
AnchorPoint: "below" 286 0 basechar 0
AnchorPoint: "above" 286 482 basechar 0
AnchorPoint: "cedilla" 286 0 basechar 0
LayerCount: 3
Back
SplineSet
275 492 m 4
 456 492 497 409 497 316 c 6
 497 0 l 5
 407 0 l 5
 394 32 l 5
 356 8 304 -10 246 -10 c 4
 121 -10 43 59 43 133 c 4
 43 274 180 283 377 283 c 5
 377 290 l 6
 377 330 368 385 259 385 c 4
 230 385 184 381 114 364 c 5
 95 358 l 5
 70 455 l 5
 87 460 l 6
 149 481 216 492 275 492 c 4
377 125 m 5
 377 195 l 5
 365 195 l 6
 238 195 170 193 170 142 c 4
 170 110 211 93 271 93 c 4
 282 93 332 94 377 125 c 5
247.761 491.465 m 4
 283.611 491.465 413.789 486.83 431.639 369.76 c 4
 433.781 355.709 434.104 341.463 434.104 327.237 c 4
 434.104 324.928 434.095 322.619 434.084 320.312 c 6
 432.619 0 l 5
 377.443 0 l 5x7c
 358.725 43.9316 l 5
 326.611 14.6221 278.661 -9.75 222.992 -9.75 c 4
 130.12 -9.75 59.9785 56.043 59.9785 127.73 c 4
 59.9785 173.166 88.3984 237.223 188.459 260.229 c 4
 220.403 267.573 262.57 272.259 353.518 273.73 c 5
 353.518 299.316 l 6
 353.518 304.131 353.568 308.966 353.568 313.802 c 4
 353.568 340.277 355.396 425.425 234.946 425.425 c 4xbc
 188.943 425.425 132.189 410.787 105.959 403.32 c 5
 90.8223 461.914 l 5
 149.717 484.057 204.564 491.382 247.761 491.465 c 4
353.518 213.613 m 5
 257.662 212.174 194.621 214.439 158.693 176.758 c 4
 147.237 164.742 139.864 148.457 139.864 131.942 c 4
 139.864 91.2646 186.574 53.1816 244.812 53.1816 c 4
 255.556 53.1816 308.687 53.9922 353.518 102.412 c 5
 353.518 213.613 l 5
EndSplineSet
Fore
SplineSet
233 492 m 0
 410 492 455 409 455 296 c 2
 455 0 l 1
 359 0 l 1
 346 32 l 1
 308 8 262 -10 204 -10 c 0
 99 -10 35 49 35 133 c 0
 35 228 107 292 236 292 c 1
 329 292 l 1
 329 374 306 401 207 401 c 0
 158 401 118 386 74 368 c 1
 74 460 l 1
 109 472 150 492 233 492 c 0
335 107 m 1
 335 210 l 1
 249 210 l 1
 184 210 154 179 154 141 c 0
 154 103 185 79 235 79 c 0
 286 79 309 91 335 107 c 1
EndSplineSet
EndChar

StartChar: d
Encoding: 100 100 1
Width: 565
Flags: HMW
AnchorPoint: "below" 286 0 basechar 0
AnchorPoint: "above" 286 670 basechar 0
AnchorPoint: "cedilla" 286 0 basechar 0
AnchorPoint: "aboveright" 636 670 basechar 0
LayerCount: 3
Back
SplineSet
45 233 m 4xbc
 45 402 155 492 300 492 c 4
 339 492 372 486 402 476 c 5
 402 694 l 5
 522 694 l 5
 522 0 l 5
 434 0 l 5x7c
 424 22 l 5
 377 -1 327 -10 285 -10 c 4
 175 -10 45 50 45 233 c 4xbc
313 96 m 4xbc
 347 96 379 104 402 113 c 5
 402 375 l 5
 379 382 346 389 312 389 c 4
 253 389 164 367 164 245 c 4
 164 122 253 96 313 96 c 4xbc
EndSplineSet
Fore
SplineSet
385 686 m 1
 505 686 l 1
 505 0 l 1
 419 0 l 1
 410 26 l 1
 377 9 333 -10 281 -10 c 0
 124 -10 35 86 35 241 c 0
 35 426 172 492 270 492 c 0
 313 492 352 484 385 471 c 1
 385 686 l 1
298 397 m 0
 218 397 158 359 158 234 c 0
 158 121 222 82 302 82 c 0
 336 82 363 93 385 106 c 1
 385 381 l 1
 353 393 324 397 298 397 c 0
EndSplineSet
EndChar

StartChar: e
Encoding: 101 101 2
Width: 562
VWidth: 1023
Flags: HMW
AnchorPoint: "below" 258 0.0999985 basechar 0
AnchorPoint: "above" 257 482.1 basechar 0
AnchorPoint: "cedilla" 258 -0.900002 basechar 0
LayerCount: 3
Back
SplineSet
483 115 m 5
 483 12 l 5
 467 8 l 6
 415 -5 373 -9 308 -9 c 4
 100 -9 45 115 45 227 c 4
 45 412 156 492 301 492 c 4
 458 492 519 348 519 246 c 6
 519 184 l 5
 174 184 l 5
 185 141 226 98 340 98 c 4
 402 98 483 115 483 115 c 5
292 388 m 4
 210 388 175 320.9 175 280 c 5
 399 280 l 5
 399 341.9 350 388 292 388 c 4
295.639 491.729 m 4
 335.815 491.729 444.803 481.807 468.949 342.727 c 4
 474.198 312.496 474.609 281.659 474.609 250.977 c 6
 474.609 203.613 l 5
 143.066 203.613 l 5
 148.102 134.537 205.297 54.1953 324.332 54.1953 c 4
 365.6 54.1953 406.471 63.457 434.082 71.7773 c 5
 448.242 17.0898 l 5
 406.529 2.73438 352.84 -9.75195 293.75 -9.76562 c 4
 109.512 -9.76562 63.4521 116.621 63.4521 225.768 c 4
 63.4521 412.687 182.298 491.729 295.639 491.729 c 4
278.48 422.233 m 4
 188.4 422.233 146.184 341.938 145.02 264.16 c 5
 396.973 264.16 l 5
 397.061 267.328 397.105 270.5 397.105 273.672 c 4
 397.105 402.854 325.931 422.233 278.48 422.233 c 4
EndSplineSet
Fore
SplineSet
258 492 m 0
 409 492 483 389 483 240 c 2
 483 194 l 1
 156 194 l 1
 156 106 220 82 306 82 c 0
 372 82 418 94 459 102 c 1
 459 17 l 1
 415 0 354 -10 290 -10 c 0
 116 -10 35 94 35 240 c 0
 35 391 140 492 258 492 c 0
261 398 m 0
 212 398 158 356 158 278 c 1
 364 278 l 1
 364 356 319 398 261 398 c 0
EndSplineSet
Layer: 2
SplineSet
333.691 491.699 m 4
 502.344 491.699 562.012 347.168 562.012 245.605 c 6
 562.012 183.594 l 5
 191.895 183.594 l 5
 204.102 140.625 264.16 94.2383 375.977 94.2383 c 4
 420.41 94.2383 461.426 103.027 488.281 110.84 c 6
 508.301 116.699 l 5
 532.227 23.9258 l 5
 514.648 18.0664 l 6
 471.68 3.41797 412.598 -9.76562 340.82 -9.76562 c 4
 118.164 -9.76562 63.4766 114.746 63.4766 226.562 c 4
 63.4766 411.621 191.602 491.699 333.691 491.699 c 4
322.754 382.324 m 4
 243.652 382.324 200.684 335.938 192.871 284.18 c 5
 442.383 284.18 l 5
 437.012 358.398 386.719 382.324 322.754 382.324 c 4
EndSplineSet
EndChar

StartChar: h
Encoding: 104 104 3
Width: 557
Flags: HMW
AnchorPoint: "below" 312 0 basechar 0
AnchorPoint: "above" 312 670 basechar 0
AnchorPoint: "cedilla" 312 0 basechar 0
LayerCount: 3
Back
SplineSet
301 380 m 4
 279 380 239 375 186 353 c 5
 186 0 l 5
 66 0 l 5
 66 693 l 5
 186 693 l 5
 186 458 l 5
 224 474 277 491 333 491 c 4
 510 491 517 348 517 274 c 6
 517 0 l 5
 398 0 l 5
 398 282 l 6
 398 308 395 380 301 380 c 4
301.82 420.039 m 4
 276.027 420.039 231.5 412.926 172.852 382.266 c 5
 172.852 0 l 5
 92.7734 0 l 5
 92.7734 737.793 l 5
 172.852 737.793 l 5
 172.852 445.816 l 5
 205.15 462.916 268.846 491.406 332.842 491.406 c 4
 388.896 491.406 483.584 467.354 492.7 331.335 c 4
 493.633 317.381 493.872 303.4 493.872 289.412 c 4
 493.872 278.717 493.73 268.018 493.652 257.324 c 6
 491.699 0 l 5
 411.621 0 l 5
 411.133 290.527 l 6
 411.078 322.608 411.813 391.296 341.021 414.221 c 4
 328.378 418.314 315.131 420.039 301.82 420.039 c 4
EndSplineSet
Fore
SplineSet
295 393 m 0
 273 393 233 388 180 366 c 1
 180 0 l 1
 60 0 l 1
 60 686 l 1
 180 686 l 1
 180 458 l 1
 218 474 271 491 327 491 c 0
 494 491 502 348 502 274 c 2
 502 0 l 1
 382 0 l 1
 382 295 l 2
 382 331 372 393 295 393 c 0
EndSplineSet
EndChar

StartChar: i
Encoding: 105 105 4
Width: 240
Flags: HMW
AnchorPoint: "below" 126 0 basechar 0
AnchorPoint: "above" 118 664.4 basechar 0
AnchorPoint: "cedilla" 126 0 basechar 0
LayerCount: 3
Back
SplineSet
58 694 m 5xf0
 192 694 l 5
 192 562 l 5
 58 562 l 5
 58 694 l 5xf0
65 482 m 5xe8
 185 482 l 5
 185 0 l 5
 65 0 l 5
 65 482 l 5xe8
EndSplineSet
Fore
SplineSet
60 686 m 1
 180 686 l 1
 180 569 l 1
 60 569 l 1
 60 686 l 1
60 481 m 1
 180 481 l 1
 180 0 l 1
 60 0 l 1
 60 481 l 1
EndSplineSet
EndChar

StartChar: n
Encoding: 110 110 5
Width: 557
Flags: HMW
AnchorPoint: "below" 282 0 basechar 0
AnchorPoint: "above" 282 482 basechar 0
AnchorPoint: "cedilla" 282 0 basechar 0
LayerCount: 3
Back
SplineSet
63 482 m 5xb8
 147 482 l 5xb8
 163 449 l 5
 237 483 294 492 333 492 c 4
 489 492 512 383 512 285 c 6
 512 0 l 5
 391 0 l 5
 391 283 l 6
 391 317 387 380 297 380 c 4xd8
 254 380 209 364 183 353 c 5
 183 0 l 5
 63 0 l 5
 63 482 l 5xb8
87.8906 482.422 m 1
 144.043 482.422 l 1
 161.621 441.406 l 1
 236.816 482.422 294.922 492.188 331.543 492.188 c 0
 469.238 492.188 486.816 384.766 486.816 287.598 c 2
 486.816 0 l 25
 406.25 0 l 1
 406.25 290.527 l 2
 406.25 320.801 407.715 419.922 296.875 419.922 c 0
 251.465 419.922 203.613 400.879 167.969 382.324 c 1
 167.969 0 l 1
 87.8906 0 l 1
 87.8906 482.422 l 1
EndSplineSet
Fore
SplineSet
144 481 m 1
 160 449 l 1
 198 465 261 492 327 492 c 0
 494 492 502 359 502 275 c 2
 502 0 l 1
 382 0 l 1
 382 296 l 2
 382 332 372 394 295 394 c 0
 273 394 233 388 180 366 c 1
 180 0 l 1
 60 0 l 1
 60 481 l 1
 144 481 l 1
EndSplineSet
EndChar

StartChar: o
Encoding: 111 111 6
Width: 565
Flags: MW
AnchorPoint: "below" 282 -0.333333 basechar 0
AnchorPoint: "above" 283 482.2 basechar 0
AnchorPoint: "cedilla" 282 -0.799999 basechar 0
LayerCount: 3
Back
SplineSet
300 492 m 4
 442 492 554 406 554 250 c 4
 554 89 445 -10 292 -10 c 4
 147 -10 40 82 40 236 c 4
 40 393 146 492 300 492 c 4
293 383 m 4
 228 383 159 340 159 249 c 4
 159 166 215 99 301 99 c 4
 376 99 436 152 436 236 c 4
 436 335 361 383 293 383 c 4
EndSplineSet
Fore
SplineSet
282 398 m 0
 215 398 158 342 158 240 c 0
 158 138 214 85 282 85 c 0
 351 85 406 137 406 240 c 0
 406 343 350 398 282 398 c 0
282 -10 m 0
 131 -10 35 90 35 240 c 0
 35 391 132 492 283 492 c 0
 435 492 530 392 530 241 c 0
 530 91 433 -10 282 -10 c 0
EndSplineSet
EndChar

StartChar: s
Encoding: 115 115 7
Width: 465
Flags: HMW
LayerCount: 3
Back
SplineSet
70 26 m 5
 70 134 l 5
 87.9072 127 l 5
 151.907 103 203.606 93 245.907 93 c 4
 321.507 93 354.807 110 354.807 144 c 5
 350.307 205 62.9072 183 62.9072 341 c 4
 62.9072 400 99.9072 492 294.407 492 c 4
 350.86 492 408 479 441 469 c 5
 441 366 l 5
 415 374 353.86 392 297.007 392 c 4
 200.707 392 189.907 352 189.907 340 c 4
 189.907 285 485.407 292 483.807 143 c 4
 483.807 80 438.807 -10 242.307 -10 c 4
 175.86 -10 122 5 70 26 c 5
EndSplineSet
Fore
SplineSet
46 26 m 1
 46 134 l 1
 64 127 l 2
 128 103 180 93 222 93 c 0
 298 93 320 110 320 144 c 1
 320 205 45 177 45 353 c 0
 45 400 66 492 250 492 c 0
 306 492 364 479 397 469 c 1
 397 366 l 1
 371 374 310 392 253 392 c 0
 170 392 159 363 159 347 c 0
 159 282 435 308 435 144 c 0
 435 80 397 -10 218 -10 c 0
 152 -10 98 5 46 26 c 1
EndSplineSet
EndChar

StartChar: bar
Encoding: 124 124 8
Width: 365
VWidth: 1023
Flags: HMW
LayerCount: 3
Fore
SplineSet
124 730 m 1
 244 730 l 1
 244 -242 l 1
 124 -242 l 1
 124 730 l 1
EndSplineSet
EndChar

StartChar: b
Encoding: 98 98 9
Width: 565
Flags: HMW
AnchorPoint: "below" 292 0 basechar 0
AnchorPoint: "above" 292 670 basechar 0
AnchorPoint: "cedilla" 292 0 basechar 0
LayerCount: 3
Back
SplineSet
66 694 m 5x7c
 186 694 l 5
 186 471 l 5
 219 484 258 492 301 492 c 4
 406 492 542 436 542 247 c 4
 542 86 437 -10 287 -10 c 4xbc
 238 -10 194 2 161 16 c 5
 155 0 l 5
 66 0 l 5
 66 694 l 5x7c
273 386 m 4
 247 386 218 382 186 370 c 5
 186 107 l 5
 208 100 240 93 274 93 c 4
 334 93 424 118 424 234 c 4
 424 362 333 386 273 386 c 4
EndSplineSet
Fore
SplineSet
60 686 m 1
 180 686 l 1
 180 471 l 1
 213 484 252 492 295 492 c 0
 403 492 530 426 530 241 c 0
 530 86 441 -10 284 -10 c 0
 232 -10 188 9 155 26 c 1
 146 0 l 1
 60 0 l 1
 60 686 l 1
267 397 m 0
 241 397 212 393 180 381 c 1
 180 106 l 1
 202 93 229 82 263 82 c 0
 343 82 407 121 407 234 c 0
 407 359 347 397 267 397 c 0
EndSplineSet
EndChar

StartChar: l
Encoding: 108 108 10
Width: 303
Flags: HMW
LayerCount: 3
Back
SplineSet
252.645 94.3193 m 4
 271.645 94.3193 287.895 98.4863 310 105.1 c 5
 310 14.0996 l 5
 292.645 8.09961 277.4 -9.90039 173 -9.90039 c 4
 110 -9.90039 68.9541 37.0928 69 105.1 c 6
 69.4004 693.75 l 5
 189.4 693.75 l 5
 189.145 163.32 l 5
 189.145 126.1 191.046 94.3193 252.645 94.3193 c 4
69.8545 738 m 5
 189.854 738 l 5
 189.854 0 l 5
 69.8545 0 l 5
 69.8545 738 l 5
EndSplineSet
Fore
SplineSet
234 84 m 0
 253 84 274 88 291 92 c 1
 291 14 l 1
 274 8 238 -10 183 -10 c 0
 81 -10 60 57 60 125 c 2
 60 686 l 1
 178 686 l 1
 178 160 l 2
 178 113 187 84 234 84 c 0
EndSplineSet
EndChar

StartChar: w
Encoding: 119 119 11
Width: 844
Flags: HMW
AnchorPoint: "below" 424 -1 basechar 0
AnchorPoint: "above" 424 482 basechar 0
AnchorPoint: "cedilla" 424 -1 basechar 0
LayerCount: 3
Back
SplineSet
21 482 m 5
 150 482 l 5
 265 125 l 5
 388 482 l 5
 496 482 l 5
 611 124 l 5
 740 482 l 5
 869 482 l 5
 665 0 l 5
 555 0 l 5
 442 347 l 5
 316 0 l 5
 207 0 l 5
 21 482 l 5
708.008 482.422 m 1
 793.457 482.422 l 1
 924.316 77.6367 l 1
 1048.34 482.422 l 1
 1126.95 482.422 l 1
 1255.86 78.125 l 1
 1386.72 482.422 l 1
 1472.17 482.422 l 1
 1295.9 0 l 1
 1215.33 0 l 1
 1086.91 391.113 l 1
 959.961 0 l 1
 879.395 0 l 1
 708.008 482.422 l 1
EndSplineSet
Fore
SplineSet
362 481 m 1
 482 481 l 1
 581 127 l 1
 690 481 l 1
 819 481 l 1
 635 0 l 1
 520 0 l 1
 422 343 l 1
 324 0 l 1
 209 0 l 1
 25 481 l 1
 154 481 l 1
 263 127 l 1
 362 481 l 1
EndSplineSet
EndChar

StartChar: exclam
Encoding: 33 33 12
Width: 266
VWidth: 1023
Flags: MW
LayerCount: 3
Fore
SplineSet
68 118 m 1
 194 118 l 1
 194 0 l 1
 68 0 l 1
 68 118 l 1
68 706 m 1
 194 706 l 1
 194 204 l 1
 68 204 l 1
 68 706 l 1
EndSplineSet
Validated: 1
EndChar

StartChar: u
Encoding: 117 117 14
Width: 547
Flags: HMW
AnchorPoint: "below" 282 0 basechar 0
AnchorPoint: "above" 275 481.2 basechar 0
AnchorPoint: "cedilla" 282 0 basechar 0
LayerCount: 3
Back
SplineSet
398 482 m 5xb8
 518 482 l 5
 518 0 l 5
 429 0 l 5x78
 414 33 l 5
 341 -1 282 -10 242 -10 c 4
 85 -10 63 99 63 197 c 6
 63 482 l 5
 183 482 l 5
 183 198 l 6
 183 166 186 102 280 102 c 4
 324 102 371 118 398 129 c 5
 398 482 l 5xb8
EndSplineSet
Fore
SplineSet
403 0 m 1
 387 32 l 1
 349 16 296 -10 230 -10 c 0
 63 -10 55 123 55 207 c 2
 55 481 l 1
 175 481 l 1
 175 186 l 2
 175 150 185 88 262 88 c 0
 284 88 324 93 367 115 c 1
 367 481 l 1
 487 481 l 1
 487 0 l 1
 403 0 l 1
EndSplineSet
EndChar

StartChar: p
Encoding: 112 112 15
Width: 566
Flags: HMW
AnchorPoint: "below" 296 -261 basechar 0
AnchorPoint: "above" 296 482 basechar 0
AnchorPoint: "cedilla" 296 -261 basechar 0
LayerCount: 3
Back
SplineSet
303 492 m 4xd8
 407 492 541 434 541 246 c 4
 541 85 436 -10 289 -10 c 4
 250 -10 217 -3 188 7 c 5
 188 -259 l 5
 63 -259 l 5
 63 482 l 5
 152 482 l 5xb8
 163 459 l 5
 213 482 262 492 303 492 c 4xd8
275 385 m 4xd8
 249 385 220 380 188 368 c 5
 188 108 l 5
 210 101 242 93 276 93 c 4
 335 93 423 119 423 234 c 4
 423 362 334 385 275 385 c 4xd8
EndSplineSet
Fore
SplineSet
144 481 m 1
 157 452 l 1
 190 470 243 492 301 492 c 0
 394 492 531 436 531 241 c 0
 531 86 442 -10 285 -10 c 0
 243 -10 213 -2 180 15 c 1
 180 -259 l 1
 60 -259 l 1
 60 481 l 1
 144 481 l 1
268 395 m 0
 242 395 213 391 181 379 c 1
 181 106 l 1
 203 93 230 82 264 82 c 0
 344 82 408 121 408 234 c 0
 408 359 348 395 268 395 c 0
EndSplineSet
EndChar

StartChar: q
Encoding: 113 113 16
Width: 566
Flags: HMW
AnchorPoint: "below" 294 -261 basechar 0
AnchorPoint: "above" 265 482.333 basechar 0
AnchorPoint: "cedilla" 294 -261 basechar 0
LayerCount: 3
Back
SplineSet
294 492 m 4xd8
 314 492 353 491 423 461 c 5
 432 482 l 5
 518 482 l 5xb8
 518 -259 l 5
 397 -259 l 5
 397 13 l 5
 365 0 325 -10 282 -10 c 4
 174 -10 44 50 44 238 c 4
 44 409 170 492 294 492 c 4xd8
299 387 m 4xd8
 217 387 163 335 163 246 c 4
 163 123 252 97 311 97 c 4
 337 97 365 102 397 114 c 5
 397 369 l 5
 351 384 320 387 299 387 c 4xd8
EndSplineSet
Fore
SplineSet
409 452 m 1
 422 481 l 1
 506 481 l 1
 506 -259 l 1
 386 -259 l 1
 386 15 l 1
 353 -2 323 -10 281 -10 c 0
 124 -10 35 86 35 241 c 0
 35 436 172 492 265 492 c 0
 323 492 376 470 409 452 c 1
298 395 m 0
 218 395 158 359 158 234 c 0
 158 121 222 82 302 82 c 0
 336 82 363 93 385 106 c 1
 385 379 l 1
 353 391 324 395 298 395 c 0
EndSplineSet
EndChar

StartChar: m
Encoding: 109 109 17
Width: 839
Flags: HMW
AnchorPoint: "below" 423 0.333333 basechar 0
AnchorPoint: "above" 435 482 basechar 0
AnchorPoint: "cedilla" 423 0.166667 basechar 0
LayerCount: 3
Back
SplineSet
285 378 m 4xdc
 263 378 239 374 183 352 c 5
 183 0 l 5
 63 0 l 5
 63 482 l 5
 152 482 l 5xbc
 166 451 l 5
 202 469 259 492 320 492 c 4
 388 492 426 464 446 443 c 5
 490 466 554 491 626 491 c 4
 774 491 809 398 809 286 c 6
 809 0 l 5
 689 0 l 5
 689 285 l 6
 689 344 664 378 597 378 c 4
 563 378 525 366 491 352 c 5
 495 330 495 306 495 283 c 4
 495 189 495 94 495 0 c 5
 375 0 l 5
 375 287 l 6
 375 365 325 378 285 378 c 4xdc
EndSplineSet
Fore
SplineSet
144 481 m 1
 160 449 l 1
 188 461 251 491 317 491 c 0
 378 491 417 470 441 440 c 1
 473 455 547 491 619 491 c 0
 776 491 784 358 784 274 c 2
 784 0 l 1
 664 0 l 1
 664 295 l 2
 664 331 654 393 587 393 c 0
 556 393 525 384 475 363 c 1
 481 332 482 301 482 274 c 2
 482 0 l 1
 442 0 402 0 362 0 c 1
 362 295 l 2
 362 331 352 393 285 393 c 0
 263 393 233 388 180 366 c 1
 180 0 l 1
 60 0 l 1
 60 481 l 1
 144 481 l 1
EndSplineSet
EndChar

StartChar: c
Encoding: 99 99 18
Width: 499
Flags: HMW
AnchorPoint: "below" 292 2 basechar 0
AnchorPoint: "above" 292 482 basechar 0
AnchorPoint: "cedilla" 270 2 basechar 0
LayerCount: 3
Back
SplineSet
45 231 m 4
 45 427 182 491 313 491 c 4
 367 491 415 481 460 461 c 6
 478 454 l 5
 446 358 l 5
 427 365 l 6
 395 376 361 382 324 382 c 4
 243 382 163 355 163 246 c 4
 163 138 231 96 334 96 c 4
 365 96 394 101 421 111 c 5
 440 118 l 5
 473 25 l 5
 455 19 l 6
 401 -2 348 -10 303 -10 c 4
 180 -10 45 43 45 231 c 4
EndSplineSet
Fore
SplineSet
158 240 m 0
 158 148 211 84 304 84 c 0
 355 84 396 97 434 112 c 1
 469 33 l 1
 425 11 374 -10 284 -10 c 0
 132 -10 35 89 35 240 c 0
 35 391 132 492 284 492 c 0
 374 492 425 469 469 447 c 1
 434 368 l 1
 396 383 355 398 304 398 c 0
 206 398 158 332 158 240 c 0
EndSplineSet
EndChar

StartChar: t
Encoding: 116 116 19
Width: 426
Flags: HMW
AnchorPoint: "below" 260 0 basechar 0
AnchorPoint: "above" 225 619 basechar 0
AnchorPoint: "cedilla" 260 0 basechar 0
AnchorPoint: "aboveright" 329 670 basechar 0
LayerCount: 3
Back
SplineSet
391 9 m 6
 334 -6 299 -10 273 -10 c 4
 120 -10 99 70 99 155 c 6
 99 379 l 5
 24 379 l 5
 24 482 l 5
 99 482 l 5
 99 621 l 5
 219 621 l 5
 219 482 l 5
 275.333 482 331.667 482 388 482 c 5
 388 379 l 5
 219 379 l 5
 219 163 l 6
 219 134 234 93 300 93 c 4
 313 93 320 94 372 103 c 5
 391 106 l 5
 410 14 l 5
 391 9 l 6
409.18 8.78906 m 6
 352.539 -5.85938 316.895 -9.76562 289.062 -9.76562 c 4
 129.883 -9.76562 99.1211 69.3359 99.1211 154.785 c 6
 99.1211 379.395 l 5
 34.1797 379.395 l 5
 34.1797 482.422 l 5
 99.1211 482.422 l 5
 99.1211 620.605 l 5
 242.188 620.605 l 5
 242.188 482.422 l 5
 406.25 482.422 l 5
 406.25 379.395 l 5
 242.188 379.395 l 5
 242.188 163.086 l 6
 242.188 133.789 246.582 92.7734 318.359 92.7734 c 4
 331.055 92.7734 337.402 93.75 389.648 102.539 c 6
 408.691 105.957 l 5
 427.734 13.6719 l 5
 409.18 8.78906 l 6
EndSplineSet
Fore
SplineSet
411 17 m 1
 377 4 320 -10 274 -10 c 0
 121 -10 100 70 100 155 c 2
 100 389 l 1
 20 389 l 1
 20 481 l 1
 100 481 l 1
 100 621 l 1
 220 621 l 1
 220 481 l 1
 389 481 l 1
 389 389 l 1
 220 389 l 1
 220 158 l 2
 220 121 235 88 301 88 c 0
 336 88 374 97 393 102 c 1
 411 17 l 1
EndSplineSet
EndChar

StartChar: r
Encoding: 114 114 20
Width: 405
Flags: HMW
AnchorPoint: "below" 122 0 basechar 0
AnchorPoint: "above" 239 482 basechar 0
AnchorPoint: "cedilla" 122 0 basechar 0
LayerCount: 3
Back
SplineSet
157 457 m 5xb0
 199 478 250 492 306 492 c 4
 340 492 374 486 406 471 c 6
 423 463 l 5
 385 363 l 5
 366 370 l 6
 343 379 320 383 293 383 c 4xd0
 255 383 217 375 183 360 c 5
 183 0 l 5
 63 0 l 5
 63 482 l 5
 143 482 l 5
 157 457 l 5xb0
EndSplineSet
Fore
SplineSet
160 449 m 1
 201 475 252 492 302 492 c 0
 332 492 362 486 390 473 c 1
 390 372 l 1
 382 372 l 1
 352 385 321 390 290 390 c 0
 251 390 213 382 180 372 c 1
 180 0 l 1
 60 0 l 1
 60 481 l 1
 144 481 l 1
 160 449 l 1
EndSplineSet
EndChar

StartChar: v
Encoding: 118 118 21
Width: 528
Flags: HMW
AnchorPoint: "below" 263 0 basechar 0
AnchorPoint: "above" 263 482 basechar 0
AnchorPoint: "cedilla" 263 0 basechar 0
LayerCount: 3
Back
SplineSet
515 482 m 5
 332 0 l 5
 215 0 l 5
 23 482 l 5
 161 482 l 5
 276 127 l 5
 389 482 l 5
 515 482 l 5
448.242 482.422 m 5
 278.809 0 l 5
 200.684 0 l 5
 31.7383 482.422 l 5
 114.746 482.422 l 5
 239.746 79.5898 l 5
 365.234 482.422 l 5
 448.242 482.422 l 5
EndSplineSet
Fore
SplineSet
503 481 m 1
 323 0 l 1
 200 0 l 1
 15 481 l 1
 149 481 l 1
 264 127 l 1
 377 481 l 1
 503 481 l 1
EndSplineSet
EndChar

StartChar: k
Encoding: 107 107 22
Width: 551
Flags: HMW
AnchorPoint: "below" 302 0 basechar 0
AnchorPoint: "above" 302 670 basechar 0
AnchorPoint: "cedilla" 440 0 basechar 0
LayerCount: 3
Back
SplineSet
183 289 m 5
 391 492 l 5
 535 492 l 5
 297 271 l 5
 543 0 l 5
 395 0 l 5
 183 240 l 5
 183 0 l 5
 63 0 l 5
 63 694 l 5
 183 694 l 5
 183 289 l 5
EndSplineSet
Fore
SplineSet
180 686 m 1
 180 0 l 1
 60 0 l 1
 60 686 l 1
 180 686 l 1
376 481 m 1
 522 481 l 1
 336 266 l 1
 541 0 l 1
 394 0 l 1
 193 266 l 1
 376 481 l 1
EndSplineSet
EndChar

StartChar: j
Encoding: 106 106 23
Width: 234
Flags: HMW
AnchorPoint: "below" 151 -259 basechar 0
AnchorPoint: "above" 121 659 basechar 0
AnchorPoint: "cedilla" 82 -230 basechar 0
LayerCount: 3
Back
SplineSet
84 694 m 5xe0
 219 694 l 5
 219 562 l 5
 84 562 l 5
 84 694 l 5xe0
92 482 m 5xd0
 212 482 l 5
 212 -47 l 6
 212 -109 207 -210 70 -260 c 5
 53 -266 l 5
 6 -171 l 5
 24 -162 l 6
 89 -131 92 -81 92 -55 c 6
 92 482 l 5xd0
EndSplineSet
Fore
SplineSet
59 481 m 1
 179 481 l 1
 179 -37 l 2
 179 -116 159 -206 13 -258 c 2
 -4 -264 l 1
 -45 -180 l 1
 -27 -171 l 2
 51 -132 59 -103 59 4 c 2
 59 481 l 1
59 686 m 1
 179 686 l 1
 179 569 l 1
 59 569 l 1
 59 686 l 1
EndSplineSet
EndChar

StartChar: x
Encoding: 120 120 24
Width: 530
Flags: HMW
AnchorPoint: "below" 257 0.200001 basechar 0
AnchorPoint: "above" 258 481.2 basechar 0
AnchorPoint: "cedilla" 257 -0.799999 basechar 0
LayerCount: 3
Back
SplineSet
23 482 m 5
 165 482 l 5
 296 306 l 5
 422 482 l 5
 558 482 l 5
 364 237 l 5
 550 0 l 5
 408 0 l 5
 283 166 l 5
 163 0 l 5
 29 0 l 5
 214 237 l 5
 23 482 l 5
EndSplineSet
Fore
SplineSet
15 481 m 1
 148 481 l 1
 259 316 l 1
 365 481 l 1
 501 481 l 1
 327 237 l 1
 505 0 l 1
 363 0 l 1
 258 156 l 1
 155 0 l 1
 23 0 l 1
 186 237 l 1
 15 481 l 1
EndSplineSet
EndChar

StartChar: z
Encoding: 122 122 25
Width: 514
Flags: HMW
AnchorPoint: "below" 266 0 basechar 0
AnchorPoint: "above" 266 482 basechar 0
AnchorPoint: "cedilla" 266 0 basechar 0
LayerCount: 3
Back
SplineSet
52 482 m 5
 478 482 l 5
 478 420 l 5
 219 103 l 5
 490 103 l 5
 490 0 l 5
 52 0 l 5
 52 62 l 5
 309 379 l 5
 52 379 l 5
 52 482 l 5
EndSplineSet
Fore
SplineSet
60 481 m 1
 446 481 l 1
 446 420 l 1
 216 103 l 1
 454 103 l 1
 454 0 l 1
 60 0 l 1
 60 62 l 1
 288 379 l 1
 60 379 l 1
 60 481 l 1
EndSplineSet
EndChar

StartChar: y
Encoding: 121 121 26
Width: 563
Flags: HMW
AnchorPoint: "below" 286 -261 basechar 0
AnchorPoint: "above" 286 482 basechar 0
AnchorPoint: "cedilla" 286 -261 basechar 0
LayerCount: 3
Back
SplineSet
17 482 m 5
 155 482 l 5
 298 112 l 5
 428 482 l 5
 555 482 l 5
 260 -259 l 5
 125 -259 l 5
 235 -4 l 5
 17 482 l 5
24.4141 482.422 m 5
 107.422 482.422 l 5
 261.719 73.2422 l 5
 405.273 482.422 l 5
 488.281 482.422 l 5
 209.961 -259.277 l 5
 124.512 -259.277 l 5
 223.633 -18.5547 l 5
 24.4141 482.422 l 5
EndSplineSet
Fore
SplineSet
0 481 m 1
 138 481 l 1
 281 112 l 1
 411 481 l 1
 538 481 l 1
 243 -259 l 1
 108 -259 l 1
 218 -4 l 1
 0 481 l 1
EndSplineSet
EndChar

StartChar: f
Encoding: 102 102 27
Width: 399
Flags: HMW
AnchorPoint: "below" 285 0 basechar 0
AnchorPoint: "above" 295 680.8 basechar 0
AnchorPoint: "cedilla" 159 -0.25 basechar 0
LayerCount: 3
Back
SplineSet
127 511 m 6
 127 584 130 698 324 698 c 4
 350 698 390 696 449 678 c 6
 466 672 l 5
 446 575 l 5
 426 580 l 6
 412 583 382 591 353 591 c 4
 278 591 247 561 247 515 c 6
 247 482 l 5
 428 482 l 5
 428 379 l 5
 247 379 l 5
 247 0 l 5
 127 0 l 5
 127 379 l 5
 47 379 l 5
 47 482 l 5
 127 482 l 5
 127 511 l 6
323.318 630.762 m 4
 210.623 630.762 216.771 541.855 216.797 528.32 c 6
 216.882 482.422 l 5
 378.418 482.422 l 5
 378.418 419.434 l 5
 216.998 419.434 l 5
 217.773 0 l 5
 136.719 0 l 5
 135.947 419.434 l 5
 65.918 419.434 l 5
 65.918 482.422 l 5
 135.832 482.422 l 5
 135.742 531.25 l 6
 135.74 532.319 135.738 533.389 135.738 534.458 c 4
 135.738 562.729 136.691 596.313 154.57 627.739 c 4
 180.199 672.788 231.644 697.729 296.711 697.729 c 4
 339.584 697.729 383.08 687.705 412.598 678.711 c 5
 400.391 619.141 l 5
 385.474 623.262 354.147 630.762 323.318 630.762 c 4
EndSplineSet
Fore
SplineSet
100 521 m 2
 100 574 123 706 297 706 c 0
 323 706 363 704 422 686 c 1
 439 680 l 1
 421 594 l 1
 401 599 l 2
 387 602 355 609 326 609 c 0
 261 609 220 571 220 525 c 2
 220 481 l 1
 401 481 l 1
 401 389 l 1
 220 389 l 1
 220 0 l 1
 180 -0 140 0 100 0 c 1
 100 389 l 1
 20 389 l 1
 20 481 l 1
 100 481 l 1
 100 521 l 2
EndSplineSet
EndChar

StartChar: G
Encoding: 71 71 28
Width: 726
Flags: MW
LayerCount: 3
Back
SplineSet
685.6 101 m 5
 659.6 73 580.6 -10 413.399 -10 c 4
 164 -10 50 175 50 346 c 4
 50 528 178.5 699 411.6 699 c 4
 504.3 699 584.6 671 643.6 638 c 5
 660.6 628 l 5
 609.6 531 l 5
 591.6 541 l 5
 553.8 561 486.3 586 416.1 586 c 4
 292.8 586 174 499 174 351 c 4
 174 207 282.899 104 432.3 104 c 4
 490.8 104 534 121 564.6 145 c 5
 564.6 278 l 5
 369.3 278 l 5
 369.3 386 l 5
 685.6 386 l 5
 685.6 101 l 5
EndSplineSet
Fore
SplineSet
671 71 m 1
 645 52 574 -10 413 -10 c 0
 164 -10 50 175 50 346 c 0
 50 528 179 699 412 699 c 0
 505 699 585 671 644 638 c 1
 661 628 l 1
 610 531 l 1
 592 541 l 2
 554 561 486 586 416 586 c 0
 293 586 175 499 175 351 c 0
 175 207 283 104 432 104 c 0
 490 104 519 113 550 130 c 1
 550 278 l 1
 369 278 l 1
 369 386 l 1
 671 386 l 1
 671 71 l 1
EndSplineSet
Validated: 1
EndChar

StartChar: H
Encoding: 72 72 29
Width: 740
Flags: MW
AnchorPoint: "below" 370 0 basechar 0
AnchorPoint: "above" 370 670 basechar 0
AnchorPoint: "cedilla" 370 0 basechar 0
LayerCount: 3
Back
SplineSet
537 694 m 5
 660 694 l 5
 660 0 l 5
 537 0 l 5
 537 301 l 5
 203 301 l 5
 203 0 l 5
 80 0 l 5
 80 694 l 5
 203 694 l 5
 203 415 l 5
 537 415 l 5
 537 694 l 5
EndSplineSet
Fore
SplineSet
537 694 m 1
 660 694 l 1
 660 0 l 1
 537 0 l 1
 537 290 l 1
 203 290 l 1
 203 0 l 1
 80 0 l 1
 80 694 l 1
 203 694 l 1
 203 403 l 1
 537 403 l 1
 537 694 l 1
EndSplineSet
Validated: 1
EndChar

StartChar: g
Encoding: 103 103 30
Width: 564
Flags: HMW
AnchorPoint: "below" 297 -261 basechar 0
AnchorPoint: "above" 261 481.6 basechar 0
AnchorPoint: "cedilla" 297 -261 basechar 0
LayerCount: 3
Back
SplineSet
300 492 m 4xec
 320 492 359 491 425 461 c 5
 432 482 l 5
 522 482 l 5xdc
 522 -10 l 6
 522 -124 472 -264 261 -264 c 4
 216 -264 156 -255 94 -231 c 5
 76 -224 l 5
 112 -129 l 5
 132 -136 l 5
 162 -146 204 -157 249 -157 c 4
 382 -157 402 -69 402 8 c 6
 402 12 l 5
 370 -1 333 -10 292 -10 c 4
 180 -10 44 56 44 240 c 4
 44 431 204 492 300 492 c 4xec
304 387 m 4xec
 223 387 169 333 169 248 c 4
 169 164 217 96 315 96 c 4
 349 96 379 105 402 114 c 5
 402 369 l 5
 357 384 324 387 304 387 c 4xec
286.684 492.041 m 4xec
 313.293 492.041 352.924 487.618 419.733 453.651 c 5
 430.176 482.422 l 5
 486.328 482.422 l 5xdc
 486.328 -23.4375 l 6
 486.328 -62.5078 491.895 -210.006 326.172 -254.395 c 4
 300.925 -261.156 274.907 -264.252 248.799 -264.252 c 4
 196.57 -264.252 144.227 -251.671 99.6094 -232.91 c 5
 122.07 -174.805 l 5
 163.115 -190.082 203.31 -197.343 238.229 -197.434 c 6
 238.88 -197.434 l 6
 286.901 -197.434 390.503 -182.414 404.046 -57.8594 c 4
 406.107 -38.9043 406.254 -19.8086 406.254 -0.730469 c 6
 406.25 23.25 l 5
 372.193 5.11621 327.293 -9.56543 278.64 -9.56543 c 4
 178.387 -9.56543 62.6016 55.1787 62.6016 239.893 c 4
 62.6016 435.66 205.028 492.041 286.684 492.041 c 4xec
291.559 427.169 m 4xec
 200.986 427.169 140.604 356.376 140.604 248.859 c 4
 140.604 143.656 193.689 56.3145 301.394 56.3145 c 4
 343.336 56.3145 380.688 70.2812 406.25 83.9062 c 5
 406.25 400.048 l 5
 341.643 426.57 302.857 427.169 291.559 427.169 c 4xec
EndSplineSet
Fore
SplineSet
386 11 m 2
 386 15 l 1
 353 -2 323 -10 281 -10 c 0
 124 -10 35 86 35 241 c 0
 35 436 172 492 265 492 c 0
 323 492 376 470 409 452 c 1
 422 481 l 1
 504 481 l 1
 504 -10 l 2
 504 -124 454 -264 243 -264 c 0
 198 -264 138 -255 76 -231 c 2
 58 -224 l 1
 91 -136 l 1
 111 -143 l 2
 141 -153 186 -167 231 -167 c 0
 364 -167 386 -96 386 11 c 2
298 395 m 0
 218 395 158 359 158 234 c 0
 158 121 222 82 302 82 c 0
 336 82 363 93 385 106 c 1
 385 379 l 1
 353 391 324 395 298 395 c 0
EndSplineSet
EndChar

StartChar: O
Encoding: 79 79 31
Width: 784
Flags: MW
AnchorPoint: "below" 392 0 basechar 0
AnchorPoint: "above" 392 670 basechar 0
AnchorPoint: "cedilla" 392 0 basechar 0
LayerCount: 3
Back
SplineSet
393 701 m 4
 584 701 734 568 734 354 c 4
 734 139 587 -7 389 -7 c 4
 220 -7 50 109 50 345 c 4
 50 562 200 701 393 701 c 4
388 588 m 4
 285 588 176 518 176 355 c 4
 176 201 274 105 396 105 c 4
 497 105 608 176 608 346 c 4
 608 518 490 588 388 588 c 4
EndSplineSet
Fore
SplineSet
393 701 m 0
 584 701 734 568 734 354 c 0
 734 139 587 -7 389 -7 c 0
 220 -7 50 109 50 345 c 0
 50 562 200 701 393 701 c 0
388 588 m 0
 285 588 176 518 176 355 c 0
 176 201 274 106 396 106 c 0
 497 106 608 176 608 346 c 0
 608 518 490 588 388 588 c 0
EndSplineSet
Validated: 1
EndChar

StartChar: A
Encoding: 65 65 32
Width: 675
Flags: MW
AnchorPoint: "below" 340 0 basechar 0
AnchorPoint: "above" 340 670 basechar 0
AnchorPoint: "cedilla" 340 0 basechar 0
LayerCount: 3
Back
SplineSet
280 694 m 5
 401 694 l 5
 661 0 l 5
 534 0 l 5
 464 182 l 5
 209 182 l 5
 140 0 l 5
 20 0 l 5
 280 694 l 5
425 294 m 5
 337 552 l 5
 248 294 l 5
 425 294 l 5
EndSplineSet
Fore
SplineSet
277 694 m 1
 398 694 l 1
 658 0 l 1
 531 0 l 1
 461 182 l 1
 206 182 l 1
 137 0 l 1
 17 0 l 1
 277 694 l 1
422 294 m 1
 334 552 l 1
 245 294 l 1
 422 294 l 1
EndSplineSet
Validated: 1
EndChar

StartChar: L
Encoding: 76 76 33
Width: 556
Flags: MW
AnchorPoint: "below" 290 0 basechar 0
AnchorPoint: "above" 290 670 basechar 0
AnchorPoint: "cedilla" 290 0 basechar 0
AnchorPoint: "aboveright" 414 670 basechar 0
LayerCount: 3
Back
SplineSet
80 694 m 5
 203 694 l 5
 203 113 l 5
 531 113 l 5
 531 0 l 5
 80 0 l 5
 80 694 l 5
EndSplineSet
Fore
SplineSet
80 694 m 1
 203 694 l 1
 203 113 l 1
 531 113 l 1
 531 0 l 1
 80 0 l 1
 80 694 l 1
EndSplineSet
Validated: 1
EndChar

StartChar: E
Encoding: 69 69 34
Width: 587
Flags: MW
AnchorPoint: "below" 314 0 basechar 0
AnchorPoint: "above" 314 670 basechar 0
AnchorPoint: "cedilla" 314 0 basechar 0
LayerCount: 3
Back
SplineSet
80 0 m 5
 80 694 l 5
 542 694 l 5
 542 581 l 5
 203 581 l 5
 203 414 l 5
 516 414 l 5
 516 301 l 5
 203 301 l 5
 203 113 l 5
 542 113 l 5
 542 0 l 5
 80 0 l 5
EndSplineSet
Fore
SplineSet
80 0 m 1
 80 694 l 1
 532 694 l 1
 532 581 l 1
 203 581 l 1
 203 408 l 1
 496 408 l 1
 496 295 l 1
 203 295 l 1
 203 113 l 1
 532 113 l 1
 532 0 l 1
 80 0 l 1
EndSplineSet
Validated: 1
EndChar

StartChar: F
Encoding: 70 70 35
Width: 573
Flags: MW
AnchorPoint: "below" 314 0 basechar 0
AnchorPoint: "above" 314 670 basechar 0
AnchorPoint: "cedilla" 142 0 basechar 0
LayerCount: 3
Back
SplineSet
203 581 m 5
 203 414 l 5
 508 414 l 5
 508 301 l 5
 203 301 l 5
 203 0 l 5
 80 0 l 5
 80 694 l 5
 538 694 l 5
 538 581 l 5
 203 581 l 5
EndSplineSet
Fore
SplineSet
203 581 m 1
 203 377 l 1
 488 377 l 1
 488 264 l 1
 203 264 l 1
 203 0 l 1
 80 0 l 1
 80 694 l 1
 528 694 l 1
 528 581 l 1
 203 581 l 1
EndSplineSet
Validated: 1
EndChar

StartChar: N
Encoding: 78 78 36
Width: 766
Flags: MW
AnchorPoint: "below" 384 0 basechar 0
AnchorPoint: "above" 384 670 basechar 0
AnchorPoint: "cedilla" 384 0 basechar 0
LayerCount: 3
Back
SplineSet
80 694 m 5
 228 694 l 5
 563 161 l 5
 563 694 l 5
 686 694 l 5
 686 0 l 5
 536 0 l 5
 203 534 l 5
 203 0 l 5
 80 0 l 5
 80 694 l 5
EndSplineSet
Fore
SplineSet
80 694 m 1
 228 694 l 1
 563 179 l 1
 563 694 l 1
 686 694 l 1
 686 0 l 1
 536 0 l 1
 203 516 l 1
 203 0 l 1
 80 0 l 1
 80 694 l 1
EndSplineSet
Validated: 1
EndChar

StartChar: V
Encoding: 86 86 37
Width: 656
Flags: MW
AnchorPoint: "below" 328 0 basechar 0
AnchorPoint: "above" 328 670 basechar 0
AnchorPoint: "cedilla" 328 0 basechar 0
LayerCount: 3
Back
SplineSet
10 694 m 5
 149 694 l 5
 341 132 l 5
 516 694 l 5
 649 694 l 5
 409 0 l 5
 263 0 l 5
 10 694 l 5
EndSplineSet
Fore
SplineSet
10 694 m 1
 149 694 l 1
 341 132 l 1
 516 694 l 1
 649 694 l 1
 409 0 l 1
 263 0 l 1
 10 694 l 1
EndSplineSet
Validated: 1
EndChar

StartChar: Z
Encoding: 90 90 38
Width: 608
Flags: MW
AnchorPoint: "below" 312 0 basechar 0
AnchorPoint: "above" 312 670 basechar 0
AnchorPoint: "cedilla" 312 0 basechar 0
LayerCount: 3
Back
SplineSet
24 694 m 5
 595 694 l 5
 595 619 l 5
 180 113 l 5
 608 113 l 5
 608 0 l 5
 10 0 l 5
 10 76 l 5
 416 581 l 5
 24 581 l 5
 24 694 l 5
EndSplineSet
Fore
SplineSet
59 694 m 1
 570 694 l 1
 570 619 l 1
 200 113 l 1
 573 113 l 1
 573 0 l 1
 35 0 l 1
 35 76 l 1
 396 581 l 1
 59 581 l 1
 59 694 l 1
EndSplineSet
Validated: 1
EndChar

StartChar: T
Encoding: 84 84 39
Width: 599
Flags: MW
AnchorPoint: "below" 310 0 basechar 0
AnchorPoint: "above" 310 670 basechar 0
AnchorPoint: "cedilla" 310 0 basechar 0
LayerCount: 3
Back
SplineSet
10 694 m 5
 210 694 410 694 610 694 c 5
 610 581 l 5
 372 581 l 5
 372 0 l 5
 248 0 l 5
 248 581 l 5
 10 581 l 5
 10 694 l 5
EndSplineSet
Fore
SplineSet
10 694 m 1
 589 694 l 1
 589 581 l 1
 361 581 l 1
 361 0 l 1
 238 0 l 1
 238 581 l 1
 10 581 l 1
 10 694 l 1
EndSplineSet
Validated: 1
EndChar

StartChar: I
Encoding: 73 73 40
Width: 283
Flags: MW
AnchorPoint: "below" 142 0 basechar 0
AnchorPoint: "above" 142 670 basechar 0
AnchorPoint: "cedilla" 142 0 basechar 0
LayerCount: 3
Back
SplineSet
80 694 m 5
 203 694 l 5
 203 0 l 5
 80 0 l 5
 80 694 l 5
EndSplineSet
Fore
SplineSet
80 694 m 1
 203 694 l 1
 203 0 l 1
 80 0 l 1
 80 694 l 1
EndSplineSet
Validated: 1
EndChar

StartChar: X
Encoding: 88 88 41
Width: 672
Flags: MW
AnchorPoint: "below" 347 0 basechar 0
AnchorPoint: "above" 347 670 basechar 0
AnchorPoint: "cedilla" 347 0 basechar 0
LayerCount: 3
Back
SplineSet
515 694 m 5
 657 694 l 5
 425 363 l 5
 684 0 l 5
 528 0 l 5
 345 276 l 5
 161 0 l 5
 10 0 l 5
 273 362 l 5
 40 694 l 5
 185 694 l 5
 353 449 l 5
 515 694 l 5
EndSplineSet
Fore
SplineSet
336 463 m 1
 493 694 l 1
 632 694 l 1
 406 361 l 1
 652 0 l 1
 511 0 l 1
 336 258 l 1
 161 0 l 1
 20 0 l 1
 266 361 l 1
 40 694 l 1
 179 694 l 1
 336 463 l 1
EndSplineSet
Validated: 1
EndChar

StartChar: Y
Encoding: 89 89 42
Width: 641
Flags: MW
AnchorPoint: "below" 322 0 basechar 0
AnchorPoint: "above" 322 670 basechar 0
AnchorPoint: "cedilla" 322 0 basechar 0
LayerCount: 3
Back
SplineSet
10 694 m 5
 152 694 l 5
 327 425 l 5
 504 694 l 5
 643 694 l 5
 391 324 l 5
 391 0 l 5
 253 0 l 5
 253 324 l 5
 10 694 l 5
EndSplineSet
Fore
SplineSet
7 694 m 1
 145 694 l 1
 320 425 l 1
 497 694 l 1
 636 694 l 1
 377 314 l 1
 377 0 l 1
 254 0 l 1
 254 314 l 1
 7 694 l 1
EndSplineSet
Validated: 1
EndChar

StartChar: K
Encoding: 75 75 43
Width: 657
Flags: MW
AnchorPoint: "below" 330 0 basechar 0
AnchorPoint: "above" 330 670 basechar 0
AnchorPoint: "cedilla" 330 0 basechar 0
LayerCount: 3
Back
SplineSet
203 376 m 5
 487 694 l 5
 644 694 l 5
 329 362 l 5
 661 0 l 5
 502 0 l 5
 203 336 l 5
 203 0 l 5
 80 0 l 5
 80 694 l 5
 203 694 l 5
 203 376 l 5
EndSplineSet
Fore
SplineSet
203 694 m 1
 203 0 l 1
 80 0 l 1
 80 694 l 1
 203 694 l 1
213 358 m 1
 487 694 l 1
 627 694 l 1
 355 358 l 1
 647 0 l 1
 501 0 l 1
 213 358 l 1
EndSplineSet
Validated: 1
EndChar

StartChar: M
Encoding: 77 77 44
Width: 860
Flags: MW
AnchorPoint: "cedilla" 430 0 basechar 0
AnchorPoint: "below" 430 0 basechar 0
AnchorPoint: "above" 430 670 basechar 0
LayerCount: 3
Back
SplineSet
80 694 m 5
 244 694 l 5
 431 325 l 5
 622 694 l 5
 780 694 l 5
 780 0 l 5
 657 0 l 5
 657 519 l 5
 481 199 l 5
 377 199 l 5
 203 519 l 5
 203 0 l 5
 80 0 l 5
 80 694 l 5
EndSplineSet
Fore
SplineSet
80 694 m 1
 244 694 l 1
 431 314 l 1
 622 694 l 1
 780 694 l 1
 780 0 l 1
 657 0 l 1
 657 523 l 1
 481 178 l 1
 377 178 l 1
 203 523 l 1
 203 0 l 1
 80 0 l 1
 80 694 l 1
EndSplineSet
Validated: 1
EndChar

StartChar: hyphen
Encoding: 45 45 45
Width: 553
VWidth: 1023
Flags: MW
LayerCount: 3
Fore
SplineSet
47 375 m 1
 507 375 l 1
 507 268 l 1
 47 268 l 1
 47 375 l 1
EndSplineSet
Validated: 1
EndChar

StartChar: J
Encoding: 74 74 46
Width: 477
Flags: HMW
AnchorPoint: "below" 222 0 basechar 0
AnchorPoint: "above" 350 670 basechar 0
AnchorPoint: "cedilla" 162 0 basechar 0
LayerCount: 3
Back
SplineSet
289 694 m 5xb0
 412 694 l 5
 412 250 l 6
 412 141 384 -8 154 -8 c 4xb0
 120 -8 86 -4 53 4 c 6
 35 9 l 5
 55 117 l 5x70
 76 112 l 6
 97 107 119 105 140 105 c 4
 283 105 289 207 289 250 c 6
 289 694 l 5xb0
EndSplineSet
Fore
SplineSet
284 694 m 1
 407 694 l 1
 407 250 l 2
 407 141 379 -10 149 -10 c 0
 115 -10 81 -4 48 4 c 1
 30 9 l 1
 50 117 l 1
 71 112 l 2
 92 107 114 105 135 105 c 0
 278 105 284 207 284 250 c 2
 284 694 l 1
EndSplineSet
EndChar

StartChar: R
Encoding: 82 82 47
Width: 641
Flags: HMW
AnchorPoint: "cedilla" 141 0 basechar 0
AnchorPoint: "above" 310 670 basechar 0
AnchorPoint: "below" 310 0 basechar 0
LayerCount: 3
Back
SplineSet
588 495 m 4
 588 410 550 324 439 290 c 5
 644 0 l 5
 484 0 l 5
 308 269 l 5
 203 269 l 5
 203 0 l 5
 80 0 l 5
 80 694 l 5
 358 694 l 6
 434 694 588 681 588 495 c 4
203 581 m 5
 203 382 l 5
 305 382 l 6
 383 382 460 394 460 484 c 4
 460 549 415 581 325 581 c 6
 203 581 l 5
EndSplineSet
Fore
SplineSet
80 694 m 1
 306 694 l 2
 396 694 591 680 591 489 c 0
 591 372 520 317 436 290 c 1
 611 0 l 1
 471 0 l 1
 313 269 l 1
 293 269 274 268 257 268 c 0
 238 268 221 270 203 270 c 1
 203 0 l 1
 80 0 l 1
 80 694 l 1
203 581 m 1
 203 383 l 1
 224 383 243 380 264 380 c 0
 369 380 465 389 465 485 c 0
 465 570 383 581 294 581 c 2
 203 581 l 1
EndSplineSet
EndChar

StartChar: D
Encoding: 68 68 48
Width: 734
Flags: MW
AnchorPoint: "below" 352 0 basechar 0
AnchorPoint: "above" 352 670 basechar 0
AnchorPoint: "cedilla" 352 0 basechar 0
LayerCount: 3
Back
SplineSet
316 581 m 6
 203 581 l 5
 203 113 l 5
 283 113 l 6
 359 113 470 116 527 221 c 4
 540 244 558 286 558 351 c 4
 558 499 460 564 377 577 c 4
 358 580 337 581 316 581 c 6
314 694 m 6
 601 694 681 520 681 367 c 4
 681 226 625 61 432 15 c 5
 373 0 311 0 253 0 c 6
 80 0 l 5
 80 694 l 5
 314 694 l 6
141.602 693.848 m 5
 335.449 693.848 l 6
 388.852 693.848 706.079 709.16 706.079 367.926 c 4
 706.079 -20.4775 382.459 0 291.992 0 c 6
 141.602 0 l 5
 141.602 693.848 l 5
224.609 620.605 m 5
 224.609 73.2422 l 5
 325.684 73.2422 l 6
 438.754 73.2422 622.764 91.7266 622.764 351.336 c 4
 622.764 466.555 570.088 620.605 359.375 620.605 c 6
 224.609 620.605 l 5
EndSplineSet
Fore
SplineSet
316 581 m 2
 203 581 l 1
 203 113 l 1
 283 113 l 2
 359 113 470 116 527 221 c 0
 540 244 558 286 558 351 c 0
 558 503 471 581 316 581 c 2
314 694 m 2
 607 694 684 510 684 367 c 0
 684 226 625 61 432 15 c 0
 373 0 311 0 253 0 c 2
 80 0 l 1
 80 694 l 1
 314 694 l 2
EndSplineSet
Validated: 1
EndChar

StartChar: P
Encoding: 80 80 49
Width: 631
Flags: HMW
AnchorPoint: "below" 310 0 basechar 0
AnchorPoint: "above" 310 670 basechar 0
AnchorPoint: "cedilla" 141 0 basechar 0
LayerCount: 3
Back
SplineSet
80 694 m 5
 316 694 l 6
 406 694 591 690 591 499 c 4
 591 288 407 268 257 268 c 4
 238 268 221 269 203 270 c 5
 203 0 l 5
 80 0 l 5
 80 694 l 5
203 581 m 5
 203 383 l 5
 224 382 243 380 264 380 c 4
 369 380 465 389 465 485 c 4
 465 570 383 581 294 581 c 6
 203 581 l 5
EndSplineSet
Fore
SplineSet
80 694 m 1
 306 694 l 2
 396 694 591 680 591 489 c 0
 591 291 407 268 257 268 c 0
 238 268 221 270 203 270 c 1
 203 0 l 1
 80 0 l 1
 80 694 l 1
203 581 m 1
 203 383 l 1
 224 383 243 380 264 380 c 0
 369 380 465 389 465 485 c 0
 465 570 383 581 294 581 c 2
 203 581 l 1
EndSplineSet
EndChar

StartChar: B
Encoding: 66 66 50
Width: 649
Flags: HMW
AnchorPoint: "below" 298 0 basechar 0
AnchorPoint: "above" 298 670 basechar 0
AnchorPoint: "cedilla" 298 0 basechar 0
LayerCount: 3
Back
SplineSet
305 584 m 6xf8
 203 584 l 5
 203 414 l 5
 305 416 433 400 433 503 c 4
 433 538 417 584 305 584 c 6xf8
312 310 m 4
 203 310 l 5
 203 113 l 5
 301 113 l 6
 360 113 496 115 496 212 c 4xf4
 496 279 424 310 312 310 c 4
80 694 m 5
 330 694 l 6
 532 694 569 576 569 517 c 4xf8
 569 471 541 422 506 392 c 5
 579 362 619 294 619 218 c 4
 619 152 575 0 313 0 c 6
 80 0 l 5
 80 694 l 5
EndSplineSet
Fore
SplineSet
293 585 m 2
 203 585 l 1
 203 408 l 1
 293 408 l 1
 394 408 434 439 434 496 c 0
 434 549 405 585 293 585 c 2
283 305 m 1
 203 305 l 1
 203 109 l 1
 284 109 l 2
 411 109 486 127 486 204 c 0
 486 267 431 305 283 305 c 1
80 694 m 1
 315 694 l 2
 517 694 554 576 554 513 c 0
 554 451 527 398 463 359 c 1
 561 341 609 258 609 189 c 0
 609 110 559 0 297 0 c 2
 80 0 l 1
 80 694 l 1
EndSplineSet
EndChar

StartChar: U
Encoding: 85 85 51
Width: 712
Flags: MW
AnchorPoint: "below" 364 0 basechar 0
AnchorPoint: "above" 364 670 basechar 0
AnchorPoint: "cedilla" 364 0 basechar 0
LayerCount: 3
Back
SplineSet
364 -10 m 4
 84 -10 80 160 80 237 c 4
 80 239 80 241 80 243 c 6
 80 694 l 5
 203 694 l 5
 203 254 l 6
 203 212 206 177 234 147 c 4
 246 134 284 102 364 102 c 4
 447 102 504 135 519 195 c 4
 523 213 525 233 525 254 c 6
 525 694 l 5
 647 694 l 5
 647 250 648 295 648 250 c 4
 648 166 636 -10 364 -10 c 4
141.602 693.848 m 5
 224.609 693.848 l 5
 224.609 244.141 l 6
 224.609 198.398 227.598 155.326 261.23 117.188 c 4
 276.926 99.3896 318.848 62.0117 405.273 62.0117 c 4
 496.265 62.0117 561.855 103.221 580.083 176.818 c 4
 585.513 198.742 585.938 221.554 585.938 244.141 c 6
 585.938 693.848 l 5
 668.945 693.848 l 5
 668.945 302.734 l 6
 668.945 280.773 669.727 258.656 669.727 236.623 c 4
 669.727 156.677 661.968 -10.2539 405.273 -10.2539 c 4
 203.904 -10.2539 161.146 97.8154 149.414 146.484 c 4
 142.311 175.951 140.818 206.203 140.818 236.613 c 4
 140.818 258.65 141.602 280.77 141.602 302.734 c 6
 141.602 693.848 l 5
EndSplineSet
Fore
SplineSet
356 -10 m 0
 84 -10 72 166 72 250 c 2
 72 694 l 1
 195 694 l 1
 195 256 l 2
 195 235 197 215 201 197 c 0
 216 137 273 104 356 104 c 0
 439 104 496 137 511 197 c 0
 515 215 517 235 517 256 c 2
 517 694 l 1
 640 694 l 1
 640 250 l 2
 640 166 628 -10 356 -10 c 0
EndSplineSet
Validated: 1
EndChar

StartChar: Q
Encoding: 81 81 52
Width: 782
Flags: MW
AnchorPoint: "cedilla" 392 0 basechar 0
AnchorPoint: "above" 392 670 basechar 0
AnchorPoint: "below" 392 0 basechar 0
LayerCount: 3
Back
SplineSet
393 701 m 4
 593 701 734 561 734 346 c 4
 734 254 710 179 668 121 c 5
 757 37 l 5
 686 -36 l 5
 590 53 l 5
 528 8 457 -7 394 -7 c 4
 207 -7 50 121 50 344 c 4
 50 563 200 701 393 701 c 4
386 588 m 4
 288 588 176 520 176 353 c 4
 176 190 282 105 403 105 c 4
 449 105 485 118 507 131 c 5
 360 263 l 5
 438 338 l 5
 579 206 l 5
 597 240 606 282 606 335 c 4
 606 537 474 588 386 588 c 4
EndSplineSet
Fore
SplineSet
757 37 m 1
 686 -36 l 1
 589 53 l 1
 533 14 465 -7 389 -7 c 0
 220 -7 50 109 50 345 c 0
 50 562 200 701 393 701 c 0
 584 701 734 568 734 354 c 0
 734 264 708 185 663 125 c 1
 757 37 l 1
388 588 m 0
 285 588 176 518 176 355 c 0
 176 201 274 106 396 106 c 0
 431 106 468 114 501 133 c 1
 365 259 l 1
 439 338 l 1
 575 208 l 1
 595 244 608 289 608 346 c 0
 608 518 490 588 388 588 c 0
EndSplineSet
Validated: 1
EndChar

StartChar: W
Encoding: 87 87 53
Width: 1040
Flags: MW
AnchorPoint: "below" 538 0 basechar 0
AnchorPoint: "above" 538 670 basechar 0
AnchorPoint: "cedilla" 538 0 basechar 0
LayerCount: 3
Back
SplineSet
10 694 m 5
 140 694 l 5
 300 161 l 5
 487 694 l 5
 588 694 l 5
 743 161 l 5
 938 694 l 5
 1068 694 l 5
 802 0 l 5
 684 0 l 5
 533 531 l 5
 357 0 l 5
 239 0 l 5
 10 694 l 5
EndSplineSet
Fore
SplineSet
12 694 m 1
 142 694 l 1
 282 161 l 1
 449 694 l 1
 590 694 l 1
 725 161 l 1
 900 694 l 1
 1030 694 l 1
 784 0 l 1
 656 0 l 1
 515 531 l 1
 349 0 l 1
 221 0 l 1
 12 694 l 1
EndSplineSet
Validated: 1
EndChar

StartChar: C
Encoding: 67 67 54
Width: 682
Flags: MW
AnchorPoint: "below" 380 0 basechar 0
AnchorPoint: "above" 380 670 basechar 0
AnchorPoint: "cedilla" 356 0 basechar 0
LayerCount: 3
Back
SplineSet
419 699 m 4
 473 699 541 689 614 660 c 5
 632 653 l 5
 594 547 l 5
 575 554 l 5
 498 581 448 585 416 585 c 4
 266 585 174 472 174 347 c 4
 174 218 272 106 434 106 c 4
 478 106 530 116 584 135 c 6
 602 141 l 5
 642 43 l 5
 624 36 l 6
 551 5 476 -10 412 -10 c 4
 187 -10 50 149 50 346 c 4
 50 546 194 699 419 699 c 4
EndSplineSet
Fore
SplineSet
419 699 m 0
 473 699 541 689 614 660 c 2
 632 653 l 1
 592 555 l 1
 573 562 l 2
 497 590 448 590 416 590 c 0
 266 590 176 479 176 347 c 0
 176 200 272 103 434 103 c 0
 478 103 531 114 584 135 c 2
 602 142 l 1
 642 43 l 1
 624 36 l 1
 551 5 476 -10 412 -10 c 0
 187 -10 50 149 50 346 c 0
 50 546 194 699 419 699 c 0
EndSplineSet
Validated: 1
EndChar

StartChar: S
Encoding: 83 83 55
Width: 628
Flags: HMW
LayerCount: 3
Back
SplineSet
351.154 585 m 4
 267.454 585 214 549 214 499 c 4
 214 380 595.899 423 593.7 200 c 4
 593.7 106 512.7 -10 299.7 -10 c 4
 211.5 -10 145 13 78 39 c 5
 60 45 l 5
 102 164 l 5
 121 156 l 5
 210.6 123 271.8 112 309.6 112 c 4
 399.6 112 461.7 142 461.7 192 c 4
 465.1 324 80 272 80 493 c 4
 80 606 168.555 699 347.354 699 c 4
 457.354 699 525.186 671.39 553.354 662 c 6
 565.354 657 l 5
 525.354 543 l 5
 469.355 565 414.355 585 351.154 585 c 4
EndSplineSet
Fore
SplineSet
341 583 m 0
 257 583 205 549 205 499 c 0
 205 380 578 431 578 192 c 0
 578 96 504 -10 290 -10 c 0
 202 -10 135 13 68 39 c 1
 50 45 l 1
 92 158 l 1
 111 150 l 1
 201 117 262 106 300 106 c 0
 390 106 451 142 451 192 c 1
 451 324 78 260 78 504 c 0
 78 617 178 699 337 699 c 0
 447 699 515 671 543 662 c 1
 555 657 l 1
 516 545 l 1
 460 567 404 583 341 583 c 0
EndSplineSet
EndChar

StartChar: at
Encoding: 64 64 56
Width: 992
VWidth: 1023
Flags: HMW
LayerCount: 3
Fore
SplineSet
599 457 m 1
 607 481 l 1
 692 481 l 1
 692 128 l 2
 692 70 708 50 745 50 c 3
 771 50 837 67 837 246 c 3
 837 428 783 604 528 604 c 3
 248 604 154 419 154 240 c 3
 154 -0.00833318866242 276 -119 459 -119 c 3
 580 -119 627 -98 627 -98 c 1
 627 -194 l 1
 627 -194 565 -214 459 -214 c 3
 275 -214 45 -127 45 240 c 7
 45 410 141 706 528 706 c 7
 886 706 949 451 949 246 c 3
 949 -34 795 -42 723 -42 c 3
 668 -42 623 -25 600 19 c 1
 560 -1 519 -10 484 -10 c 3
 360 -10 266 91 266 238 c 3
 266 387 358 492 496 492 c 3
 536 492 578 482 599 457 c 1
506 397 m 0
 430 397 375 336 375 238 c 3
 375 138 433 88 508 88 c 0
 530 88 555 93 581 105 c 1
 581 369 l 1
 570 390 534 397 506 397 c 0
EndSplineSet
EndChar

StartChar: question
Encoding: 63 63 57
Width: 560
VWidth: 1023
Flags: HMW
LayerCount: 3
Fore
SplineSet
153 141 m 1
 293 141 l 1
 293 1 l 1
 153 1 l 1
 153 141 l 1
474 520 m 0
 474 312 288 408 288 244 c 6
 288 224 l 5
 165 224 l 5
 165 244 l 6
 165 460 353 385 353 506 c 0
 353 540 333 596 219 596 c 0
 182 596 134 585 108 574 c 2
 89 567 l 1
 49 662 l 1
 66 671 l 2
 118 697 177 706 233 706 c 0
 379 706 474 645 474 520 c 0
EndSplineSet
EndChar

StartChar: eight
Encoding: 56 56 58
Width: 660
VWidth: 1023
Flags: MW
LayerCount: 3
Fore
SplineSet
321 593 m 0
 253 593 207.001 554 207.001 516 c 0
 207.001 459 290 434 348 418 c 1
 414 455 444 478 444 511 c 0
 444 566 386 593 321 593 c 0
482 214 m 0
 482 294 402 330 308 354 c 1
 218.001 329 166.001 272 166.001 218 c 0
 166.001 160 227.001 104 332 104 c 0
 427 104 482 155 482 214 c 0
321 703 m 0
 492 703 570 633 570 524 c 0
 570 469 540 428 489 388 c 1
 572 343 609 278 609 208 c 0
 609 100 514 -10 327 -10 c 0
 162.001 -10 40 75 40 199 c 0
 40 272 88.001 342 159.001 385 c 1
 93.001 430 79 491 79 526 c 0
 79 623 166.001 703 321 703 c 0
EndSplineSet
Validated: 1
EndChar

StartChar: nine
Encoding: 57 57 59
Width: 660
Flags: MW
LayerCount: 3
Back
SplineSet
158 101 m 21
 349 101 440 183 464 258 c 5
 423 235 372 221 314 221 c 4
 159 221 60 318 60 453 c 4
 60 592 165 703 341 703 c 4
 455 703 607 660 607 411 c 4
 607 88 394 -12 169 -12 c 13
 158 101 l 21
336 329 m 4
 419 329 486 382 486 456 c 4
 486 528 420 595 330 595 c 4
 248 595 180 538 180 462 c 4
 180 381 255 329 336 329 c 4
EndSplineSet
Fore
SplineSet
162 -12 m 1
 154 96 l 1
 230 96 301 107 356 139 c 0
 406 167 445 204 460 273 c 1
 413 253 363 243 316 243 c 0
 195 243 80 316 80 473 c 0
 80 602 180 703 322 703 c 0
 532 703 585 546 585 381 c 0
 585 123 415 -12 162 -12 c 1
330 590 m 0
 245 590 195 546 195 477 c 0
 195 385 267 351 340 351 c 0
 390 351 437 363 471 389 c 1
 479 453 454 590 330 590 c 0
EndSplineSet
Validated: 33
EndChar

StartChar: six
Encoding: 54 54 60
Width: 660
Flags: MW
LayerCount: 3
Back
SplineSet
509 590 m 21
 318 590 227 513 203 438 c 5
 244 461 295 475 353 475 c 4
 508 475 607 380 607 245 c 4
 607 106 502 -12 326 -12 c 4
 212 -12 60 36 60 285 c 4
 60 608 273 703 498 703 c 13
 509 590 l 21
331 367 m 4
 248 367 181 316 181 242 c 4
 181 170 247 96 337 96 c 4
 419 96 487 160 487 236 c 4
 487 317 412 367 331 367 c 4
EndSplineSet
Fore
SplineSet
503 703 m 1
 511 595 l 1
 435 595 364 584 309 552 c 0
 259 524 222 487 205 418 c 1
 252 438 302 448 349 448 c 0
 473 448 585 372 585 218 c 0
 585 89 485 -12 343 -12 c 0
 133 -12 80 145 80 310 c 0
 80 568 250 703 503 703 c 1
335 101 m 0
 420 101 470 145 470 214 c 0
 470 306 402 340 329 340 c 0
 279 340 228 323 194 297 c 1
 186 233 211 101 335 101 c 0
EndSplineSet
Validated: 33
EndChar

StartChar: seven
Encoding: 55 55 61
Width: 660
Flags: MW
LayerCount: 3
Back
SplineSet
40 694 m 5
 627 694 l 5
 627 621 l 5
 255 0 l 5
 114 0 l 5
 467 576 l 5
 40 576 l 5
 40 694 l 5
EndSplineSet
Fore
SplineSet
77 694 m 1
 584 694 l 1
 584 621 l 1
 312 0 l 1
 181 0 l 1
 434 582 l 1
 77 582 l 1
 77 694 l 1
EndSplineSet
Validated: 1
EndChar

StartChar: five
Encoding: 53 53 62
Width: 660
Flags: MW
LayerCount: 3
Back
SplineSet
95 694 m 5xbc
 574 694 l 5
 574 581 l 5
 218.999 581 l 5
 218.999 454 l 5
 243.999 456 276 458 309 458 c 4
 559 458 616 321 616 231 c 4
 616 135 554 -10 275 -10 c 4xbc
 200.999 -10 136.999 -3 80 8 c 6
 60 12 l 5
 84 125 l 5x7c
 103.999 121 l 5
 147.999 112 206.999 105 268 105 c 4
 449 105 488 177 488 224 c 4
 488 269 446 343 278 343 c 4
 244.999 343 192.999 341 116.999 332 c 5
 95 329 l 5
 95 694 l 5xbc
EndSplineSet
Fore
SplineSet
108 694 m 1
 537 694 l 1
 537 581 l 1
 228 581 l 1
 228 444 l 1
 253 446 285 448 318 448 c 0
 528 448 585 321 585 215 c 0
 585 135 533 -10 284 -10 c 0
 210 -10 152 3 75 29 c 1
 107 139 l 1
 171 119 226 105 288 105 c 0
 438 105 459 177 459 224 c 0
 459 269 428 336 290 336 c 0
 257 336 205 333 108 321 c 1
 108 694 l 1
EndSplineSet
Validated: 1
EndChar

StartChar: two
Encoding: 50 50 63
Width: 660
Flags: MW
LayerCount: 3
Back
SplineSet
98.5 540 m 13
 62.5 639 l 21
 111 663.7 185.525 702.654 299.5 703 c 5
 466.5 703 573.5 616 573.5 485 c 4
 573.5 375.601 371.033 267.383 301.5 203 c 4
 274.5 178 237.5 137 229.5 115 c 13
 588.5 113 l 29
 588.5 0 l 29
 64.5 0 l 29
 65.5 76.8916 l 21
 87.5361 123.459 118.5 181 169.5 233 c 4
 267.038 337.642 435.5 414.275 435.5 479 c 4
 435.5 537 387.5 589 299.5 589 c 4
 229.87 589 156 564.7 98.5 540 c 13
96.6797 644.043 m 5
 155.896 673.452 233.834 698.75 313.556 698.75 c 4
 453.259 698.75 540.112 617.007 540.112 520.049 c 4
 540.112 345.451 290.514 308.498 210.875 73.2422 c 5
 552.734 73.2422 l 5
 552.734 0 l 5
 109.863 0 l 5
 109.863 45.4102 l 5
 185.488 281.876 380.651 378.309 430.302 442.562 c 4
 441.684 457.291 453.467 477.879 453.467 505.4 c 4
 453.467 571.147 383.816 627.061 297.678 627.061 c 4
 256.503 627.061 214.643 613.662 194.74 607.529 c 6
 115.723 582.031 l 5
 96.6797 644.043 l 5
EndSplineSet
Fore
SplineSet
123 533 m 1
 87 640 l 1
 135 665 213 703 307 703 c 0
 474 703 551 616 551 503 c 0
 551 366 417 242 286 108 c 1
 565 108 l 1
 565 0 l 1
 88 0 l 1
 88 77 l 1
 125 112 167 148 219 202 c 0
 319 307 428 407 428 495 c 0
 428 551 395 586 307 586 c 0
 237 586 181 558 123 533 c 1
EndSplineSet
Validated: 1
EndChar

StartChar: three
Encoding: 51 51 64
Width: 660
Flags: MW
AnchorPoint: "aboveright" 288.5 498.336 basechar 0
LayerCount: 3
Back
SplineSet
552.303 641.286 m 5
 393.369 424.093 l 5
 555 397.6 601.803 299.197 601.803 209.608 c 4
 601.803 137.205 566 86.5996 516.418 48.4746 c 4
 457.597 3.24512 386.629 -14 289.122 -14 c 4
 286.735 -14 l 4
 211.91 -14 144.228 -1.20996 80.8223 22.7334 c 4
 59 30.9736 l 5
 97.3154 133.812 l 5
 120.03 127.965 l 4
 187.963 110.85 253.735 103.016 302.245 103.016 c 4
 350.741 103.016 394 115.6 418.949 130.903 c 4
 455.637 153.407 471.01 183.6 471.01 201.604 c 4
 471.01 237.544 464.729 271.889 399 300.6 c 4
 365.531 315.219 327.354 321.753 249.751 321.753 c 4
 219.925 321.753 l 5
 219.925 380.606 l 5
 367.394 581 l 5
 67.3027 581 l 5
 67.3027 694 l 5
 552.303 694 l 5
 552.303 641.286 l 5
85 650 m 6xf0
 131 673 214 702 309 702 c 4
 459 702 560 629 560 527 c 4xf0
 560 466 531 417 483 385 c 5
 560 351 590 293 590 226 c 4
 590 81 466 -12 275 -12 c 4
 208 -12 143 2 77 29 c 6
 59 37 l 5
 95 140 l 5
 113 133 l 6
 198 111 217 105 276 105 c 4
 378 105 465 145 465 211 c 4xe8
 465 254 426 318 232 318 c 6
 209 318 l 5
 209 429 l 5
 232 429 l 6
 391 429 430 479 430 514 c 4
 430 556 378 587 297 587 c 4
 262 587 203 581 130 549 c 6
 111 540 l 5
 69 642 l 5
 85 650 l 6xf0
EndSplineSet
Fore
SplineSet
109 650 m 2
 155 673 219 702 314 702 c 0
 464 702 539 625 539 527 c 0
 539 466 513 411 438 365 c 1
 516 339 575 282 575 196 c 0
 575 82 491 -12 300 -12 c 0
 233 -12 167 2 101 29 c 1
 83 37 l 1
 119 139 l 1
 137 132 l 1
 207 110 239 101 298 101 c 0
 400 101 455 136 455 197 c 0
 455 240 420 309 256 309 c 2
 233 309 l 1
 233 418 l 1
 256 418 l 2
 407 418 418 479 418 514 c 0
 418 556 383 589 302 589 c 0
 267 589 227 584 154 552 c 1
 135 543 l 1
 93 642 l 1
 109 650 l 2
EndSplineSet
Validated: 1
EndChar

StartChar: one
Encoding: 49 49 65
Width: 660
Flags: MW
LayerCount: 3
Back
SplineSet
265.7 694 m 5
 405.7 694 l 5
 405.7 113 l 5
 573.7 113 l 5
 573.7 0 l 5
 89.7002 0 l 5
 89.7002 113 l 5
 264.7 113 l 5
 264.7 573 l 5
 133.3 529.5 l 5
 86.2998 630.5 l 5
 265.7 694 l 5
EndSplineSet
Fore
SplineSet
294 694 m 1
 416 694 l 1
 416 103 l 1
 578 103 l 1
 578 0 l 1
 118 0 l 1
 118 103 l 1
 293 103 l 1
 293 574 l 1
 143 513 l 1
 105 609 l 1
 294 694 l 1
EndSplineSet
Validated: 1
EndChar

StartChar: zero
Encoding: 48 48 66
Width: 660
VWidth: 1023
Flags: MW
LayerCount: 3
Fore
SplineSet
329.5 588 m 0
 257.5 588 149.5 535 149.5 355 c 0
 149.5 159 257.5 104 330.5 104 c 0
 402.5 104 510.5 159 510.5 352 c 0
 510.5 535 402.5 588 329.5 588 c 0
329.5 703 m 0
 458.5 703 633.5 624 633.5 354 c 0
 633.5 72 459.5 -10 330.5 -10 c 0
 200.5 -10 26.5 74 26.5 355 c 0
 26.5 624 201.5 703 329.5 703 c 0
EndSplineSet
Validated: 1
EndChar

StartChar: four
Encoding: 52 52 67
Width: 660
Flags: MW
LayerCount: 3
Back
SplineSet
350 694 m 5xe8
 516 694 l 5xe8
 516 261 l 5xf0
 637 261 l 5
 637 148 l 5
 516 148 l 5
 516 0 l 5
 396 0 l 5
 396 148 l 5
 40 148 l 5
 40 225 l 5
 350 694 l 5xe8
381 261 m 5xf0
 381 542 l 5
 193.999 261 l 5
 381 261 l 5xf0
EndSplineSet
Fore
SplineSet
335 694 m 1
 501 694 l 1
 501 258 l 1
 622 258 l 1
 622 148 l 1
 501 148 l 1
 501 0 l 1
 378 0 l 1
 378 148 l 1
 45 148 l 1
 45 235 l 1
 335 694 l 1
378 258 m 1
 378 530 l 1
 378 560 l 1
 364 530 l 1
 192 258 l 1
 378 258 l 1
EndSplineSet
Validated: 1
EndChar

StartChar: period
Encoding: 46 46 68
Width: 239
VWidth: 1023
Flags: HMW
LayerCount: 3
Fore
SplineSet
50 140 m 1
 190 140 l 1
 190 0 l 1
 50 0 l 1
 50 140 l 1
EndSplineSet
EndChar

StartChar: comma
Encoding: 44 44 69
Width: 262
VWidth: 1023
Flags: MW
LayerCount: 3
Fore
SplineSet
87 103 m 1
 218 103 l 1
 125 -127 l 1
 -6 -127 l 1
 87 103 l 1
EndSplineSet
Validated: 1
EndChar

StartChar: bracketleft
Encoding: 91 91 70
Width: 364
VWidth: 1023
Flags: HMW
LayerCount: 3
Fore
SplineSet
80 730 m 1
 344 730 l 1
 344 617 l 1
 200 617 l 1
 200 -135 l 1
 344 -135 l 1
 344 -248 l 1
 80 -248 l 1
 80 730 l 1
EndSplineSet
EndChar

StartChar: bracketright
Encoding: 93 93 71
Width: 364
VWidth: 1023
Flags: HMW
LayerCount: 3
Fore
SplineSet
20 730 m 1
 284 730 l 1
 284 -248 l 1
 20 -248 l 1
 20 -135 l 1
 164 -135 l 1
 164 617 l 1
 20 617 l 1
 20 730 l 1
EndSplineSet
EndChar

StartChar: parenleft
Encoding: 40 40 72
Width: 334
VWidth: 1023
Flags: HMW
LayerCount: 3
Fore
SplineSet
227 730 m 1
 327 678 l 1
 316 660 l 2
 253 555 189 410 189 237 c 0
 189 66 253 -87 316 -191 c 1
 327 -208 l 1
 230 -270 l 1
 219 -252 l 2
 153 -143 63 42 63 238 c 0
 63 432 152 605 218 714 c 2
 227 730 l 1
EndSplineSet
EndChar

StartChar: parenright
Encoding: 41 41 73
Width: 334
VWidth: 1023
Flags: HMW
LayerCount: 3
Fore
SplineSet
272 238 m 0
 272 40 180 -147 116 -252 c 2
 105 -270 l 1
 9 -208 l 1
 19 -191 l 1
 82 -87 146 66 146 237 c 0
 146 410 81 556 19 660 c 2
 8 678 l 1
 108 730 l 1
 118 714 l 2
 184 605 272 432 272 238 c 0
EndSplineSet
EndChar

StartChar: slash
Encoding: 47 47 74
Width: 410
VWidth: 1023
Flags: HMW
LayerCount: 3
Fore
SplineSet
275 686 m 1
 401 686 l 1
 145 -44 l 1
 20 -44 l 1
 275 686 l 1
EndSplineSet
EndChar

StartChar: backslash
Encoding: 92 92 75
Width: 410
VWidth: 1023
Flags: HMW
LayerCount: 3
Fore
SplineSet
10 686 m 1
 135 686 l 1
 391 -64 l 1
 265 -64 l 1
 10 686 l 1
EndSplineSet
EndChar

StartChar: plus
Encoding: 43 43 76
Width: 659
VWidth: 1023
Flags: MW
LayerCount: 3
Fore
SplineSet
275 622 m 1
 387 622 l 1
 387 375 l 1
 632 375 l 1
 632 268 l 1
 387 268 l 1
 387 21 l 1
 275 21 l 1
 275 268 l 1
 30 268 l 1
 30 375 l 1
 275 375 l 1
 275 622 l 1
EndSplineSet
Validated: 1
EndChar

StartChar: asterisk
Encoding: 42 42 77
Width: 549
VWidth: 1023
Flags: MW
LayerCount: 3
Fore
SplineSet
212 714 m 1
 337 714 l 1
 330 577 l 1
 444 652 l 1
 507 543 l 1
 385 482 l 1
 507 420 l 1
 444 311 l 1
 330 386 l 1
 337 250 l 1
 212 250 l 1
 220 386 l 1
 106 311 l 1
 43 420 l 1
 166 482 l 1
 43 543 l 1
 106 652 l 1
 220 577 l 1
 212 714 l 1
EndSplineSet
Validated: 1
EndChar

StartChar: numbersign
Encoding: 35 35 78
Width: 731
VWidth: 1023
Flags: HMW
LayerCount: 3
Fore
SplineSet
180 686 m 1
 298 686 l 1
 298 522 l 1
 433 522 l 1
 433 686 l 1
 551 686 l 1
 551 522 l 1
 706 522 l 1
 706 409 l 1
 551 409 l 1
 551 277 l 1
 706 277 l 1
 706 164 l 1
 551 164 l 1
 551 0 l 1
 433 0 l 1
 433 164 l 1
 298 164 l 1
 298 0 l 1
 180 0 l 1
 180 164 l 1
 26 164 l 1
 26 277 l 1
 180 277 l 1
 180 409 l 1
 25 409 l 1
 25 522 l 1
 180 522 l 1
 180 686 l 1
298 409 m 1
 298 277 l 1
 433 277 l 1
 433 409 l 1
 298 409 l 1
EndSplineSet
EndChar

StartChar: dollar
Encoding: 36 36 79
Width: 607
VWidth: 1023
Flags: HMW
LayerCount: 3
Fore
SplineSet
224 473 m 0
 224 412 539 422 539 265 c 0
 539 209 507 131 375 109 c 1
 375 -32 l 1
 254 -32 l 1
 254 104 l 1
 208 106 156 117 98 139 c 2
 80 146 l 1
 116 239 l 1
 136 232 l 1
 197 208 231 201 279 201 c 0
 378 201 410 220 410 256 c 1
 405 319 97 297 97 463 c 0
 97 513 132 584 254 608 c 1
 254 730 l 1
 375 730 l 1
 375 617 l 1
 430 616 455 610 498 598 c 2
 518 592 l 1
 485 499 l 1
 467 503 l 1
 435 511 400 520 343 520 c 0
 258 520 224 493 224 473 c 0
EndSplineSet
EndChar

StartChar: semicolon
Encoding: 59 59 80
Width: 333
VWidth: 1023
Flags: HMW
LayerCount: 3
Fore
SplineSet
114 103 m 5
 245 103 l 1
 152 -127 l 1
 21 -127 l 1
 114 103 l 5
99 481 m 1
 239 481 l 1
 239 341 l 1
 99 341 l 1
 99 481 l 1
EndSplineSet
EndChar

StartChar: colon
Encoding: 58 58 81
Width: 316
VWidth: 1023
Flags: HMW
LayerCount: 3
Fore
SplineSet
88 140 m 1
 228 140 l 1
 228 0 l 1
 88 0 l 1
 88 140 l 1
88 481 m 1
 228 481 l 5
 228 341 l 1
 88 341 l 1
 88 481 l 1
EndSplineSet
EndChar

StartChar: equal
Encoding: 61 61 82
Width: 634
VWidth: 1023
Flags: MW
LayerCount: 3
Fore
SplineSet
63 265 m 1
 572 265 l 1
 572 151 l 1
 63 151 l 1
 63 265 l 1
63 486 m 1
 572 486 l 1
 572 373 l 1
 63 373 l 1
 63 486 l 1
EndSplineSet
Validated: 1
EndChar

StartChar: quotedbl
Encoding: 34 34 83
Width: 368
VWidth: 1023
Flags: HMW
LayerCount: 3
Fore
SplineSet
214 730 m 1
 344 730 l 1
 344 481 l 1
 214 481 l 1
 214 730 l 1
24 730 m 1
 154 730 l 1
 154 481 l 1
 24 481 l 1
 24 730 l 1
EndSplineSet
Validated: 1
EndChar

StartChar: quotesingle
Encoding: 39 39 84
Width: 237
VWidth: 1023
Flags: HMW
LayerCount: 3
Fore
SplineSet
54 730 m 1
 184 730 l 1
 184 481 l 1
 54 481 l 1
 54 730 l 1
EndSplineSet
EndChar

StartChar: underscore
Encoding: 95 95 85
Width: 606
VWidth: 1023
Flags: HMW
LayerCount: 3
Fore
SplineSet
73 113 m 1
 533 113 l 1
 533 0 l 1
 73 0 l 1
 73 113 l 1
EndSplineSet
EndChar

StartChar: percent
Encoding: 37 37 86
Width: 737
VWidth: 1023
Flags: HMW
LayerCount: 3
Fore
SplineSet
155 626 m 4
 113 626 103 591 103 554 c 4
 103 514 112 472 155 472 c 4
 197 472 208 512 208 552 c 4
 208 619 177 626 155 626 c 4
155 706 m 4
 215 706 300 677 300 553 c 4
 300 454 237 394 155 394 c 4
 87 394 20 433 20 554 c 4
 20 656 85 706 155 706 c 4
582 222 m 0
 540 222 529 186 529 150 c 0
 529 109 539 69 582 69 c 0
 624 69 635 107 635 148 c 0
 635 215 604 222 582 222 c 0
582 302 m 0
 642 302 717 271 717 149 c 0
 717 50 660 -10 582 -10 c 0
 511 -10 438 29 438 150 c 0
 438 252 509 302 582 302 c 0
575 686 m 1
 695 686 l 1
 156 0 l 1
 36 0 l 1
 575 686 l 1
EndSplineSet
EndChar

StartChar: braceright
Encoding: 125 125 87
Width: 393
VWidth: 1023
Flags: HMW
LayerCount: 3
Fore
SplineSet
251 500 m 0
 253 473 255 446 258 421 c 0
 269 337 313 300 360 292 c 1
 376 290 l 1
 376 188 l 1
 360 186 l 2
 343 183 326 176 312 166 c 0
 250 121 258 40 251 -28 c 0
 232 -215 100 -247 54 -250 c 1
 37 -252 l 1
 14 -150 l 1
 36 -147 l 2
 69 -143 96 -122 112 -98 c 0
 166 -15 108 145 219 239 c 1
 109 333 167 492 112 576 c 0
 96 600 69 622 36 626 c 2
 14 629 l 1
 37 730 l 1
 54 729 l 2
 108 725 233 689 251 500 c 0
EndSplineSet
EndChar

StartChar: asciitilde
Encoding: 126 126 88
Width: 583
VWidth: 1023
Flags: HMW
LayerCount: 3
Fore
SplineSet
384 311 m 4
 406 311 412 360 420 402 c 6
 423 425 l 5
 535 407 l 5
 531 382 l 5
 518 316 506 192 388 192 c 5
 279 196 231 299 199 299 c 4
 177 299 171 254 163 214 c 6
 160 189 l 5
 48 206 l 5
 52 231 l 6
 65 297 77 419 195 419 c 5
 304 415 353 311 384 311 c 4
EndSplineSet
EndChar

StartChar: grave
Encoding: 96 96 89
Width: 558
VWidth: 0
Flags: HMW
LayerCount: 3
Fore
SplineSet
367 466 m 1
 120 650 l 1
 190 730 l 1
 438 550 l 1
 367 466 l 1
EndSplineSet
EndChar

StartChar: asciicircum
Encoding: 94 94 90
Width: 465
VWidth: 1023
Flags: HMW
LayerCount: 3
Fore
SplineSet
239 730 m 1
 392 560 l 1
 318 489 l 1
 233 584 l 1
 146 490 l 1
 73 555 l 1
 239 730 l 1
EndSplineSet
EndChar

StartChar: ampersand
Encoding: 38 38 91
Width: 750
VWidth: 1023
Flags: HMW
LayerCount: 3
Fore
SplineSet
502 566 m 0
 502 483 429 422 368 374 c 1
 500 231 l 1
 649 394 l 1
 718 324 l 1
 569 157 l 1
 718 -0 l 1
 573 -0 l 1
 491 85 l 1
 442 39 369 -10 251 -10 c 0
 134 -10 68 53 68 149 c 0
 68 266 160 339 208 376 c 1
 166 418 121 471 121 540 c 0
 121 639 216 706 328 706 c 0
 432 706 502 646 502 566 c 0
323 602 m 0
 276 602 239 571 239 537 c 0
 239 507 264 481 298 446 c 1
 355 489 388 516 388 550 c 0
 388 574 365 602 323 602 c 0
280 303 m 1
 228 262 182 225 182 170 c 0
 182 124 222 91 278 91 c 0
 336 91 382 121 419 156 c 1
 280 303 l 1
EndSplineSet
EndChar

StartChar: less
Encoding: 60 60 92
Width: 506
VWidth: 1023
Flags: MW
LayerCount: 3
Fore
SplineSet
487 583 m 1
 487 463 l 1
 171 304 l 1
 487 152 l 1
 487 27 l 1
 21 248 l 1
 21 354 l 1
 487 583 l 1
EndSplineSet
Validated: 1
EndChar

StartChar: greater
Encoding: 62 62 93
Width: 506
VWidth: 1023
Flags: MW
LayerCount: 3
Fore
SplineSet
21 583 m 1
 487 354 l 1
 487 248 l 1
 21 27 l 1
 21 152 l 1
 337 304 l 1
 21 463 l 1
 21 583 l 1
EndSplineSet
Validated: 1
EndChar

StartChar: braceleft
Encoding: 123 123 94
Width: 393
VWidth: 1023
Flags: HMW
LayerCount: 3
Back
SplineSet
43.9453 302.246 m 5
 99.6973 311.622 150.392 354.225 162.771 447.896 c 4
 166.273 474.408 166.975 501.206 169.434 527.832 c 4
 186.06 707.827 304.289 734.995 347.656 738.281 c 5
 362.305 675.293 l 5
 325.494 670.21 291.863 647.773 271.484 616.699 c 4
 208.237 520.254 278.531 353.778 147.328 268.599 c 5
 278.488 183.775 209.525 16.2109 271.484 -79.1016 c 4
 291.751 -110.277 325.446 -132.784 362.305 -137.695 c 5
 347.656 -200.684 l 5
 309.929 -197.559 187.201 -172.471 169.434 3.41797 c 4
 162.809 68.998 170.144 160.436 99.7871 211.615 c 4
 83.3301 223.586 64.04 231.648 43.9453 234.863 c 5
 43.9453 302.246 l 5
  Spiro
    43.9453 302.246 v
    96.731 323.325 o
    138.886 370.648 o
    162.771 447.897 o
    165.506 474.46 o
    167.394 501.191 o
    169.434 527.832 o
    213.327 661.567 o
    285.945 722.29 o
    347.656 738.281 v
    362.305 675.293 v
    326.96 664.766 o
    295.879 644.546 o
    271.484 616.699 o
    240.354 502.642 o
    223.74 375.15 o
    147.328 268.599 v
    224.007 162.059 o
    240.917 34.4282 o
    271.484 -79.1016 o
    295.819 -107.033 o
    326.915 -127.265 o
    362.305 -137.695 v
    347.656 -200.684 v
    288.704 -185.498 o
    215.085 -126.886 o
    169.434 3.41797 o
    164.075 75.0933 o
    147.612 149.536 o
    99.7871 211.615 o
    82.479 222.239 o
    63.6772 230.074 o
    43.9453 234.863 v
    0 0 z
  EndSpiro
EndSplineSet
Fore
SplineSet
138 421 m 0
 141 446 142 473 144 500 c 0
 162 690 288 725 341 729 c 2
 358 730 l 1
 382 629 l 1
 360 626 l 2
 327 622 299 600 283 576 c 0
 228 492 286 333 176 239 c 1
 287 145 229 -15 283 -98 c 0
 299 -122 327 -143 360 -147 c 2
 382 -150 l 1
 358 -252 l 1
 341 -250 l 1
 295 -247 163 -215 144 -28 c 0
 137 40 145 121 83 166 c 0
 69 176 53 183 36 186 c 2
 19 188 l 1
 19 290 l 1
 36 292 l 1
 83 300 127 337 138 421 c 0
EndSplineSet
EndChar

StartChar: sterling
Encoding: 163 163 95
Width: 634
VWidth: 1023
Flags: HMW
LayerCount: 3
Fore
SplineSet
173 106 m 1
 173 304 l 5
 87 304 l 5
 87 410 l 5
 173 410 l 5
 173 439 l 6
 173 643 310 706 431 706 c 0
 473 706 514 698 551 686 c 2
 572 680 l 1
 534 584 l 1
 517 588 l 2
 493 594 466 599 441 599 c 0
 317 599 293 518 293 426 c 6
 293 410 l 5
 552 410 l 5
 552 304 l 5
 293 304 l 5
 293 106 l 1
 581 106 l 1
 581 0 l 1
 54 0 l 1
 54 106 l 1
 173 106 l 1
EndSplineSet
EndChar

StartChar: exclamdown
Encoding: 161 161 96
Width: 317
VWidth: 1023
Flags: MW
LayerCount: 3
Fore
SplineSet
97 258 m 1
 220 258 l 1
 220 -261 l 5
 97 -261 l 5
 97 258 l 1
90 482 m 1
 228 482 l 1
 228 344 l 1
 90 344 l 1
 90 482 l 1
EndSplineSet
Validated: 1
EndChar

StartChar: cent
Encoding: 162 162 97
Width: 498
VWidth: 1023
Flags: HMW
LayerCount: 3
Fore
SplineSet
245 621 m 1
 245 730 l 1
 344 730 l 1
 344 626 l 1
 386 622 425 608 450 597 c 2
 467 590 l 1
 436 495 l 1
 417 501 l 2
 385 512 351 519 317 519 c 0
 218 519 171 463 171 366 c 0
 171 225 258 197 327 197 c 0
 355 197 384 202 411 212 c 1
 430 218 l 1
 462 126 l 1
 444 119 l 2
 413 107 379 97 344 94 c 1
 344 -27 l 1
 245 -27 l 1
 245 96 l 1
 139 115 53 192 53 349 c 0
 53 492 121 595 245 621 c 1
EndSplineSet
EndChar

StartChar: currency
Encoding: 164 164 98
Width: 634
Flags: MW
LayerCount: 3
Fore
SplineSet
398 532 m 1
 483 617 l 1
 572 527 l 1
 487 443 l 1
 501 415 506 386 506 362 c 0
 506 334 500 306 488 281 c 1
 572 197 l 1
 482 108 l 1
 398 192 l 1
 373 180 345 173 317 173 c 0
 293 173 264 177 236 191 c 1
 152 107 l 1
 62 196 l 1
 147 281 l 1
 133 309 128 338 128 362 c 0
 128 390 135 418 147 443 c 1
 62 528 l 1
 151 618 l 1
 237 532 l 1
 265 546 293 551 317 551 c 0
 345 551 373 544 398 532 c 1
317 442 m 0
 275 442 240 407 240 362 c 0
 240 318 274 282 317 282 c 0
 359 282 395 318 395 362 c 0
 395 407 359 442 317 442 c 0
EndSplineSet
Validated: 1
EndChar

StartChar: yen
Encoding: 165 165 99
Width: 634
VWidth: 1023
Flags: HMW
LayerCount: 3
Fore
SplineSet
35 686 m 1
 172 686 l 1
 318 441 l 1
 468 686 l 1
 600 686 l 1
 392 361 l 1
 514 361 l 1
 514 260 l 1
 373 260 l 1
 373 203 l 1
 514 203 l 1
 514 102 l 1
 373 102 l 1
 373 0 l 1
 255 0 l 1
 255 102 l 1
 121 102 l 1
 121 203 l 1
 255 203 l 1
 255 260 l 1
 121 260 l 1
 121 361 l 1
 237 361 l 1
 35 686 l 1
EndSplineSet
EndChar

StartChar: brokenbar
Encoding: 166 166 100
Width: 431
VWidth: 1023
Flags: HMWO
LayerCount: 3
Fore
SplineSet
156 173 m 1
 276 173 l 1
 276 -242 l 1
 156 -242 l 1
 156 173 l 1
156 730 m 1
 276 730 l 1
 276 317 l 1
 156 317 l 1
 156 730 l 1
EndSplineSet
EndChar

StartChar: section
Encoding: 167 167 101
Width: 554
VWidth: 1023
Flags: MW
LayerCount: 3
Fore
SplineSet
456 698 m 2
 476 693 l 1
 441 590 l 1
 422 596 l 2
 388 607 345 614 306 614 c 0
 245 614 203 593 203 561 c 0
 203 485 496 498 496 333 c 0
 496 303 488 266 463 233 c 1
 494 199 496 164 496 149 c 0
 496 77 448 -30 256 -30 c 2
 250 -30 l 2
 213 -30 152 -29 71 3 c 1
 53 11 l 1
 89 108 l 1
 107 102 l 1
 162 82 212 73 249 73 c 0
 335 73 364 100 364 140 c 0
 364 219 75 187 75 367 c 0
 75 394 85 429 110 460 c 1
 86 485 75 516 75 550 c 0
 75 618 132 720 318 720 c 0
 386 720 420 708 456 698 c 2
212 402 m 1
 203 391 203 380 203 376 c 0
 203 337 283 320 356 294 c 1
 360 300 364 310 364 323 c 0
 364 365 286 377 212 402 c 1
EndSplineSet
Validated: 1
EndChar

StartChar: copyright
Encoding: 169 169 102
Width: 859
VWidth: 1023
Flags: MW
LayerCount: 3
Fore
SplineSet
549 512 m 2
 565 505 l 1
 538 426 l 1
 519 433 l 1
 496 441 473 445 449 445 c 0
 370 445 350 395 350 339 c 0
 350 279 371 223 455 223 c 0
 475 223 496 227 516 234 c 2
 534 240 l 1
 562 163 l 1
 544 156 l 2
 510 143 474 136 437 136 c 0
 354 136 253 180 253 329 c 0
 253 484 354 535 442 535 c 0
 479 535 516 527 549 512 c 2
430 589 m 0
 283 589 168 471 168 333 c 0
 168 195 283 78 430 78 c 0
 577 78 691 195 691 333 c 0
 691 471 577 589 430 589 c 0
796 333 m 0
 796 139 636 -27 430 -27 c 0
 224 -27 63 138 63 333 c 0
 63 524 221 694 430 694 c 0
 636 694 796 527 796 333 c 0
EndSplineSet
Validated: 1
EndChar

StartChar: guillemotleft
Encoding: 171 171 103
Width: 526
VWidth: 1023
Flags: MW
LayerCount: 3
Fore
SplineSet
381 502 m 5
 521 502 l 5
 373 304 l 5
 521 106 l 5
 381 106 l 5
 242 304 l 5
 381 502 l 5
151 502 m 5
 292 502 l 5
 143 304 l 5
 292 106 l 5
 151 106 l 5
 12 304 l 5
 151 502 l 5
EndSplineSet
Validated: 1
EndChar

StartChar: guillemotright
Encoding: 187 187 104
Width: 526
VWidth: 1023
Flags: MW
LayerCount: 3
Fore
SplineSet
5 502 m 1
 146 502 l 1
 284 304 l 1
 146 106 l 1
 5 106 l 1
 154 304 l 1
 5 502 l 1
235 502 m 1
 375 502 l 1
 514 304 l 1
 375 106 l 1
 235 106 l 1
 384 304 l 1
 235 502 l 1
EndSplineSet
Validated: 1
EndChar

StartChar: registered
Encoding: 174 174 105
Width: 601
VWidth: 1023
Flags: MW
LayerCount: 3
Fore
SplineSet
301 593 m 2
 266 593 l 1
 266 530 l 1
 291 530 283 530 298 530 c 0
 335 530 348 539 348 560 c 0
 348 586 333 593 301 593 c 2
317 657 m 2
 396 657 416 608 416 565 c 0
 416 537 407 500 369 481 c 1
 426 369 l 1
 467 404 491 454 491 509 c 0
 491 609 408 696 301 696 c 0
 195 696 110 610 110 509 c 0
 110 409 194 323 301 323 c 0
 348 323 390 340 423 367 c 1
 350 367 l 1
 301 468 l 1
 266 468 l 1
 266 367 l 1
 196 367 l 1
 196 657 l 1
 317 657 l 2
570 509 m 0
 570 362 448 244 301 244 c 0
 150 244 32 365 32 509 c 0
 32 656 154 774 301 774 c 0
 448 774 570 656 570 509 c 0
EndSplineSet
Validated: 1
EndChar

StartChar: paragraph
Encoding: 182 182 106
Width: 647
VWidth: 1023
Flags: MW
LayerCount: 3
Fore
SplineSet
293 758 m 6
 575 758 l 5
 575 -20 l 5
 455 -20 l 5
 455 645 l 5
 377 645 l 5
 377 -20 l 5
 257 -20 l 5
 257 315 l 5
 166 322 43 376 43 553 c 4
 43 753 216 758 293 758 c 6
EndSplineSet
Validated: 1
EndChar

StartChar: periodcentered
Encoding: 183 183 107
Width: 288
VWidth: 1023
Flags: MW
LayerCount: 3
Fore
SplineSet
73 429 m 1
 215 429 l 1
 215 287 l 1
 73 287 l 1
 73 429 l 1
EndSplineSet
Validated: 1
EndChar

StartChar: questiondown
Encoding: 191 191 108
Width: 511
VWidth: 1023
Flags: MW
LayerCount: 3
Fore
SplineSet
345 270 m 1
 222 270 l 1
 222 250 l 2
 222 148 37 54 37 -68 c 0
 37 -189 163 -275 258 -275 c 0
 332 -275 385 -258 444 -230 c 1
 461 -222 l 1
 421 -126 l 1
 403 -134 l 2
 335 -162 297 -166 271 -166 c 0
 194 -166 157 -121 157 -76 c 0
 157 38 345 88 345 250 c 6
 345 270 l 1
353 482 m 1
 215 482 l 1
 215 344 l 1
 353 344 l 1
 353 482 l 1
EndSplineSet
Validated: 9
EndChar

StartChar: uni00B5
Encoding: 181 181 109
Width: 579
VWidth: 1023
Flags: MW
LayerCount: 3
Fore
SplineSet
73 502 m 1
 193 502 l 1
 193 210 l 2
 193 122 224 75 292 75 c 0
 313 75 338 79 392 105 c 1
 392 502 l 1
 512 502 l 1
 512 -20 l 1
 422 -20 l 1
 412 4 l 1
 374 -17 325 -33 278 -33 c 0
 251 -33 221 -27 193 -12 c 1
 193 -220 l 1
 73 -220 l 1
 73 502 l 1
EndSplineSet
Validated: 1
EndChar

StartChar: uni00AD
Encoding: 173 173 110
Width: 524
VWidth: 1023
Flags: MW
LayerCount: 3
Fore
SplineSet
87 375 m 1
 437 375 l 1
 437 268 l 1
 87 268 l 1
 87 375 l 1
EndSplineSet
Validated: 1
EndChar

StartChar: plusminus
Encoding: 177 177 111
Width: 683
VWidth: 1023
Flags: MW
LayerCount: 3
Fore
SplineSet
87 160 m 1
 596 160 l 1
 596 53 l 1
 87 53 l 1
 87 160 l 1
286 714 m 1
 397 714 l 1
 397 513 l 1
 596 513 l 1
 596 406 l 1
 397 406 l 1
 397 205 l 1
 286 205 l 1
 286 406 l 1
 87 406 l 1
 87 513 l 1
 286 513 l 1
 286 714 l 1
EndSplineSet
Validated: 1
EndChar

StartChar: ae
Encoding: 230 230 112
Width: 897
VWidth: 0
Flags: MW
AnchorPoint: "cedilla" 456 0 basechar 0
AnchorPoint: "below" 456 0 basechar 0
AnchorPoint: "above" 456 482 basechar 0
LayerCount: 3
Fore
SplineSet
180 154 m 0
 180 124 223 94 274 94 c 0
 311 94 344 108 368 129 c 1
 368 213 l 1
 196 211 180 182 180 154 c 0
621 382 m 0
 554 382 511 341 503 293 c 1
 716 293 l 1
 712 335 691 382 621 382 c 0
104 462 m 2
 168 484 236 491 282 491 c 0
 372 491 424 457 452 420 c 1
 499 462 565 491 636 491 c 0
 809 491 833 338 833 213 c 2
 833 193 l 1
 500 193 l 1
 511 137 578 95 668 95 c 0
 706 95 746 105 767 111 c 2
 787 118 l 1
 809 25 l 1
 792 19 l 1
 735 -2 676 -10 635 -10 c 0
 565 -10 493 9 441 54 c 1
 395 10 331 -10 257 -10 c 0
 153 -10 60 51 60 138 c 0
 60 214 127 274 260 286 c 0
 293 289 338 291 368 291 c 1
 368 295 l 2
 368 343 346 393 260 393 c 0
 235 393 201 390 136 374 c 1
 118 369 l 1
 85 456 l 1
 104 462 l 2
EndSplineSet
Validated: 1
EndChar

StartChar: germandbls
Encoding: 223 223 113
Width: 694
VWidth: 1023
Flags: MW
AnchorPoint: "above" 262 671 basechar 0
LayerCount: 3
Fore
SplineSet
324 698 m 0
 469 698 539 598 539 518 c 0
 539 405 396 382 396 341 c 0
 396 280 636 309 636 136 c 0
 636 77 595 -13 444 -13 c 0
 399 -13 333 -6 266 11 c 1
 244 17 l 1
 273 110 l 1
 294 106 l 1
 342 98 388 92 425 92 c 0
 492 92 511 110 511 141 c 0
 511 230 258 186 258 341 c 0
 258 447 406 461 406 513 c 0
 406 557 356 586 314 586 c 0
 293 586 218 577 218 479 c 2
 218 0 l 1
 98 0 l 1
 98 479 l 2
 98 635 210 698 324 698 c 0
EndSplineSet
Validated: 1
EndChar

StartChar: multiply
Encoding: 215 215 114
Width: 714
VWidth: 1023
Flags: MW
LayerCount: 3
Fore
SplineSet
169 81 m 1
 89 160 l 1
 270 319 l 1
 93 474 l 1
 172 554 l 1
 369 392 l 1
 562 551 l 1
 641 471 l 1
 461 312 l 1
 638 157 l 1
 558 77 l 1
 361 239 l 1
 169 81 l 1
EndSplineSet
Validated: 1
EndChar

StartChar: divide
Encoding: 247 247 115
Width: 763
VWidth: 1023
Flags: MW
LayerCount: 3
Fore
SplineSet
307 602 m 1
 457 602 l 1
 457 467 l 1
 307 467 l 1
 307 602 l 1
307 176 m 1
 457 176 l 1
 457 41 l 1
 307 41 l 1
 307 176 l 1
61 375 m 1
 703 375 l 1
 703 267 l 1
 61 267 l 1
 61 375 l 1
EndSplineSet
Validated: 1
EndChar

StartChar: oslash
Encoding: 248 248 116
Width: 671
VWidth: 1023
Flags: MW
AnchorPoint: "cedilla" 339 0 basechar 0
AnchorPoint: "above" 339 482 basechar 0
AnchorPoint: "below" 339 0 basechar 0
LayerCount: 3
Back
SplineSet
576.172 494.141 m 1
 633.301 442.871 l 1
 577.637 389.648 l 1
 602.539 352.051 616.211 305.176 616.211 250.488 c 0
 616.211 89.8438 506.348 -9.76562 338.379 -9.76562 c 0
 271.973 -9.76562 211.914 7.32422 165.527 40.0391 c 1
 110.84 -15.625 l 1
 53.7109 35.6445 l 1
 112.305 91.3086 l 1
 85.9375 130.371 71.7773 179.199 71.7773 235.84 c 0
 71.7773 392.578 177.734 491.699 347.168 491.699 c 0
 414.551 491.699 477.051 474.609 524.414 440.918 c 1
 576.172 494.141 l 1
339.355 383.301 m 0
 268.066 383.301 192.383 333.008 192.383 229.492 c 0
 192.383 201.66 197.266 175.781 207.031 152.832 c 1
 429.688 354.492 l 1
 402.344 374.023 370.605 383.301 339.355 383.301 c 0
496.094 254.883 m 0
 496.094 283.203 490.723 307.617 482.422 328.125 c 1
 259.277 126.465 l 1
 283.691 108.887 313.965 98.6328 348.145 98.6328 c 0
 429.688 98.6328 496.094 158.691 496.094 254.883 c 0
EndSplineSet
Fore
SplineSet
578 498 m 1
 630 440 l 1
 570 386 l 1
 594 349 608 304 608 250 c 0
 608 89 499 -10 330 -10 c 0
 269 -10 215 3 173 28 c 1
 112 -27 l 1
 60 31 l 1
 114 80 l 1
 82 120 63 173 63 236 c 0
 63 393 169 492 339 492 c 0
 409 492 470 475 516 442 c 1
 578 498 l 1
331 383 m 0
 259 383 182 340 182 249 c 0
 182 218 190 188 207 164 c 1
 423 358 l 1
 396 375 362 383 331 383 c 0
476 300 m 1
 268 113 l 1
 289 104 313 99 340 99 c 0
 423 99 490 152 490 236 c 0
 490 261 485 281 476 300 c 1
EndSplineSet
Validated: 1
EndChar

StartChar: OE
Encoding: 338 338 118
Width: 1055
VWidth: 1023
Flags: MW
AnchorPoint: "cedilla" 602 0 basechar 0
AnchorPoint: "above" 602 670 basechar 0
AnchorPoint: "below" 602 0 basechar 0
LayerCount: 3
Fore
SplineSet
532 113 m 1
 532 581 l 1
 524 581 l 2
 491 581 459 580 429 576 c 0
 301 558 228 473 228 343 c 0
 228 215 306 156 362 133 c 0
 406 114 444 113 488 113 c 2
 532 113 l 1
196 597 m 1
 296 691 442 694 560 694 c 2
 978 694 l 1
 978 581 l 1
 664 581 l 1
 664 414 l 1
 951 414 l 1
 951 301 l 1
 664 301 l 1
 664 113 l 1
 978 113 l 1
 978 0 l 1
 513 0 l 2
 443 0 369 2 300 28 c 0
 183 73 105 176 105 343 c 0
 105 495 167 568 196 597 c 1
EndSplineSet
Validated: 1
EndChar

StartChar: oe
Encoding: 339 339 119
Width: 960
VWidth: 0
Flags: MW
AnchorPoint: "cedilla" 496 0 basechar 0
AnchorPoint: "below" 496 0 basechar 0
AnchorPoint: "above" 496 482 basechar 0
LayerCount: 3
Fore
SplineSet
443 232 m 0
 443 340 372 381 311 381 c 0
 234 381 182 324 182 245 c 0
 182 164 236 98 319 98 c 0
 384 98 443 141 443 232 c 0
682 397 m 0
 612 397 575 341 568 279 c 1
 780 279 l 1
 776 369 737 397 682 397 c 0
700 487 m 0
 886 487 897 337 897 232 c 2
 897 179 l 1
 567 179 l 1
 578 135 629 84 731 84 c 0
 752 84 784 87 830 99 c 2
 851 104 l 1
 873 22 l 1
 856 17 l 1
 815 2 761 -11 697 -11 c 0
 594 -11 533 25 498 65 c 1
 452 17 387 -10 310 -10 c 0
 160 -10 63 86 63 237 c 0
 63 391 163 489 319 489 c 0
 403 489 470 459 512 408 c 1
 575 478 660 487 700 487 c 0
EndSplineSet
Validated: 1
EndChar

StartChar: AE
Encoding: 198 198 120
Width: 1015
VWidth: 1023
Flags: MW
AnchorPoint: "cedilla" 564 0 basechar 0
AnchorPoint: "below" 564 0 basechar 0
AnchorPoint: "above" 564 670 basechar 0
LayerCount: 3
Fore
SplineSet
442 581 m 1
 316 294 l 1
 501 294 l 1
 501 581 l 1
 442 581 l 1
361 694 m 1
 946 694 l 1
 946 581 l 1
 632 581 l 1
 632 414 l 1
 919 414 l 1
 919 301 l 1
 632 301 l 1
 632 113 l 1
 946 113 l 1
 946 0 l 1
 501 0 l 1
 501 182 l 1
 269 182 l 1
 186 0 l 1
 63 0 l 1
 361 694 l 1
EndSplineSet
Validated: 1
EndChar

StartChar: onequarter
Encoding: 188 188 121
Width: 878
VWidth: 0
Flags: MW
LayerCount: 3
Fore
SplineSet
569 706 m 1
 683 706 l 1
 268 -12 l 1
 154 -12 l 1
 569 706 l 1
165 706 m 1
 233 706 l 1
 233 290 l 1
 144 290 l 1
 144 614 l 1
 79 596 l 1
 59 677 l 1
 165 706 l 1
673 420 m 1
 768 420 l 1
 768 161 l 1
 820 161 l 1
 820 83 l 1
 768 83 l 1
 768 -12 l 1
 679 -12 l 1
 679 83 l 1
 488 83 l 1
 488 143 l 1
 673 420 l 1
679 293 m 1
 595 161 l 1
 679 161 l 1
 679 293 l 1
EndSplineSet
Validated: 1
EndChar

StartChar: onehalf
Encoding: 189 189 122
Width: 926
VWidth: 0
Flags: MW
LayerCount: 3
Back
SplineSet
166.504 693.848 m 5
 221.191 693.848 l 5
 221.191 296.875 l 5
 156.25 296.875 l 5
 156.25 630.371 l 5xf6
 87.8906 611.328 l 5
 73.2422 668.457 l 5
 166.504 693.848 l 5
102.231 676.24 m 1
 131.785 690.703 173.225 707.788 220.553 707.788 c 0
 290.296 707.788 343.551 666.689 343.551 609.497 c 0xf960
 343.551 573.247 325.658 541.89 297.709 523.999 c 1
 343.764 504.99 360.201 468.377 360.201 430.64 c 0
 360.201 348.383 293.219 294.238 204.465 293.677 c 1
 203.365 293.677 l 2
 159.999 293.677 125.272 305.244 94.9502 317.561 c 1
 112.834 368.977 l 1
 161.192 355.638 182.089 352.222 204.977 352.222 c 0
 254.713 352.222 297.896 379.722 297.896 420.972 c 0xf8e0
 297.896 448.256 276.305 489.185 189.938 489.185 c 2
 176.51 489.185 l 1
 176.51 544.302 l 1
 266.223 546.646 281.783 578.906 281.783 601.978 c 0
 281.783 626.479 257.955 650.317 214.645 650.317 c 0xf960
 176.07 650.317 140.941 633.618 123.422 625.537 c 1
 102.231 676.24 l 1
EndSplineSet
Fore
SplineSet
569 706 m 1
 683 706 l 1
 268 -12 l 1
 154 -12 l 1
 569 706 l 1
165 706 m 1
 233 706 l 1
 233 285 l 1
 144 285 l 1
 144 614 l 1
 79 596 l 1
 59 677 l 1
 165 706 l 1
577 37 m 5
 627 199 766 251 766 297 c 4
 766 318 741 343 700 343 c 4
 681 343 659 338 605 317 c 6
 594 313 l 5
 564 383 l 5
 575 389 l 5
 607 404 652 423 709 423 c 4
 789 423 854 376 854 305 c 4
 854 204 735 171 683 69 c 5
 860 69 l 5
 860 -12 l 5
 577 -12 l 5
 577 37 l 5
EndSplineSet
Validated: 1
EndChar

StartChar: threequarters
Encoding: 190 190 123
Width: 952
VWidth: 0
Flags: MW
LayerCount: 3
Fore
SplineSet
647 706 m 1
 761 706 l 1
 346 -12 l 1
 232 -12 l 1
 647 706 l 1
746 420 m 1
 841 420 l 1
 841 161 l 1
 894 161 l 1
 894 83 l 1
 841 83 l 1
 841 -12 l 1
 752 -12 l 1
 752 83 l 1
 562 83 l 1
 562 143 l 1
 746 420 l 1
752 293 m 1
 668 161 l 1
 752 161 l 1
 752 293 l 1
221 720 m 0
 296 720 355 674 355 609 c 0
 355 576 341 547 320 526 c 1
 357 504 373 468 373 431 c 0
 373 341 299 281 203 281 c 0
 158 281 122 293 90 306 c 2
 80 311 l 1
 105 384 l 1
 116 381 l 1
 164 368 184 364 205 364 c 0
 247 364 286 387 286 421 c 0
 286 458 254 477 176 477 c 2
 164 477 l 1
 164 557 l 1
 176 557 l 2
 219 557 270 566 270 602 c 0
 270 618 254 638 215 638 c 0
 180 638 149 623 129 614 c 2
 117 609 l 1
 86 682 l 1
 97 687 l 2
 128 702 171 720 221 720 c 0
EndSplineSet
Validated: 1
EndChar

StartChar: degree
Encoding: 176 176 124
Width: 287
Flags: MW
LayerCount: 3
Fore
SplineSet
144 648 m 0
 119 648 101 627 101 603 c 0
 101 579 118 558 144 558 c 0
 167 558 186 579 186 603 c 0
 186 627 168 648 144 648 c 0
271 603 m 0
 271 531 214 473 144 473 c 0
 75 473 17 531 17 603 c 0
 17 674 74 732 144 732 c 0
 213 732 271 675 271 603 c 0
EndSplineSet
Validated: 1
EndChar

StartChar: ccedilla
Encoding: 231 231 125
Width: 499
VWidth: 1023
Flags: HMW
LayerCount: 3
Back
SplineSet
331.543 -163.574 m 0
 331.543 -127.93 291.016 -122.07 219.727 -100.098 c 1
 244.629 -6.83594 l 1
 155.762 6.83594 63.4766 65.4297 63.4766 229.98 c 0
 63.4766 427.246 185.547 491.211 297.363 491.211 c 0
 343.75 491.211 390.137 480.957 432.617 462.402 c 1
 413.086 403.809 l 1
 378.906 415.527 343.262 422.363 307.129 422.363 c 0
 228.027 422.363 141.113 387.207 141.113 247.07 c 0
 141.113 94.2383 231.445 56.1523 315.918 56.1523 c 0
 347.168 56.1523 378.418 62.0117 407.715 72.2656 c 1
 427.246 17.0898 l 1
 383.301 0 341.309 -7.32422 306.152 -9.27734 c 1
 290.527 -70.8008 l 1
 312.988 -77.6367 380.371 -91.8633 380.371 -158.27 c 0
 380.371 -200.262 345.703 -247.625 280.762 -247.625 c 0
 244.629 -247.625 195.801 -230.535 169.434 -222.723 c 1
 182.129 -178.289 l 1
 240.723 -195.867 262.695 -201.238 282.715 -201.238 c 0
 313.965 -201.238 331.543 -183.105 331.543 -163.574 c 0
EndSplineSet
Fore
Refer: 580 807 N 1 0 0 1 270 0 2
Refer: 18 99 N 1 0 0 1 0 0 3
EndChar

StartChar: cedilla
Encoding: 184 184 126
Width: 537
VWidth: 0
Flags: MW
LayerCount: 3
Fore
SplineSet
302 -176 m 0
 325 -176 331 -165 331 -158 c 0
 331 -140 300 -135 233 -114 c 1
 214 -109 l 1
 252 31 l 1
 355 31 l 1
 334 -52 l 1
 365 -62 419 -87 419 -153 c 0
 419 -206 376 -263 300 -263 c 0
 263 -263 225 -250 183 -237 c 1
 164 -231 l 1
 188 -148 l 1
 207 -154 l 2
 258 -170 285 -176 302 -176 c 0
EndSplineSet
Validated: 1
EndChar

StartChar: Ccedilla
Encoding: 199 199 127
Width: 682
VWidth: 0
Flags: HMW
LayerCount: 3
Back
SplineSet
535.928 -154.191 m 0
 535.928 -201.617 496.196 -246.98 432.426 -246.98 c 0
 406.274 -246.98 389.642 -242.516 333.252 -225.931 c 2
 316.65 -221.048 l 1
 331.299 -170.267 l 1
 345.947 -174.661 l 2
 398.936 -190.279 418.01 -194.707 436.025 -194.707 c 0
 465.219 -194.707 481.023 -178.023 481.023 -160.225 c 0
 481.023 -129.678 441.952 -120.596 433.35 -118.021 c 2
 366.455 -98.001 l 1
 393.057 -1.03516 l 1
 230.14 34.7666 134.277 176.499 134.277 346.191 c 0
 134.277 545.898 267.578 698.73 481.445 698.73 c 0
 533.203 698.73 599.609 689.453 669.922 661.621 c 1
 644.531 592.773 l 1
 565.43 620.117 512.207 625.488 479.004 625.488 c 0
 317.383 625.488 217.285 491.699 217.285 346.68 c 0
 217.285 194.824 325.195 66.4062 497.07 66.4062 c 0
 543.945 66.4062 598.145 75.6836 653.809 95.7031 c 1
 679.199 34.1797 l 1
 608.887 3.90625 537.109 -9.76562 476.074 -9.76562 c 0
 471.426 -9.76562 466.816 -9.68945 462.248 -9.53906 c 1
 448.006 -65.875 l 1
 457.831 -68.8223 535.928 -83.5371 535.928 -154.191 c 0
EndSplineSet
Fore
Refer: 580 807 N 1 0 0 1 356 0 2
Refer: 54 67 N 1 0 0 1 0 0 3
Validated: 5
EndChar

StartChar: dieresis
Encoding: 168 168 128
Width: 585
VWidth: 0
Flags: MW
LayerCount: 3
Fore
SplineSet
118 714 m 1
 249 714 l 1
 249 583 l 1
 118 583 l 1
 118 714 l 1
337 714 m 1
 468 714 l 1
 468 583 l 1
 337 583 l 1
 337 714 l 1
EndSplineSet
Validated: 1
EndChar

StartChar: Idieresis
Encoding: 207 207 131
Width: 367
VWidth: 0
Flags: MW
LayerCount: 3
Fore
SplineSet
142 694 m 1
 265 694 l 1
 265 0 l 1
 142 0 l 1
 142 694 l 1
43 891 m 1
 173 891 l 1
 173 760 l 1
 43 760 l 1
 43 891 l 1
233 891 m 1
 363 891 l 1
 363 760 l 1
 233 760 l 1
 233 891 l 1
EndSplineSet
Validated: 1
EndChar

StartChar: idieresis
Encoding: 239 239 136
Width: 295
VWidth: 0
Flags: MW
LayerCount: 3
Fore
SplineSet
88 482 m 1
 208 482 l 1
 208 0 l 1
 88 0 l 1
 88 482 l 1
-7 694 m 1
 123 694 l 1
 123 563 l 1
 -7 563 l 1
 -7 694 l 1
173 694 m 1
 303 694 l 1
 303 563 l 1
 173 563 l 1
 173 694 l 1
EndSplineSet
Validated: 1
EndChar

StartChar: dotlessi
Encoding: 305 305 140
Width: 295
VWidth: 1023
Flags: MW
AnchorPoint: "below" 148 0 basechar 0
AnchorPoint: "above" 148 482 basechar 0
LayerCount: 3
Fore
SplineSet
88 482 m 1
 208 482 l 1
 208 0 l 1
 88 0 l 1
 88 482 l 1
EndSplineSet
Validated: 1
EndChar

StartChar: Aring
Encoding: 197 197 145
Width: 755
VWidth: 0
Flags: MW
LayerCount: 3
Fore
SplineSet
407 915 m 0
 495 915 571 852 571 770 c 0
 571 720 539 676 492 652 c 1
 748 0 l 1
 621 0 l 1
 543 182 l 1
 260 182 l 1
 183 0 l 1
 63 0 l 1
 320 653 l 1
 275 677 243 720 243 770 c 0
 243 851 318 915 407 915 c 0
408 824 m 0
 371 824 346 798 346 770 c 0
 346 743 369 715 408 715 c 0
 443 715 467 742 467 770 c 0
 467 798 443 824 408 824 c 0
500 294 m 1
 402 552 l 1
 303 294 l 1
 500 294 l 1
EndSplineSet
Validated: 1
EndChar

StartChar: uni00B2
Encoding: 178 178 146
Width: 390
VWidth: 0
Flags: MW
LayerCount: 3
Fore
SplineSet
60 404 m 1
 106 552 231 598 231 640 c 0
 231 658 209 682 173 682 c 0
 156 682 135 678 86 658 c 2
 75 653 l 1
 48 719 l 1
 58 724 l 1
 87 739 129 756 181 756 c 0
 254 756 313 712 313 647 c 0
 313 555 206 525 159 434 c 1
 319 434 l 1
 319 358 l 1
 60 358 l 1
 60 404 l 1
EndSplineSet
Validated: 1
EndChar

StartChar: uni00B3
Encoding: 179 179 147
Width: 390
VWidth: 1023
Flags: MW
LayerCount: 3
Fore
SplineSet
175 755 m 0
 244 755 299 713 299 653 c 0
 299 624 288 597 268 578 c 1
 301 557 314 525 314 491 c 0
 314 409 248 354 160 354 c 0
 118 354 86 364 57 376 c 2
 46 381 l 1
 69 449 l 1
 81 446 l 1
 125 434 141 432 161 432 c 0
 199 432 233 452 233 482 c 0
 233 525 182 532 135 532 c 2
 123 532 l 1
 123 606 l 1
 135 606 l 2
 175 606 219 614 219 646 c 0
 219 660 205 678 170 678 c 0
 139 678 110 665 92 657 c 2
 81 651 l 1
 52 720 l 1
 62 725 l 1
 89 738 127 755 175 755 c 0
EndSplineSet
Validated: 1
EndChar

StartChar: acute
Encoding: 180 180 148
Width: 558
VWidth: 0
Flags: HMW
LayerCount: 3
Fore
SplineSet
367 730 m 1
 438 646 l 1
 190 466 l 1
 120 546 l 1
 367 730 l 1
EndSplineSet
EndChar

StartChar: uni00B9
Encoding: 185 185 149
Width: 265
VWidth: 0
Flags: MW
LayerCount: 3
Fore
SplineSet
121 750 m 1
 180 750 l 1
 180 359 l 1
 100 359 l 1
 100 669 l 1
 33 650 l 1
 15 721 l 1
 121 750 l 1
EndSplineSet
Validated: 1
EndChar

StartChar: ordmasculine
Encoding: 186 186 150
Width: 372
VWidth: 1023
Flags: MW
LayerCount: 3
Fore
SplineSet
186 679 m 0
 152 679 101 662 101 561 c 0
 101 447 153 428 187 428 c 0
 221 428 271 447 271 558 c 0
 271 664 220 679 186 679 c 0
352 559 m 0
 352 431 279 355 186 355 c 0
 103 355 21 404 21 560 c 0
 21 690 104 754 187 754 c 0
 253 754 352 721 352 559 c 0
EndSplineSet
Validated: 1
EndChar

StartChar: eth
Encoding: 240 240 186
Width: 691
VWidth: 1023
Flags: MW
AnchorPoint: "cedilla" 322 0 basechar 0
AnchorPoint: "above" 322 670 basechar 0
AnchorPoint: "below" 322 0 basechar 0
LayerCount: 3
Fore
SplineSet
181 255 m 0
 181 162 253 96 336 96 c 0
 382 96 463 117 481 235 c 0
 485 267 486 301 486 327 c 2
 486 346 l 1
 409 386 360 394 327 394 c 0
 244 394 181 339 181 255 c 0
290 711 m 2
 348 697 403 675 452 645 c 1
 551 700 l 1
 598 619 l 1
 527 578 l 1
 588 508 604 426 604 332 c 0
 604 160 566 -10 327 -10 c 0
 166 -10 63 74 63 212 c 0
 63 348 157 464 315 464 c 0
 349 464 399 460 473 431 c 1
 462 463 443 491 412 518 c 1
 307 465 l 1
 253 546 l 1
 320 580 l 1
 295 592 269 602 242 610 c 2
 217 618 l 1
 271 716 l 1
 290 711 l 2
EndSplineSet
Validated: 1
EndChar

StartChar: thorn
Encoding: 254 254 187
Width: 649
VWidth: 1023
Flags: MW
AnchorPoint: "cedilla" 292 -261 basechar 0
AnchorPoint: "above" 292 670 basechar 0
AnchorPoint: "below" 292 -261 basechar 0
LayerCount: 3
Back
SplineSet
298.34 420.898 m 4
 185.547 420.898 168.457 314.453 168.457 228.027 c 4
 168.457 176.27 175.293 57.1289 300.293 57.1289 c 4
 361.816 57.1289 454.59 101.074 454.59 234.863 c 4
 454.59 357.422 373.535 420.898 298.34 420.898 c 4
312.012 489.746 m 4
 431.641 489.746 532.715 400.879 532.715 249.023 c 4
 532.715 97.6562 435.547 -11.2305 307.617 -11.2305 c 4
 259.277 -11.2305 209.473 6.83594 172.852 41.0156 c 5
 172.852 -259.277 l 5
 92.7734 -259.277 l 5
 92.7734 693.848 l 5
 172.852 693.848 l 5
 172.852 432.129 l 5
 208.984 472.656 261.23 489.746 312.012 489.746 c 4
EndSplineSet
Fore
SplineSet
312 381 m 0
 235 381 186 343 186 229 c 0
 186 174 200 97 314 97 c 0
 375 97 468 130 468 235 c 0
 468 333 385 381 312 381 c 0
327 490 m 0
 474 490 586 400 586 249 c 0
 586 100 481 -11 323 -11 c 0
 278 -11 232 0 192 21 c 1
 192 -259 l 1
 66 -259 l 1
 66 694 l 1
 192 694 l 1
 192 456 l 1
 233 480 281 490 327 490 c 0
EndSplineSet
Validated: 1
EndChar

StartChar: Eth
Encoding: 208 208 188
Width: 863
VWidth: 1023
Flags: MW
AnchorPoint: "cedilla" 432 0 basechar 0
AnchorPoint: "above" 432 670 basechar 0
AnchorPoint: "below" 432 0 basechar 0
LayerCount: 3
Fore
SplineSet
164 694 m 1
 396 694 l 2
 503 694 808 678 808 367 c 0
 808 21 508 0 365 0 c 2
 164 0 l 1
 164 301 l 1
 57 301 l 1
 57 415 l 1
 164 415 l 1
 164 694 l 1
402 581 m 2
 287 581 l 1
 287 415 l 1
 414 415 l 1
 414 301 l 1
 287 301 l 1
 287 113 l 1
 368 113 l 2
 492 113 684 128 684 351 c 0
 684 448 632 581 402 581 c 2
EndSplineSet
Validated: 1
EndChar

StartChar: Oslash
Encoding: 216 216 189
Width: 937
VWidth: 0
Flags: MW
AnchorPoint: "cedilla" 479 0 basechar 0
AnchorPoint: "above" 479 670 basechar 0
AnchorPoint: "below" 479 0 basechar 0
LayerCount: 3
Back
SplineSet
827.988 692.007 m 29
 77.6553 62.4023 l 29
 130.384 -0.436523 l 29
 880.718 629.17 l 29
 827.988 692.007 l 29
481.445 701.172 m 4
 693.359 701.172 847.168 568.848 847.168 354.492 c 4
 847.168 139.16 697.266 -7.32422 477.539 -7.32422 c 4
 289.062 -7.32422 114.746 108.887 114.746 345.215 c 4
 114.746 562.5 266.602 701.172 481.445 701.172 c 4
476.562 588.379 m 4
 362.793 588.379 240.723 518.066 240.723 354.98 c 4
 240.723 200.684 349.121 105.469 484.863 105.469 c 4
 596.68 105.469 721.191 176.27 721.191 346.191 c 4
 721.191 518.066 589.844 588.379 476.562 588.379 c 4
EndSplineSet
Fore
SplineSet
477 588 m 0
 363 588 241 518 241 355 c 0
 241 305 252 261 272 225 c 1
 639 534 l 1
 592 572 533 588 477 588 c 0
828 692 m 1
 881 629 l 1
 791 554 l 1
 827 500 847 432 847 354 c 0
 847 139 698 -7 478 -7 c 0
 384 -7 293 22 226 80 c 1
 130 -0 l 1
 78 62 l 1
 172 141 l 1
 136 194 115 262 115 345 c 0
 115 562 266 701 481 701 c 0
 583 701 672 671 736 615 c 1
 828 692 l 1
692 471 m 1
 324 162 l 1
 367 126 423 105 485 105 c 0
 597 105 721 176 721 346 c 0
 721 396 711 437 692 471 c 1
EndSplineSet
Validated: 1
EndChar

StartChar: logicalnot
Encoding: 172 172 190
Width: 683
VWidth: 1023
Flags: MW
LayerCount: 3
Fore
SplineSet
41 377 m 1
 643 377 l 1
 643 118 l 1
 530 118 l 1
 530 265 l 1
 41 265 l 1
 41 377 l 1
EndSplineSet
Validated: 1
EndChar

StartChar: macron
Encoding: 175 175 191
Width: 683
VWidth: 1023
Flags: MW
LayerCount: 3
Fore
SplineSet
119 821 m 1
 564 821 l 1
 564 708 l 1
 119 708 l 1
 119 821 l 1
EndSplineSet
Validated: 1
EndChar

StartChar: ordfeminine
Encoding: 170 170 192
Width: 374
VWidth: 1023
Flags: MW
LayerCount: 3
Fore
SplineSet
243 485 m 1
 242 485 l 2
 178 485 145 476 145 448 c 0
 145 434 160 414 192 414 c 0
 211 414 229 424 243 444 c 1
 243 485 l 1
243 550 m 1
 243 569 239 603 186 603 c 0
 154 603 114 592 106 590 c 2
 94 586 l 1
 80 644 l 1
 90 647 l 1
 122 659 156 666 191 666 c 0
 309 666 315 592 315 552 c 2
 315 359 l 1
 261 359 l 1
 254 376 l 1
 235 360 211 350 185 350 c 0
 122 350 73 385 73 447 c 0
 73 531 134 549 243 550 c 1
EndSplineSet
Validated: 1
EndChar

StartChar: Thorn
Encoding: 222 222 193
Width: 665
VWidth: 1023
Flags: MW
AnchorPoint: "cedilla" 141 0 basechar 0
AnchorPoint: "above" 310 670 basechar 0
AnchorPoint: "below" 310 0 basechar 0
LayerCount: 3
Fore
SplineSet
305 472 m 0
 270 472 237 471 203 469 c 1
 203 254 l 1
 245 252 273 251 290 251 c 2
 305 251 l 2
 400 251 497 261 497 367 c 0
 497 459 405 472 305 472 c 0
80 694 m 1
 203 694 l 1
 203 566 l 1
 245 569 287 571 331 571 c 0
 496 571 622 532 622 377 c 0
 622 299 590 189 463 155 c 1
 427 146 367 139 272 139 c 0
 249 139 226 140 203 141 c 1
 203 0 l 1
 80 0 l 1
 80 694 l 1
EndSplineSet
Validated: 1
EndChar

StartChar: quotedblleft
Encoding: 8220 8220 194
Width: 405
VWidth: 1023
Flags: MW
LayerCount: 3
Fore
SplineSet
388 758 m 1
 315 506 l 1
 178 506 l 1
 251 758 l 1
 388 758 l 1
203 758 m 1
 130 506 l 1
 -7 506 l 1
 65 758 l 1
 203 758 l 1
EndSplineSet
Validated: 1
EndChar

StartChar: quotedblright
Encoding: 8221 8221 195
Width: 405
VWidth: 1023
Flags: MW
LayerCount: 3
Fore
SplineSet
251 758 m 1
 388 758 l 1
 315 506 l 1
 178 506 l 1
 251 758 l 1
65 758 m 1
 203 758 l 1
 130 506 l 1
 -7 506 l 1
 65 758 l 1
EndSplineSet
Validated: 1
EndChar

StartChar: Euro
Encoding: 8364 8364 201
Width: 651
VWidth: 1023
Flags: MW
LayerCount: 3
Fore
SplineSet
117 226 m 1
 4 226 l 1
 4 330 l 1
 103 330 l 1
 103 335 103 340 103 346 c 0
 103 362 104 378 105 394 c 1
 36 394 l 1
 36 498 l 1
 127 498 l 1
 174 633 288 719 435 719 c 0
 506 719 567 700 612 680 c 2
 629 673 l 1
 594 566 l 1
 574 574 l 1
 494 605 447 605 433 605 c 0
 355 605 292 563 255 498 c 1
 463 498 l 1
 463 394 l 1
 221 394 l 1
 219 378 217 363 217 346 c 0
 217 341 218 335 218 330 c 1
 432 330 l 1
 432 226 l 1
 242 226 l 1
 277 146 347 86 448 86 c 0
 488 86 532 94 583 114 c 2
 602 122 l 1
 638 24 l 1
 622 16 l 2
 574 -7 507 -30 430 -30 c 0
 273 -30 156 74 117 226 c 1
EndSplineSet
Validated: 1
EndChar

StartChar: emdash
Encoding: 8212 8212 202
Width: 715
VWidth: 1023
Flags: MW
LayerCount: 3
Fore
SplineSet
0 375 m 5
 716 375 l 5
 716 268 l 5
 0 268 l 5
 0 375 l 5
EndSplineSet
Validated: 1
EndChar

StartChar: endash
Encoding: 8211 8211 203
Width: 605
VWidth: 1023
Flags: MW
LayerCount: 3
Fore
SplineSet
0 375 m 5
 606 375 l 5
 606 268 l 5
 0 268 l 5
 0 375 l 5
EndSplineSet
Validated: 1
EndChar

StartChar: afii00208
Encoding: 8213 8213 204
Width: 821
VWidth: 1023
Flags: MW
LayerCount: 3
Fore
SplineSet
0 375 m 5
 821 375 l 5
 821 268 l 5
 0 268 l 5
 0 375 l 5
EndSplineSet
Validated: 1
EndChar

StartChar: ellipsis
Encoding: 8230 8230 205
Width: 839
VWidth: 1023
Flags: MW
LayerCount: 3
Fore
SplineSet
68 123 m 1
 210 123 l 1
 210 -20 l 1
 68 -20 l 1
 68 123 l 1
344 123 m 1
 486 123 l 1
 486 -20 l 1
 344 -20 l 1
 344 123 l 1
620 123 m 1
 762 123 l 1
 762 -20 l 1
 620 -20 l 1
 620 123 l 1
EndSplineSet
Validated: 1
EndChar

StartChar: bullet
Encoding: 8226 8226 206
Width: 680
VWidth: 0
Flags: MW
LayerCount: 3
Back
SplineSet
173 337 m 132
 173 383 189.333 422.333 222 455 c 132
 254.667 487.667 294 504 340 504 c 132
 386 504 425.333 487.667 458 455 c 132
 490.667 422.333 507 383 507 337 c 132
 507 291 490.667 251.667 458 219 c 132
 425.333 186.333 386 170 340 170 c 132
 294 170 254.667 186.333 222 219 c 132
 189.333 251.667 173 291 173 337 c 132
EndSplineSet
Fore
SplineSet
173 337 m 4
 173 383 189 422 222 455 c 4
 255 488 294 504 340 504 c 4
 386 504 425 488 458 455 c 4
 491 422 507 383 507 337 c 4
 507 291 491 252 458 219 c 4
 425 186 386 170 340 170 c 4
 294 170 255 186 222 219 c 4
 189 252 173 291 173 337 c 4
EndSplineSet
Validated: 1
EndChar

StartChar: uni203D
Encoding: 8253 8253 207
Width: 510
VWidth: 1023
Flags: MW
LayerCount: 3
Fore
SplineSet
132 118 m 1
 270 118 l 1
 270 -20 l 1
 132 -20 l 1
 132 118 l 1
448 534 m 0
 448 335 257 341 257 191 c 2
 257 171 l 1
 144 171 l 1
 144 547 l 1
 257 547 l 1
 257 412 l 1
 292 441 327 476 327 523 c 0
 327 559 303 612 199 612 c 0
 170 612 125 608 82 590 c 2
 63 583 l 1
 23 678 l 1
 40 687 l 2
 86 709 142 722 207 722 c 0
 320 722 448 684 448 534 c 0
EndSplineSet
Validated: 1
EndChar

StartChar: quoteleft
Encoding: 8216 8216 208
Width: 219
VWidth: 1023
Flags: MW
LayerCount: 3
Fore
SplineSet
17 758 m 1
 154 758 l 1
 227 506 l 1
 90 506 l 1
 17 758 l 1
EndSplineSet
Validated: 1
EndChar

StartChar: quoteright
Encoding: 8217 8217 209
Width: 219
VWidth: 1023
Flags: MW
LayerCount: 3
Fore
SplineSet
65 758 m 1
 203 758 l 1
 130 506 l 1
 -7 506 l 1
 65 758 l 1
EndSplineSet
Validated: 1
EndChar

StartChar: fraction
Encoding: 8260 8260 210
Width: 505
VWidth: 0
Flags: MW
LayerCount: 3
Fore
SplineSet
399 714 m 1
 531 714 l 1
 107 -20 l 1
 -25 -20 l 1
 399 714 l 1
EndSplineSet
Validated: 1
EndChar

StartChar: florin
Encoding: 402 402 211
Width: 480
VWidth: 1023
Flags: MW
AnchorPoint: "cedilla" 126 -261 basechar 0
AnchorPoint: "above" 255 670 basechar 0
AnchorPoint: "below" 185 -261 basechar 0
LayerCount: 3
Fore
SplineSet
56 482 m 1
 150 482 l 1
 150 515 l 2
 150 546 152 583 175 618 c 0
 209 671 276 698 357 698 c 0
 406 698 452 687 482 678 c 2
 500 672 l 1
 479 575 l 1
 459 580 l 1
 423 589 402 591 387 591 c 0
 292 591 289 537 289 508 c 2
 289 482 l 1
 462 482 l 1
 462 379 l 1
 289 379 l 1
 289 -86 l 2
 289 -143 275 -264 83 -264 c 0
 59 -264 18 -262 -41 -244 c 2
 -58 -239 l 1
 -38 -141 l 1
 -18 -146 l 2
 -4 -149 26 -157 55 -157 c 0
 147 -157 150 -109 150 -77 c 2
 150 379 l 1
 56 379 l 1
 56 482 l 1
EndSplineSet
Validated: 1
EndChar

StartChar: guilsinglleft
Encoding: 8249 8249 212
Width: 296
VWidth: 1023
Flags: MW
LayerCount: 3
Fore
SplineSet
150 502 m 1
 292 502 l 1
 143 304 l 1
 292 106 l 1
 151 106 l 1
 12 304 l 1
 150 502 l 1
EndSplineSet
Validated: 1
EndChar

StartChar: guilsinglright
Encoding: 8250 8250 213
Width: 296
VWidth: 1023
Flags: MW
LayerCount: 3
Fore
SplineSet
5 502 m 5
 146 502 l 5
 284 304 l 5
 146 106 l 5
 5 106 l 5
 154 304 l 5
 5 502 l 5
EndSplineSet
Validated: 1
EndChar

StartChar: dagger
Encoding: 8224 8224 214
Width: 459
VWidth: 1023
Flags: MW
LayerCount: 3
Fore
SplineSet
175 553 m 1
 63 548 l 1
 63 644 l 1
 175 639 l 1
 175 758 l 1
 285 758 l 1
 285 639 l 1
 397 644 l 1
 397 548 l 1
 285 553 l 1
 285 52 l 1
 175 52 l 1
 175 553 l 1
EndSplineSet
Validated: 1
EndChar

StartChar: daggerdbl
Encoding: 8225 8225 215
Width: 459
VWidth: 1023
Flags: MW
LayerCount: 3
Fore
SplineSet
175 553 m 1
 63 548 l 1
 63 644 l 1
 175 639 l 1
 175 758 l 1
 285 758 l 1
 285 639 l 1
 397 644 l 1
 397 548 l 1
 285 553 l 1
 285 67 l 1
 397 72 l 1
 397 -23 l 1
 285 -19 l 1
 285 -137 l 1
 175 -137 l 1
 175 -19 l 1
 63 -23 l 1
 63 72 l 1
 175 67 l 1
 175 553 l 1
EndSplineSet
Validated: 1
EndChar

StartChar: quotesinglbase
Encoding: 8218 8218 216
Width: 219
VWidth: 1023
Flags: MW
LayerCount: 3
Fore
SplineSet
65 126 m 1
 203 126 l 1
 130 -125 l 1
 -7 -125 l 1
 65 126 l 1
EndSplineSet
Validated: 1
EndChar

StartChar: quotedblbase
Encoding: 8222 8222 217
Width: 405
VWidth: 1023
Flags: MW
LayerCount: 3
Fore
SplineSet
251 125 m 1
 388 125 l 1
 315 -127 l 1
 178 -127 l 1
 251 125 l 1
65 125 m 1
 203 125 l 1
 130 -127 l 1
 -7 -127 l 1
 65 125 l 1
EndSplineSet
Validated: 1
EndChar

StartChar: perthousand
Encoding: 8240 8240 218
Width: 937
VWidth: 1023
Flags: MW
LayerCount: 3
Fore
SplineSet
504 714 m 1
 636 714 l 1
 135 -20 l 1
 3 -20 l 1
 504 714 l 1
904 171 m 0
 904 72 846 12 772 12 c 0
 708 12 641 51 641 172 c 0
 641 274 706 324 772 324 c 0
 828 324 904 293 904 171 c 0
772 237 m 0
 737 237 729 205 729 172 c 0
 729 135 737 98 772 98 c 0
 807 98 816 133 816 170 c 0
 816 231 790 237 772 237 c 0
607 171 m 0
 607 72 550 12 476 12 c 0
 412 12 345 51 345 172 c 0
 345 274 410 324 476 324 c 0
 532 324 607 293 607 171 c 0
476 237 m 0
 441 237 432 205 432 172 c 0
 432 135 441 98 476 98 c 0
 511 98 520 133 520 170 c 0
 520 231 494 237 476 237 c 0
291 533 m 0
 291 434 233 374 159 374 c 0
 95 374 28 413 28 534 c 0
 28 636 94 686 160 686 c 0
 214 686 291 657 291 533 c 0
159 599 m 0
 124 599 116 567 116 534 c 0
 116 497 125 459 160 459 c 0
 195 459 203 495 203 532 c 0
 203 593 177 599 159 599 c 0
EndSplineSet
Validated: 1
EndChar

StartChar: circumflex
Encoding: 710 710 219
Width: 569
VWidth: 1023
Flags: MW
LayerCount: 3
Fore
SplineSet
296 782 m 1
 449 612 l 1
 375 541 l 1
 289 636 l 1
 203 542 l 1
 130 607 l 1
 296 782 l 1
EndSplineSet
Validated: 1
EndChar

StartChar: tilde
Encoding: 732 732 220
Width: 683
VWidth: 1023
Flags: MW
LayerCount: 3
Fore
SplineSet
432 420 m 4
 453 420 465 456 486 497 c 5
 495 514 l 5
 583 475 l 5
 574 457 l 6
 551 409 517 320 432 320 c 5
 341 324 306 409 275 409 c 4
 254 409 242 372 221 330 c 6
 212 313 l 5
 125 352 l 5
 133 371 l 6
 156 419 190 508 275 508 c 5
 366 504 400 420 432 420 c 4
EndSplineSet
Validated: 1
EndChar

StartChar: ring
Encoding: 730 730 221
Width: 529
VWidth: 0
Flags: MW
LayerCount: 3
Fore
SplineSet
284 704 m 0
 259 704 240 683 240 659 c 0
 240 635 258 613 284 613 c 0
 307 613 326 635 326 659 c 0
 326 683 308 704 284 704 c 0
411 659 m 0
 411 587 354 529 284 529 c 0
 215 529 156 587 156 659 c 0
 156 730 213 788 283 788 c 0
 352 788 411 731 411 659 c 0
EndSplineSet
Validated: 1
EndChar

StartChar: breve
Encoding: 728 728 222
Width: 526
VWidth: 0
Flags: MW
LayerCount: 3
Back
SplineSet
253 520 m 5
 101 689 l 5
 175 760 l 5
 260 666 l 5
 347 759 l 5
 420 695 l 5
 253 520 l 5
EndSplineSet
Fore
SplineSet
91 653 m 5
 166 693 l 5
 173 679 l 6
 179 665 207 615 257 615 c 4
 298 615 337 651 359 681 c 5
 369 693 l 5
 439 645 l 5
 429 632 l 5
 387 578 322 529 251 529 c 4
 169 529 115 587 95 641 c 6
 91 653 l 5
EndSplineSet
Validated: 1
EndChar

StartChar: caron
Encoding: 711 711 223
Width: 526
VWidth: 0
Flags: MW
LayerCount: 3
Fore
SplineSet
253 520 m 5
 101 689 l 5
 175 760 l 5
 260 666 l 5
 347 759 l 5
 420 695 l 5
 253 520 l 5
EndSplineSet
Validated: 1
EndChar

StartChar: dotaccent
Encoding: 729 729 224
Width: 585
VWidth: 0
Flags: MW
LayerCount: 3
Fore
SplineSet
217 724 m 1
 359 724 l 1
 359 582 l 1
 217 582 l 1
 217 724 l 1
EndSplineSet
Validated: 1
EndChar

StartChar: trademark
Encoding: 8482 8482 225
Width: 695
VWidth: 1023
Flags: MW
LayerCount: 3
Fore
SplineSet
199 448 m 1
 127 448 l 1
 127 687 l 1
 42 687 l 1
 42 750 l 1
 285 750 l 1
 285 687 l 1
 199 687 l 1
 199 448 l 1
325 750 m 1
 401 750 l 1
 478 609 l 1
 551 750 l 1
 629 750 l 1
 629 448 l 1
 557 448 l 1
 557 630 l 1
 499 522 l 1
 451 522 l 1
 397 629 l 1
 397 448 l 1
 325 448 l 1
 325 750 l 1
EndSplineSet
Validated: 1
EndChar

StartChar: Dcaron
Encoding: 270 270 238
Width: 734
VWidth: 0
Flags: HMW
LayerCount: 3
Back
SplineSet
376.953 693.848 m 5xb8
 706.543 693.848 786.133 520.02 786.133 367.188 c 4
 786.133 226.074 729.98 61.0352 514.648 15.1367 c 4
 444.824 0 375 0 315.918 0 c 4
 314.453 0 313.477 0 312.012 0 c 6
 141.602 0 l 5
 141.602 693.848 l 5xb8
 376.953 693.848 l 5xb8
379.883 580.566 m 6xd8
 264.648 580.566 l 5xb8
 264.648 113.281 l 5
 345.703 113.281 l 6
 431.152 113.281 560.059 115.723 626.953 220.703 c 4
 641.602 243.652 662.109 286.133 662.109 351.074 c 4
 662.109 499.023 548.34 563.965 451.172 577.148 c 4
 428.711 580.078 404.785 580.566 379.883 580.566 c 6xd8
440.43 711.426 m 5
 279.297 881.348 l 5
 353.516 952.148 l 5
 448.73 857.422 l 5
 549.316 950.684 l 5
 634.277 885.742 l 5
 440.43 711.426 l 5
EndSplineSet
Fore
Refer: 579 780 N 1 0 0 1 352 188 2
Refer: 48 68 N 1 0 0 1 0 0 3
Validated: 1
EndChar

StartChar: Dcroat
Encoding: 272 272 240
Width: 863
VWidth: 1023
Flags: MW
AnchorPoint: "below" 432 0 basechar 0
AnchorPoint: "above" 432 670 basechar 0
AnchorPoint: "cedilla" 432 0 basechar 0
LayerCount: 3
Back
SplineSet
398.926 693.848 m 5xdc
 728.516 693.848 808.105 520.02 808.105 367.188 c 4
 808.105 226.074 751.953 61.0352 536.621 15.1367 c 4
 466.797 0 396.973 0 337.891 0 c 4
 336.426 0 335.449 0 333.984 0 c 6
 163.574 0 l 5
 163.574 301.27 l 5
 57.1289 301.27 l 5
 57.1289 414.551 l 5
 163.574 414.551 l 5
 163.574 693.848 l 5xdc
 163.574 693.848 236.328 702.637 306.152 702.637 c 4xec
 340.82 702.637 375 700.684 398.926 693.848 c 5xdc
413.574 301.27 m 5
 286.621 301.27 l 5
 286.621 113.281 l 5
 367.676 113.281 l 6
 453.125 113.281 582.031 115.723 648.926 220.703 c 4
 663.574 243.652 684.082 286.133 684.082 351.074 c 4
 684.082 499.023 570.312 563.965 473.145 577.148 c 4
 450.684 580.078 426.758 580.566 401.855 580.566 c 6xec
 286.621 580.566 l 5
 286.621 414.551 l 5
 413.574 414.551 l 5
 413.574 301.27 l 5
EndSplineSet
Fore
Refer: 188 208 N 1 0 0 1 0 0 3
Validated: 1
EndChar

StartChar: Itilde
Encoding: 296 296 258
Width: 396
VWidth: 0
Flags: MW
LayerCount: 3
Back
SplineSet
148.926 795.898 m 6
 130.371 729.004 l 5
 41.0156 752.93 l 5
 59.082 820.312 l 6
 62.5 833.008 80.5664 911.133 165.527 911.133 c 4
 213.379 911.133 235.84 878.418 244.141 866.699 c 6
 267.578 835.938 l 6
 273.438 829.102 279.785 820.801 284.18 818.848 c 5
 288.086 822.754 292.969 835.449 295.41 846.68 c 5
 314.453 915.039 l 5
 403.32 890.137 l 5
 385.742 823.73 l 6
 379.395 800.781 356.445 716.797 277.344 716.797 c 4
 229.492 716.797 206.055 754.395 200.195 762.207 c 6
 176.758 793.457 l 6
 168.457 803.711 160.156 811.035 155.762 811.523 c 5
 153.32 809.57 150.879 802.734 148.926 795.898 c 6
160.645 0 m 5
 160.645 693.848 l 5
 283.691 693.848 l 5
 283.691 0 l 5
 160.645 0 l 5
284.668 818.848 m 5
 284.668 818.848 l 5
EndSplineSet
Fore
SplineSet
277 717 m 4
 203 717 180 811 159 811 c 4
 152 811 151 804 130 729 c 5
 41 753 l 5
 61 825 71 911 166 911 c 4
 243 911 263 821 284 821 c 4
 290 821 290 827 314 915 c 5
 403 890 l 5
 384 820 369 717 277 717 c 4
161 0 m 1
 161 694 l 1
 284 694 l 1
 284 0 l 1
 161 0 l 1
EndSplineSet
Validated: 1
EndChar

StartChar: itilde
Encoding: 297 297 259
Width: 295
VWidth: 0
Flags: MW
LayerCount: 3
Back
SplineSet
367.188 609.375 m 4
 401.855 609.375 416.504 650.879 440.43 698.242 c 5
 491.211 675.293 l 5
 465.82 623.047 437.5 549.805 367.188 549.805 c 4
 290.039 549.805 256.348 637.695 211.426 637.695 c 4
 176.758 637.695 162.598 596.68 138.672 548.828 c 5
 86.9141 571.777 l 5
 112.305 624.023 141.113 697.266 211.426 697.266 c 4
 288.574 697.266 322.266 609.375 367.188 609.375 c 4
EndSplineSet
Fore
SplineSet
88 482 m 1
 208 482 l 1
 208 0 l 1
 88 0 l 1
 88 482 l 1
208 547 m 0
 134 547 110 641 89 641 c 0
 82 641 82 635 61 560 c 1
 -28 583 l 1
 -8 655 1 742 96 742 c 0
 173 742 193 651 214 651 c 0
 220 651 221 658 245 746 c 1
 334 721 l 1
 315 651 300 547 208 547 c 0
EndSplineSet
Validated: 1
EndChar

StartChar: Imacron
Encoding: 298 298 260
Width: 396
VWidth: 0
Flags: MW
LayerCount: 3
Fore
SplineSet
98 829 m 1
 338 829 l 1
 338 726 l 1
 98 726 l 1
 98 829 l 1
156 694 m 1
 279 694 l 1
 279 0 l 1
 156 0 l 1
 156 694 l 1
EndSplineSet
Validated: 1
EndChar

StartChar: imacron
Encoding: 299 299 261
Width: 295
VWidth: 0
Flags: MW
LayerCount: 3
Fore
SplineSet
88 482 m 1
 208 482 l 1
 208 0 l 1
 88 0 l 1
 88 482 l 1
39 651 m 1
 257 651 l 1
 257 548 l 1
 39 548 l 1
 39 651 l 1
EndSplineSet
Validated: 1
EndChar

StartChar: Ibreve
Encoding: 300 300 262
Width: 283
VWidth: 0
Flags: HMW
LayerCount: 3
Back
SplineSet
40.5273 872.559 m 5
 135.254 923.34 l 5
 143.555 901.855 l 6
 159.668 859.375 188.965 832.52 219.727 832.52 c 4
 252.93 832.52 281.738 858.398 356.934 905.762 c 5
 369.629 922.852 l 5
 444.336 860.84 l 5
 436.035 846.191 l 6
 394.043 775.391 299.805 720.215 204.59 720.215 c 4
 109.863 720.215 63.9648 796.875 45.4102 856.934 c 6
 40.5273 872.559 l 5
EndSplineSet
Fore
Refer: 574 774 N 1 0 0 1 142 188 2
Refer: 40 73 N 1 0 0 1 0 0 3
Validated: 1
EndChar

StartChar: IJ
Encoding: 306 306 265
Width: 941
VWidth: 0
Flags: MW
LayerCount: 3
Fore
SplineSet
156 694 m 1
 279 694 l 1
 279 0 l 1
 156 0 l 1
 156 694 l 1
720 694 m 1
 843 694 l 1
 843 250 l 2
 843 141 814 -8 569 -8 c 0
 535 -8 502 -4 469 4 c 2
 450 9 l 1
 471 117 l 1
 491 112 l 2
 512 107 535 105 556 105 c 0
 713 105 720 207 720 250 c 2
 720 694 l 1
EndSplineSet
Validated: 1
EndChar

StartChar: ij
Encoding: 307 307 266
Width: 591
VWidth: 0
Flags: MW
LayerCount: 3
Fore
SplineSet
382 482 m 1
 502 482 l 1
 502 -47 l 2
 502 -103 500 -209 354 -260 c 1
 333 -266 l 1
 271 -171 l 1
 295 -162 l 2
 369 -135 382 -96 382 -57 c 2
 382 482 l 1
375 694 m 1
 511 694 l 1
 511 562 l 1
 375 562 l 1
 375 694 l 1
88 482 m 1
 208 482 l 1
 208 0 l 1
 88 0 l 1
 88 482 l 1
81 694 m 1
 217 694 l 1
 217 562 l 1
 81 562 l 1
 81 694 l 1
EndSplineSet
Validated: 1
EndChar

StartChar: Jcircumflex
Encoding: 308 308 267
Width: 477
VWidth: 1023
Flags: HMW
LayerCount: 3
Back
SplineSet
388.184 952.637 m 5x20
 540.527 782.715 l 5
 465.82 711.914 l 5
 380.859 806.641 l 5
 283.691 713.379 l 5
 183.594 778.32 l 5
 388.184 952.637 l 5x20
323.242 693.848 m 5xa8
 446.289 693.848 l 5xa8
 446.289 215.332 l 6
 446.289 150.879 437.988 99.1211 387.207 54.1992 c 5
 359.863 31.25 297.363 -8.30078 172.852 -8.30078 c 4xb0
 139.16 -8.30078 104.98 -4.39453 72.2656 3.90625 c 6
 53.7109 8.78906 l 5
 74.2188 117.188 l 5x70
 94.7266 112.305 l 6
 115.234 107.422 137.695 104.98 159.18 104.98 c 4
 298.34 104.98 304.199 172.852 304.199 216.309 c 5xb0
 323.242 693.848 l 5xa8
EndSplineSet
Fore
Refer: 332 770 N 1 0 0 1 350 188 2
Refer: 46 74 N 1 0 0 1 0 0 3
EndChar

StartChar: Ldot
Encoding: 319 319 277
Width: 633
VWidth: 0
Flags: MW
LayerCount: 3
Fore
SplineSet
142 694 m 1
 265 694 l 1
 265 113 l 1
 616 113 l 1
 616 0 l 1
 142 0 l 1
 142 694 l 1
346 422 m 1
 514 422 l 1
 514 279 l 1
 346 279 l 1
 346 422 l 1
EndSplineSet
Validated: 1
EndChar

StartChar: ldot
Encoding: 320 320 278
Width: 442
VWidth: 0
Flags: HMW
LayerCount: 3
Fore
SplineSet
261 429 m 1
 403 429 l 1
 403 287 l 1
 261 287 l 1
 261 429 l 1
EndSplineSet
Refer: 10 108 S 1 0 0 1 0 0 2
EndChar

StartChar: Scedilla
Encoding: 350 350 299
Width: 628
VWidth: 0
Flags: HMW
LayerCount: 3
Back
SplineSet
462.402 -154.785 m 4x2f
 462.402 -202.148 422.852 -247.559 358.887 -247.559 c 4xaf
 332.52 -247.559 315.918 -243.164 259.766 -226.562 c 6
 243.164 -221.68 l 5
 257.812 -170.898 l 5x4f
 272.461 -175.293 l 6
 325.684 -190.918 344.238 -195.312 362.305 -195.312 c 4
 391.602 -195.312 407.227 -178.711 407.227 -161.133 c 4
 407.227 -129.395 366.211 -121.094 359.375 -118.652 c 6
 292.969 -98.6328 l 5
 317.383 -9.76562 l 5xaf
 240.234 -9.76562 181.152 11.7188 117.188 37.1094 c 5
 145.508 117.676 l 5x1f
 234.863 84.4727 297.363 72.2656 338.379 72.2656 c 4
 436.035 72.2656 505.859 114.746 505.859 181.641 c 4
 505.859 346.191 131.348 278.32 131.348 499.023 c 4
 131.348 606.445 236.328 700.195 400.879 700.195 c 4
 463.379 700.195 526.367 686.523 573.242 672.363 c 5
 546.387 596.68 l 5
 524.414 603.027 455.078 622.07 394.043 622.07 c 4
 299.805 622.07 221.68 578.125 221.68 512.695 c 4
 221.68 361.816 596.191 417.969 596.191 193.848 c 4
 596.191 114.746 539.062 15.625 389.648 -5.37109 c 5
 374.512 -66.4062 l 5
 384.277 -69.3359 462.402 -83.9844 462.402 -154.785 c 4x2f
EndSplineSet
Fore
Refer: 580 807 N 1 0 0 1 330 0 2
Refer: 55 83 N 1 0 0 1 0 0 3
EndChar

StartChar: scedilla
Encoding: 351 351 300
Width: 465
VWidth: 1023
Flags: HMW
LayerCount: 3
Back
SplineSet
344.727 -153.809 m 4
 344.727 -191.406 326.172 -237.305 244.629 -237.305 c 4
 216.309 -237.305 179.688 -231.934 133.789 -218.262 c 5
 146.484 -173.828 l 5
 205.078 -191.406 227.539 -196.777 247.559 -196.777 c 4
 278.809 -196.777 296.387 -178.711 296.387 -159.18 c 4
 296.387 -124.023 258.301 -118.164 184.57 -95.7031 c 5
 207.52 -9.76562 l 5
 171.875 -9.76562 122.07 2.92969 63.4766 26.8555 c 5
 85.9375 87.4023 l 5
 150.391 63.4766 188.965 53.2227 230.957 53.2227 c 4
 289.062 53.2227 350.098 65.918 350.098 128.906 c 4
 350.098 221.191 75.1953 184.57 75.1953 346.191 c 4
 75.1953 400.391 119.629 491.699 288.086 491.699 c 4
 350.586 491.699 375.977 482.422 410.645 472.168 c 5
 390.137 411.133 l 5
 358.398 419.922 323.73 429.199 274.902 429.199 c 4
 173.34 429.199 158.203 375.977 158.203 354.492 c 4
 158.203 268.066 437.5 288.574 437.5 138.184 c 4
 437.5 83.0078 405.273 -7.8125 270.02 -7.8125 c 5
 255.371 -66.4062 l 5
 277.832 -73.2422 344.727 -87.4023 344.727 -153.809 c 4
EndSplineSet
Fore
Refer: 580 807 N 1 0 0 1 267 0 2
Refer: 7 115 N 1 0 0 1 0 0 3
EndChar

StartChar: Tcommaaccent
Encoding: 354 354 301
Width: 710
VWidth: 0
Flags: MW
LayerCount: 3
Back
SplineSet
41.5039 693.848 m 5
 668.457 693.848 l 5
 668.457 580.566 l 5
 416.504 580.566 l 5
 416.504 0 l 5
 293.457 0 l 5
 293.457 580.566 l 5
 41.5039 580.566 l 5
 41.5039 693.848 l 5
EndSplineSet
Fore
SplineSet
356 -154 m 1
 373 -154 382 -148 382 -141 c 0
 382 -123 328 -112 275 -97 c 1
 250 -91 l 1
 257 -73 l 2
 290 10 293 5 293 83 c 2
 293 581 l 1
 42 581 l 1
 42 694 l 1
 668 694 l 1
 668 581 l 1
 417 581 l 1
 417 90 l 2
 417 40 414 9 398 -35 c 1
 440 -49 501 -75 501 -134 c 0
 501 -189 443 -247 351 -247 c 0
 314 -247 289 -238 208 -220 c 1
 181 -215 l 1
 217 -125 l 1
 244 -131 l 1
 307 -146 334 -154 356 -154 c 1
EndSplineSet
Validated: 1
EndChar

StartChar: tcommaaccent
Encoding: 355 355 302
Width: 426
VWidth: 0
Flags: HMW
LayerCount: 3
Back
SplineSet
257.812 515.137 m 5xd0
 359.375 745.605 l 5
 508.301 745.605 l 5xc8
 402.344 515.137 l 5
 257.812 515.137 l 5xd0
99.1211 620.605 m 5
 234.375 620.605 l 5
 234.375 482.422 l 5
 406.25 482.422 l 5
 406.25 379.395 l 5
 234.375 379.395 l 5
 234.375 163.086 l 6
 234.375 133.789 237.793 92.7734 306.641 92.7734 c 4
 322.754 92.7734 330.078 93.75 389.648 102.539 c 5
 408.691 105.957 l 5
 427.734 13.6719 l 5
 409.18 8.78906 l 5
 349.121 -5.85938 305.176 -9.76562 276.855 -9.76562 c 4
 130.371 -9.76562 99.1211 69.3359 99.1211 154.785 c 6
 99.1211 379.395 l 5
 34.1797 379.395 l 5
 34.1797 482.422 l 5
 99.1211 482.422 l 5
 99.1211 620.605 l 5
EndSplineSet
Fore
Refer: 580 807 N 1 0 0 1 260 0 2
Refer: 19 116 N 1 0 0 1 0 0 3
EndChar

StartChar: eng
Encoding: 331 331 322
Width: 654
VWidth: 1023
Flags: MW
AnchorPoint: "cedilla" 322 -168 basechar 0
AnchorPoint: "above" 322 482 basechar 0
AnchorPoint: "below" 322 -168 basechar 0
LayerCount: 3
Fore
SplineSet
341 380 m 0
 317 380 273 375 213 353 c 1
 213 0 l 1
 88 0 l 1
 88 482 l 1
 177 482 l 1
 193 450 l 1
 274 484 339 492 379 492 c 0
 561 492 566 346 566 292 c 2
 566 12 l 2
 566 -84 535 -169 406 -169 c 0
 379 -169 337 -166 271 -151 c 2
 249 -146 l 1
 272 -49 l 1
 295 -52 l 1
 357 -61 363 -62 378 -62 c 0
 435 -62 446 -30 446 12 c 2
 446 284 l 2
 446 318 442 380 341 380 c 0
EndSplineSet
Validated: 1
EndChar

StartChar: uni0237
Encoding: 567 567 323
Width: 295
VWidth: 1023
Flags: MW
AnchorPoint: "cedilla" 82 -232 basechar 0
AnchorPoint: "below" 155 -261 basechar 0
AnchorPoint: "above" 155 482 basechar 0
LayerCount: 3
Fore
SplineSet
95 482 m 1
 215 482 l 1
 215 -47 l 2
 215 -109 210 -210 73 -260 c 1
 56 -266 l 1
 9 -171 l 1
 27 -162 l 2
 92 -131 95 -81 95 -55 c 2
 95 482 l 1
EndSplineSet
Validated: 1
EndChar

StartChar: Eng
Encoding: 330 330 324
Width: 800
VWidth: 1023
Flags: MW
AnchorPoint: "below" 392 -178 basechar 0
AnchorPoint: "cedilla" 392 -178 basechar 0
AnchorPoint: "above" 392 670 basechar 0
LayerCount: 3
Fore
SplineSet
597 14 m 2
 597 390 l 2
 597 450 597 579 430 579 c 0
 387 579 321 568 207 523 c 1
 207 0 l 1
 80 0 l 1
 80 694 l 1
 167 694 l 1
 188 632 l 1
 327 688 406 701 466 701 c 0
 617 701 701 615 717 500 c 0
 720 474 720 449 720 424 c 2
 720 3 l 2
 720 -137 629 -178 538 -178 c 0
 512 -178 472 -176 411 -161 c 2
 390 -156 l 1
 412 -58 l 1
 434 -62 l 2
 474 -69 499 -71 513 -71 c 0
 596 -71 597 -14 597 14 c 2
EndSplineSet
Validated: 1
EndChar

StartChar: Lslash
Encoding: 321 321 325
Width: 633
VWidth: 1023
Flags: MW
AnchorPoint: "aboveright" 476 670 basechar 0
AnchorPoint: "cedilla" 352 0 basechar 0
AnchorPoint: "above" 352 670 basechar 0
AnchorPoint: "below" 352 0 basechar 0
LayerCount: 3
Fore
SplineSet
142 694 m 1
 265 694 l 1
 265 438 l 1
 418 511 l 1
 418 381 l 1
 276 313 l 1
 276 113 l 1
 616 113 l 1
 616 0 l 1
 142 0 l 1
 142 242 l 1
 71 204 l 1
 71 327 l 1
 142 365 l 1
 142 694 l 1
EndSplineSet
Validated: 1
EndChar

StartChar: lslash
Encoding: 322 322 326
Width: 303
VWidth: 1023
Flags: HMW
AnchorPoint: "aboveright" 300 670 basechar 0
AnchorPoint: "cedilla" 186 0 basechar 0
AnchorPoint: "above" 130 670 basechar 0
AnchorPoint: "below" 186 0 basechar 0
LayerCount: 3
Fore
SplineSet
4.5 193.1 m 1
 4.5 312.1 l 1
 296.5 461.1 l 1
 296.5 341.1 l 1
 4.5 193.1 l 1
EndSplineSet
Refer: 10 108 N 1 0 0 1 0 0 2
EndChar

StartChar: kgreenlandic
Encoding: 312 312 327
Width: 578
VWidth: 0
Flags: MW
AnchorPoint: "cedilla" 440 0 basechar 0
AnchorPoint: "above" 302 482 basechar 0
AnchorPoint: "below" 302 0 basechar 0
LayerCount: 3
Fore
SplineSet
183 271 m 1
 406 482 l 1
 542 482 l 1
 311 256 l 1
 568 0 l 1
 417 0 l 1
 183 223 l 1
 183 0 l 1
 63 0 l 1
 63 482 l 1
 183 482 l 1
 183 271 l 1
EndSplineSet
Validated: 1
EndChar

StartChar: napostrophe
Encoding: 329 329 328
Width: 737
VWidth: 1023
Flags: MW
LayerCount: 3
Fore
SplineSet
170 482 m 1
 260 482 l 1
 274 449 l 1
 353 483 419 492 463 492 c 0
 627 492 649 383 649 285 c 2
 649 0 l 1
 529 0 l 1
 529 283 l 2
 529 317 524 380 421 380 c 0
 372 380 321 364 291 353 c 1
 291 0 l 1
 170 0 l 1
 170 482 l 1
34 694 m 1
 147 694 l 1
 147 442 l 1
 34 442 l 1
 34 694 l 1
EndSplineSet
Validated: 1
EndChar

StartChar: ogonek
Encoding: 731 731 329
Width: 529
VWidth: 0
Flags: MW
LayerCount: 3
Fore
SplineSet
205 -164 m 0
 205 -63 301 54 433 90 c 1
 453 95 l 1
 477 3 l 1
 459 -3 l 2
 364 -38 315 -108 315 -147 c 0
 315 -167 326 -181 347 -181 c 0
 358 -181 379 -177 417 -155 c 2
 435 -144 l 1
 476 -222 l 1
 462 -232 l 2
 441 -247 382 -286 323 -286 c 0
 252 -286 205 -233 205 -164 c 0
EndSplineSet
Validated: 1
EndChar

StartChar: hungarumlaut
Encoding: 733 733 330
Width: 806
VWidth: 1023
Flags: MW
LayerCount: 3
Fore
SplineSet
168 533 m 5
 106 623 l 5
 375 811 l 5
 433 729 l 5
 168 533 l 5
629 811 m 5
 691 721 l 5
 422 533 l 5
 365 615 l 5
 629 811 l 5
EndSplineSet
Validated: 1
EndChar

StartChar: uni02EE
Encoding: 750 750 331
Width: 407
VWidth: 1023
Flags: MW
LayerCount: 3
Fore
SplineSet
224 758 m 1
 354 758 l 1
 354 509 l 1
 224 509 l 1
 224 758 l 1
34 758 m 1
 164 758 l 1
 164 509 l 1
 34 509 l 1
 34 758 l 1
EndSplineSet
Validated: 1
EndChar

StartChar: uni0302
Encoding: 770 770 332
Width: 0
VWidth: 1023
Flags: MW
AnchorPoint: "above" 0 482 mark 0
LayerCount: 3
Fore
SplineSet
6 782 m 1
 160 612 l 1
 86 541 l 1
 -0 636 l 1
 -86 542 l 1
 -160 607 l 1
 6 782 l 1
EndSplineSet
Validated: 1
EndChar

StartChar: Tbar
Encoding: 358 358 333
Width: 670
VWidth: 1023
Flags: MW
AnchorPoint: "cedilla" 355 0 basechar 0
AnchorPoint: "above" 355 670 basechar 0
AnchorPoint: "below" 355 0 basechar 0
LayerCount: 3
Fore
SplineSet
42 694 m 1
 668 694 l 1
 668 581 l 1
 417 581 l 1
 417 388 l 1
 599 388 l 1
 599 274 l 1
 417 274 l 1
 417 0 l 1
 293 0 l 1
 293 274 l 1
 111 274 l 1
 111 388 l 1
 293 388 l 1
 293 581 l 1
 42 581 l 1
 42 694 l 1
EndSplineSet
Validated: 1
EndChar

StartChar: tbar
Encoding: 359 359 334
Width: 448
VWidth: 1023
Flags: MW
AnchorPoint: "aboveright" 329 670 basechar 0
AnchorPoint: "cedilla" 260 0 basechar 0
AnchorPoint: "above" 225 619 basechar 0
AnchorPoint: "below" 260 0 basechar 0
LayerCount: 3
Back
SplineSet
257.812 515.137 m 5xd0
 359.375 745.605 l 5
 508.301 745.605 l 5xc8
 402.344 515.137 l 5
 257.812 515.137 l 5xd0
99.1211 620.605 m 5
 234.375 620.605 l 5
 234.375 482.422 l 5
 406.25 482.422 l 5
 406.25 379.395 l 5
 234.375 379.395 l 5
 234.375 163.086 l 6
 234.375 133.789 237.793 92.7734 306.641 92.7734 c 4
 322.754 92.7734 330.078 93.75 389.648 102.539 c 5
 408.691 105.957 l 5
 427.734 13.6719 l 5
 409.18 8.78906 l 5
 349.121 -5.85938 305.176 -9.76562 276.855 -9.76562 c 4
 130.371 -9.76562 99.1211 69.3359 99.1211 154.785 c 6
 99.1211 379.395 l 5
 34.1797 379.395 l 5
 34.1797 482.422 l 5
 99.1211 482.422 l 5
 99.1211 620.605 l 5
EndSplineSet
Fore
SplineSet
409 9 m 2
 352 -6 317 -10 289 -10 c 0
 164 -10 99 36 99 157 c 2
 99 214 l 1
 34 214 l 1
 34 307 l 1
 99 307 l 1
 99 379 l 1
 34 379 l 1
 34 482 l 1
 99 482 l 1
 99 621 l 1
 234 621 l 1
 234 482 l 1
 406 482 l 1
 406 379 l 1
 234 379 l 1
 234 307 l 1
 406 307 l 1
 406 214 l 1
 234 214 l 1
 234 162 l 2
 234 134 246 93 318 93 c 0
 331 93 338 94 390 103 c 1
 409 106 l 1
 428 14 l 1
 409 9 l 2
EndSplineSet
Validated: 1
EndChar

StartChar: Hbar
Encoding: 294 294 335
Width: 861
VWidth: 1023
Flags: MW
AnchorPoint: "cedilla" 430 0 basechar 0
AnchorPoint: "above" 430 670 basechar 0
AnchorPoint: "below" 430 0 basechar 0
LayerCount: 3
Fore
SplineSet
636 694 m 1
 759 694 l 1
 759 625 l 1
 832 625 l 1
 832 523 l 1
 759 523 l 1
 759 0 l 1
 636 0 l 1
 636 301 l 1
 265 301 l 1
 265 0 l 1
 142 0 l 1
 142 523 l 1
 68 523 l 1
 68 625 l 1
 142 625 l 1
 142 694 l 1
 265 694 l 1
 265 621 l 1
 636 621 l 1
 636 694 l 1
636 415 m 1
 636 533 l 1
 265 533 l 1
 265 415 l 1
 636 415 l 1
EndSplineSet
Validated: 1
EndChar

StartChar: hbar
Encoding: 295 295 336
Width: 661
VWidth: 1023
Flags: MW
AnchorPoint: "cedilla" 339 0 basechar 0
AnchorPoint: "above" 339 670 basechar 0
AnchorPoint: "below" 339 0 basechar 0
LayerCount: 3
Back
SplineSet
276.855 56.1523 m 4xbe
 235.352 56.1523 198.242 69.8242 172.852 83.4961 c 5
 172.852 405.762 l 5
 196.777 416.504 235.84 429.199 277.832 429.199 c 4
 347.168 429.199 438.477 392.578 438.477 245.605 c 4
 438.477 91.7969 341.309 56.1523 276.855 56.1523 c 4xbe
516.602 232.91 m 4
 516.602 403.32 416.504 492.188 289.551 492.188 c 4
 242.676 492.188 205.078 480.469 172.852 466.309 c 5
 172.852 574.707 l 5
 303.711 574.707 l 5
 303.711 637.695 l 5
 172.852 637.695 l 5
 172.852 737.793 l 5
 92.7734 737.793 l 5
 92.7734 637.695 l 5
 26.8555 637.695 l 5
 26.8555 574.707 l 5
 92.7734 574.707 l 5
 92.7734 0 l 5
 148.438 0 l 5x7e
 161.621 30.2734 l 5
 210.449 1.46484 260.742 -9.76562 303.223 -9.76562 c 4
 398.926 -9.76562 516.602 49.8047 516.602 232.91 c 4
EndSplineSet
Fore
SplineSet
93 694 m 1
 213 694 l 1
 213 638 l 1
 398 638 l 1
 398 535 l 1
 213 535 l 1
 213 458 l 1
 255 474 316 491 378 491 c 0
 538 491 574 392 574 286 c 2
 574 0 l 1
 447 0 l 1
 447 284 l 2
 447 316 443 380 341 380 c 0
 316 380 273 375 213 353 c 1
 213 0 l 1
 93 0 l 1
 93 535 l 1
 27 535 l 1
 27 638 l 1
 93 638 l 1
 93 694 l 1
EndSplineSet
Validated: 1
EndChar

StartChar: dcroat
Encoding: 273 273 337
Width: 612
VWidth: 1023
Flags: MW
AnchorPoint: "cedilla" 286 0 basechar 0
AnchorPoint: "above" 286 670 basechar 0
AnchorPoint: "below" 286 0 basechar 0
LayerCount: 3
Back
SplineSet
303.223 56.1523 m 0xbe
 344.727 56.1523 381.836 69.8242 407.227 83.4961 c 1
 407.227 405.762 l 1
 383.301 416.504 344.238 429.199 302.246 429.199 c 0
 232.91 429.199 141.602 392.578 141.602 245.605 c 0
 141.602 91.7969 238.77 56.1523 303.223 56.1523 c 0xbe
63.4766 232.91 m 0
 63.4766 403.32 163.574 492.188 290.527 492.188 c 0
 337.402 492.188 375 480.469 407.227 466.309 c 1
 407.227 574.707 l 1
 276.367 574.707 l 1
 276.367 637.695 l 1
 407.227 637.695 l 1
 407.227 737.793 l 1
 487.305 737.793 l 1
 487.305 637.695 l 1
 560.547 637.695 l 1
 560.547 574.707 l 1
 487.305 574.707 l 1
 487.305 0 l 1
 431.641 0 l 1x7e
 418.457 30.2734 l 1
 369.629 1.46484 319.336 -9.76562 276.855 -9.76562 c 0
 181.152 -9.76562 63.4766 49.8047 63.4766 232.91 c 0
EndSplineSet
Fore
SplineSet
588 638 m 1
 588 535 l 1
 522 535 l 1
 522 0 l 1
 434 0 l 1
 424 22 l 1
 377 -1 327 -10 285 -10 c 0
 175 -10 45 50 45 233 c 0
 45 402 155 492 300 492 c 0
 339 492 372 486 402 476 c 1
 402 535 l 1
 252 535 l 1
 252 638 l 1
 402 638 l 1
 402 694 l 1
 522 694 l 1
 522 638 l 1
 588 638 l 1
313 96 m 0
 347 96 379 104 402 113 c 1
 402 375 l 1
 379 382 346 389 312 389 c 0
 253 389 164 367 164 245 c 0
 164 122 253 96 313 96 c 0
EndSplineSet
Validated: 1
EndChar

StartChar: Aogonek
Encoding: 260 260 340
Width: 795
VWidth: 0
Flags: MW
LayerCount: 3
Fore
SplineSet
63 0 m 1
 364 694 l 1
 487 694 l 1
 788 0 l 1
 759 0 l 1
 581 -4 564 -125 564 -129 c 1
 564 -142 572 -160 602 -160 c 0
 636 -160 676 -139 683 -135 c 2
 701 -124 l 1
 743 -202 l 1
 729 -212 l 2
 703 -232 643 -266 575 -266 c 0
 493 -266 432 -216 432 -146 c 0
 432 -64 530 24 631 58 c 1
 576 182 l 1
 267 182 l 1
 183 0 l 1
 63 0 l 1
528 294 m 1
 422 552 l 1
 313 294 l 1
 528 294 l 1
EndSplineSet
Validated: 1
EndChar

StartChar: aogonek
Encoding: 261 261 341
Width: 602
VWidth: 0
Flags: MW
AnchorPoint: "above" 246 482 basechar 0
LayerCount: 3
Fore
SplineSet
180 138 m 4
 180 112 215 97 277 97 c 0
 322 97 363 111 393 128 c 1
 393 198 l 5
 280 198 226 195 196 169 c 4
 186 161 180 149 180 138 c 4
272 379 m 0
 242 379 193 375 131 358 c 1
 112 353 l 1
 87 449 l 1
 104 455 l 1
 166 478 233 485 288 485 c 0
 475 485 514 403 514 309 c 2
 514 -14 l 1
 503 -20 l 1
 427 -59 346 -90 346 -136 c 0
 346 -155 362 -166 385 -166 c 0
 399 -166 418 -162 457 -141 c 2
 474 -132 l 1
 517 -206 l 1
 501 -216 l 2
 474 -234 418 -265 355 -265 c 0
 270 -265 210 -216 210 -152 c 0
 210 -78 288 -24 353 8 c 1
 321 -2 287 -8 250 -8 c 0
 138 -8 60 59 60 133 c 0
 60 181 93 254 209 277 c 1
 246 283 295 289 393 290 c 1
 393 301 l 2
 393 341 385 379 272 379 c 0
EndSplineSet
Validated: 1
EndChar

StartChar: Eogonek
Encoding: 280 280 342
Width: 706
VWidth: 0
Flags: MW
LayerCount: 3
Fore
SplineSet
142 694 m 1
 628 694 l 1
 628 581 l 1
 265 581 l 1
 265 414 l 1
 602 414 l 1
 602 301 l 1
 265 301 l 1
 265 113 l 1
 628 113 l 1
 628 23 l 1
 620 18 l 2
 536 -42 464 -79 464 -128 c 0
 464 -149 482 -160 503 -160 c 0
 528 -160 558 -144 573 -134 c 2
 591 -123 l 1
 633 -201 l 1
 619 -211 l 2
 594 -230 540 -265 475 -265 c 0
 392 -265 333 -217 333 -146 c 0
 333 -81 377 -34 422 0 c 1
 142 0 l 1
 142 694 l 1
EndSplineSet
Validated: 1
EndChar

StartChar: eogonek
Encoding: 281 281 343
Width: 618
VWidth: 0
Flags: MW
AnchorPoint: "above" 272 482 basechar 0
LayerCount: 3
Fore
SplineSet
63 219 m 0
 63 418 209 487 341 487 c 0
 546 487 555 337 555 234 c 2
 555 179 l 1
 186 179 l 1
 200 132 271 93 375 93 c 0
 406 93 448 97 488 109 c 2
 508 116 l 1
 532 22 l 1
 515 17 l 2
 420 -14 357 -92 357 -133 c 0
 357 -156 374 -167 396 -167 c 0
 410 -167 433 -163 472 -142 c 2
 490 -132 l 1
 532 -206 l 1
 517 -216 l 2
 487 -236 432 -266 367 -266 c 0
 282 -266 227 -215 227 -149 c 0
 227 -96 260 -48 300 -9 c 1
 147 4 63 79 63 219 c 0
320 377 m 0
 239 377 195 331 187 279 c 1
 437 279 l 1
 432 353 386 377 320 377 c 0
EndSplineSet
Validated: 1
EndChar

StartChar: Iogonek
Encoding: 302 302 344
Width: 396
VWidth: 0
Flags: MW
LayerCount: 3
Fore
SplineSet
15 -146 m 0
 15 -70 76 5 156 47 c 1
 156 694 l 1
 279 694 l 1
 279 22 l 1
 269 17 l 1
 142 -52 125 -106 125 -128 c 0
 125 -141 132 -161 158 -161 c 0
 168 -161 189 -157 227 -135 c 2
 245 -124 l 1
 287 -202 l 1
 272 -212 l 2
 243 -233 190 -266 134 -266 c 0
 67 -266 15 -218 15 -146 c 0
EndSplineSet
Validated: 1
EndChar

StartChar: iogonek
Encoding: 303 303 345
Width: 295
VWidth: 0
Flags: MW
LayerCount: 3
Fore
SplineSet
-60 -148 m 0
 -60 -66 8 14 88 58 c 1
 88 482 l 1
 208 482 l 1
 208 17 l 1
 195 12 l 1
 108 -19 50 -88 50 -132 c 0
 50 -152 62 -166 83 -166 c 0
 97 -166 117 -160 152 -140 c 2
 170 -130 l 1
 211 -206 l 1
 197 -216 l 1
 168 -237 115 -271 59 -271 c 0
 -10 -271 -60 -220 -60 -148 c 0
81 694 m 1
 215 694 l 1
 215 562 l 1
 81 562 l 1
 81 694 l 1
EndSplineSet
Validated: 1
EndChar

StartChar: Uogonek
Encoding: 370 370 346
Width: 851
VWidth: 0
Flags: MW
LayerCount: 3
Fore
SplineSet
141 243 m 0
 141 264 142 285 142 305 c 2
 142 694 l 1
 265 694 l 1
 265 254 l 2
 265 212 268 177 300 147 c 0
 314 134 355 102 445 102 c 0
 538 102 602 135 620 195 c 0
 625 213 626 233 626 254 c 2
 626 694 l 1
 749 694 l 1
 749 305 l 2
 749 286 750 267 750 247 c 0
 750 93 699 54 593 8 c 1
 473 -43 453 -106 453 -127 c 0
 453 -147 465 -161 489 -161 c 0
 514 -161 549 -145 565 -135 c 2
 586 -123 l 1
 633 -202 l 1
 618 -212 l 1
 588 -233 526 -266 460 -266 c 0
 380 -266 328 -217 328 -146 c 0
 328 -95 353 -46 388 -8 c 1
 154 11 141 165 141 243 c 0
EndSplineSet
Validated: 1
EndChar

StartChar: uogonek
Encoding: 371 371 347
Width: 656
VWidth: 0
Flags: MW
AnchorPoint: "above" 262 482 basechar 0
LayerCount: 3
Fore
SplineSet
210 482 m 1
 210 387 210 293 210 198 c 0
 210 171 212 102 318 102 c 0
 367 102 419 118 449 129 c 1
 449 482 l 1
 569 482 l 1
 569 -14 l 1
 558 -20 l 1
 489 -56 403 -89 403 -135 c 0
 403 -153 412 -165 440 -165 c 0
 470 -165 503 -147 513 -142 c 2
 530 -132 l 1
 573 -206 l 1
 558 -216 l 2
 507 -250 460 -265 414 -265 c 0
 325 -265 271 -214 271 -153 c 0
 271 -78 342 -23 437 20 c 1
 393 4 337 -10 280 -10 c 0
 251 -10 223 -6 198 3 c 0
 95 40 88 127 88 206 c 0
 88 214 90 222 90 226 c 2
 90 482 l 1
 210 482 l 1
EndSplineSet
Validated: 1
EndChar

StartChar: quotereversed
Encoding: 8219 8219 350
Width: 219
VWidth: 1023
Flags: MW
LayerCount: 3
Fore
SplineSet
154 758 m 1
 227 506 l 1
 90 506 l 1
 17 758 l 1
 154 758 l 1
EndSplineSet
Validated: 1
EndChar

StartChar: uni201F
Encoding: 8223 8223 351
Width: 405
VWidth: 1023
Flags: MW
LayerCount: 3
Fore
SplineSet
154 758 m 1
 227 506 l 1
 90 506 l 1
 17 758 l 1
 154 758 l 1
340 758 m 1
 413 506 l 1
 275 506 l 1
 203 758 l 1
 340 758 l 1
EndSplineSet
Validated: 1
EndChar

StartChar: exclamdbl
Encoding: 8252 8252 352
Width: 634
VWidth: 0
Flags: MW
LayerCount: 3
Fore
SplineSet
90 118 m 1
 228 118 l 1
 228 -20 l 1
 90 -20 l 1
 90 118 l 1
97 714 m 1
 220 714 l 1
 220 204 l 1
 97 204 l 1
 97 714 l 1
407 118 m 1
 545 118 l 1
 545 -20 l 1
 407 -20 l 1
 407 118 l 1
415 714 m 1
 538 714 l 1
 538 204 l 1
 415 204 l 1
 415 714 l 1
EndSplineSet
Validated: 1
EndChar

StartChar: uni204B
Encoding: 8267 8267 353
Width: 647
VWidth: 1023
Flags: MW
LayerCount: 3
Fore
SplineSet
92 758 m 1
 374 758 l 2
 451 758 624 753 624 553 c 0
 624 376 501 322 410 315 c 1
 410 -20 l 1
 290 -20 l 1
 290 645 l 1
 212 645 l 1
 212 -20 l 1
 92 -20 l 1
 92 758 l 1
EndSplineSet
Validated: 1
EndChar

StartChar: minute
Encoding: 8242 8242 354
Width: 197
VWidth: 0
Flags: MW
LayerCount: 3
Fore
SplineSet
34 758 m 1
 164 758 l 1
 164 509 l 1
 34 509 l 1
 34 758 l 1
EndSplineSet
Validated: 1
EndChar

StartChar: second
Encoding: 8243 8243 355
Width: 395
VWidth: 0
Flags: MW
LayerCount: 3
Fore
SplineSet
34 758 m 1
 164 758 l 1
 164 509 l 1
 34 509 l 1
 34 758 l 1
231 758 m 1
 362 758 l 1
 362 509 l 1
 231 509 l 1
 231 758 l 1
EndSplineSet
Validated: 1
EndChar

StartChar: uni2034
Encoding: 8244 8244 356
Width: 593
VWidth: 0
Flags: MW
LayerCount: 3
Fore
SplineSet
34 758 m 1
 164 758 l 1
 164 509 l 1
 34 509 l 1
 34 758 l 1
231 758 m 1
 362 758 l 1
 362 509 l 1
 231 509 l 1
 231 758 l 1
429 758 m 1
 560 758 l 1
 560 509 l 1
 429 509 l 1
 429 758 l 1
EndSplineSet
Validated: 1
EndChar

StartChar: uni2035
Encoding: 8245 8245 357
Width: 197
VWidth: 1023
Flags: MW
LayerCount: 3
Fore
SplineSet
11 758 m 1
 146 758 l 1
 187 506 l 1
 51 506 l 1
 11 758 l 1
EndSplineSet
Validated: 1
EndChar

StartChar: uni0191
Encoding: 401 401 358
Width: 689
VWidth: 1023
Flags: MW
AnchorPoint: "below" 213 -165 basechar 0
AnchorPoint: "above" 396 670 basechar 0
AnchorPoint: "cedilla" 62 -165 basechar 0
LayerCount: 3
Fore
SplineSet
-52 -153 m 1
 -32 -55 l 1
 -12 -60 l 2
 2 -64 32 -72 61 -72 c 0
 135 -72 153 -33 153 11 c 2
 153 694 l 1
 627 694 l 1
 627 581 l 1
 288 581 l 1
 288 414 l 1
 598 414 l 1
 598 301 l 1
 288 301 l 1
 288 8 l 2
 288 -123 201 -178 86 -178 c 0
 45 -178 5 -171 -35 -159 c 2
 -52 -153 l 1
EndSplineSet
Validated: 1
EndChar

StartChar: uni022C
Encoding: 556 556 359
Width: 903
VWidth: 0
Flags: MW
LayerCount: 3
Fore
SplineSet
263 1053 m 5
 700 1053 l 5
 700 950 l 5
 263 950 l 5
 263 1053 l 5
606 920 m 1
 707 905 l 1
 702 885 l 2
 690 830 679 729 573 729 c 1
 475 733 432 817 404 817 c 0
 385 817 380 780 373 744 c 2
 369 725 l 1
 268 739 l 1
 272 760 l 2
 284 815 295 916 401 916 c 1
 499 912 542 828 570 828 c 0
 589 828 595 869 602 901 c 2
 606 920 l 1
711 346 m 0
 711 518 580 588 467 588 c 2
 465 588 l 2
 355 588 231 519 231 355 c 0
 231 201 339 105 475 105 c 0
 587 105 711 176 711 346 c 0
472 701 m 0
 684 701 837 568 837 354 c 0
 837 139 688 -7 468 -7 c 0
 280 -7 105 109 105 345 c 0
 105 562 257 701 472 701 c 0
EndSplineSet
Validated: 1
EndChar

StartChar: uniFB00
Encoding: 64256 64256 382
Width: 863
VWidth: 0
Flags: MW
LayerCount: 3
Fore
SplineSet
127 511 m 2
 127 584 129 698 332 698 c 0
 360 698 401 696 460 678 c 2
 477 672 l 1
 457 575 l 1
 437 580 l 2
 423 583 393 591 364 591 c 0
 281 591 247 561 247 515 c 2
 247 482 l 1
 517 482 l 1
 517 511 l 2
 517 584 519 698 722 698 c 0
 750 698 791 696 850 678 c 2
 868 672 l 1
 848 575 l 1
 827 580 l 2
 813 583 784 591 755 591 c 0
 672 591 637 561 637 515 c 2
 637 482 l 1
 830 482 l 1
 830 379 l 1
 637 379 l 1
 637 0 l 1
 517 0 l 1
 517 379 l 1
 247 379 l 1
 247 0 l 1
 127 0 l 1
 127 379 l 1
 47 379 l 1
 47 482 l 1
 127 482 l 1
 127 511 l 2
EndSplineSet
Validated: 1
LCarets2: 1 0
Ligature2: "'liga' Standard Ligatures in Latin lookup 0-1" f f
EndChar

StartChar: uniFB01
Encoding: 64257 64257 383
Width: 703
VWidth: 0
Flags: MW
LayerCount: 3
Back
SplineSet
145.508 511.23 m 6
 145.508 583.984 147.461 697.754 350.586 697.754 c 4
 378.418 697.754 419.922 695.312 478.516 677.734 c 6
 496.094 672.363 l 5
 476.074 574.707 l 5
 455.566 579.59 l 6
 441.406 583.008 412.109 590.82 383.301 590.82 c 4
 300.293 590.82 265.625 560.547 265.625 514.648 c 6
 265.625 482.422 l 5
 458.496 482.422 l 5
 458.496 379.395 l 5
 265.625 379.395 l 5
 265.625 0 l 5
 145.508 0 l 5
 145.508 379.395 l 5
 65.918 379.395 l 5
 65.918 482.422 l 5
 145.508 482.422 l 5
 145.508 511.23 l 6
480.957 693.848 m 5x96
 615.723 693.848 l 5
 615.723 561.523 l 5
 480.957 561.523 l 5
 480.957 693.848 l 5x96
488.281 482.422 m 5xa5
 608.398 482.422 l 5
 608.398 0 l 5
 488.281 0 l 5
 488.281 482.422 l 5xa5
EndSplineSet
Fore
SplineSet
147 511 m 2
 147 584 174 709 377 709 c 1
 478 709 583 684 643 664 c 1
 632 550 l 1
 512 550 l 1
 512 585 l 1
 512 585 463 603 384 603 c 0
 301 603 267 561 267 515 c 2
 267 482 l 1
 509 482 l 1
 629 482 l 1
 629 0 l 1
 509 0 l 1
 509 379 l 1
 267 379 l 1
 267 0 l 1
 147 0 l 1
 147 379 l 1
 67 379 l 1
 67 482 l 1
 147 482 l 1
 147 511 l 2
EndSplineSet
Validated: 1
LCarets2: 1 0
Ligature2: "'liga' Standard Ligatures in Latin lookup 0-1" f i
EndChar

StartChar: uniFB02
Encoding: 64258 64258 384
Width: 735
VWidth: 0
Flags: MW
LayerCount: 3
Fore
SplineSet
110 511 m 2
 110 584 129 698 332 698 c 0
 446 698 585 671 585 594 c 6
 585 574 l 1
 585 163 l 2
 585 126 586 94 648 94 c 0
 667 94 683 98 705 105 c 1
 705 14 l 1
 688 8 672 -10 568 -10 c 0
 505 -10 464 37 464 105 c 2
 465 588 l 1
 430 594 399 597 364 597 c 0
 281 597 230 561 230 515 c 2
 230 482 l 1
 422 482 l 1
 422 379 l 1
 230 379 l 1
 230 0 l 1
 110 0 l 1
 110 379 l 1
 30 379 l 1
 30 482 l 1
 110 482 l 1
 110 511 l 2
EndSplineSet
Validated: 1
LCarets2: 1 0
Ligature2: "'liga' Standard Ligatures in Latin lookup 0-1" f l
EndChar

StartChar: uniFB03
Encoding: 64259 64259 385
Width: 956
VWidth: 0
Flags: MW
LayerCount: 3
Fore
SplineSet
225 379 m 1
 225 0 l 1
 105 0 l 1
 105 379 l 1
 25 379 l 1
 25 482 l 1
 105 482 l 1
 105 511 l 2
 105 584 108 698 302 698 c 0
 328 698 368 696 427 678 c 1
 444 672 l 1
 424 575 l 1
 404 580 l 2
 390 583 360 591 331 591 c 0
 256 591 225 561 225 515 c 2
 225 482 l 1
 448 482 l 1
 448 511 l 2
 448 584 475 709 678 709 c 1
 759 706 844 684 904 664 c 5
 892 550 l 5
 772 550 l 5
 773 585 l 5
 773 585 712 596 685 596 c 0
 602 596 568 561 568 515 c 2
 568 482 l 1
 767 482 l 5
 887 482 l 5
 887 0 l 5
 767 0 l 5
 767 379 l 5
 568 379 l 1
 568 0 l 1
 448 0 l 1
 448 379 l 1
 225 379 l 1
EndSplineSet
Validated: 1
LCarets2: 2 0 0
Ligature2: "'liga' Standard Ligatures in Latin lookup 0-1" f uniFB01
Ligature2: "'liga' Standard Ligatures in Latin lookup 0-1" uniFB00 i
Ligature2: "'liga' Standard Ligatures in Latin lookup 0-1" f f i
EndChar

StartChar: uniFB04
Encoding: 64260 64260 386
Width: 1122
VWidth: 0
Flags: MW
LayerCount: 3
Fore
SplineSet
497 511 m 2
 497 584 534 714 737 714 c 0
 851 714 971 648 971 576 c 6
 971 564 l 5
 971 163 l 2
 971 126 973 94 1035 94 c 0
 1054 94 1070 98 1092 105 c 1
 1092 14 l 1
 1075 8 1059 -10 955 -10 c 0
 892 -10 851 37 851 105 c 2
 852 588 l 1
 833 595 786 604 751 604 c 0
 668 604 617 580 617 515 c 2
 617 482 l 1
 809 482 l 1
 809 379 l 1
 617 379 l 1
 617 0 l 1
 497 0 l 1
 497 379 l 1
 428 379 l 1
 417 379 l 1
 247 379 l 1
 247 0 l 1
 127 0 l 1
 127 379 l 1
 47 379 l 1
 47 482 l 1
 127 482 l 1
 127 511 l 2
 127 584 130 698 324 698 c 0
 350 698 390 696 449 678 c 1
 466 672 l 1
 446 575 l 1
 426 580 l 2
 412 583 382 591 353 591 c 0
 278 591 247 561 247 515 c 2
 247 482 l 1
 417 482 l 1
 428 482 l 1
 497 482 l 1
 497 511 l 2
EndSplineSet
Validated: 1
LCarets2: 2 0 0
Ligature2: "'liga' Standard Ligatures in Latin lookup 0-1" f uniFB02
Ligature2: "'liga' Standard Ligatures in Latin lookup 0-1" uniFB00 l
Ligature2: "'liga' Standard Ligatures in Latin lookup 0-1" f f l
EndChar

StartChar: uni022D
Encoding: 557 557 387
Width: 671
VWidth: 0
Flags: MW
LayerCount: 3
Fore
SplineSet
464 710 m 1
 560 695 l 1
 556 675 l 1
 545 620 535 519 430 519 c 1
 327 523 280 607 251 607 c 0
 231 607 225 571 217 535 c 2
 213 516 l 1
 117 529 l 1
 121 550 l 2
 132 605 142 706 248 706 c 1
 351 702 398 617 427 617 c 0
 448 617 454 662 460 691 c 2
 464 710 l 1
123 839 m 5
 564 839 l 5
 564 736 l 5
 123 736 l 5
 123 839 l 5
339 492 m 0
 496 492 608 406 608 250 c 0
 608 89 499 -10 330 -10 c 0
 170 -10 63 82 63 236 c 0
 63 393 169 492 339 492 c 0
331 383 m 0
 259 383 182 340 182 249 c 0
 182 166 245 99 340 99 c 0
 423 99 490 152 490 236 c 0
 490 335 406 383 331 383 c 0
EndSplineSet
Validated: 1
EndChar

StartChar: H18533
Encoding: 9679 9679 388
Width: 680
VWidth: 0
Flags: MW
LayerCount: 3
Fore
SplineSet
107 327.4 m 0
 107 455.464 210.936 559.4 339 559.4 c 0
 467.064 559.4 571 455.464 571 327.4 c 0
 571 199.336 467.064 95.4004 339 95.4004 c 0
 210.936 95.4004 107 199.336 107 327.4 c 0
EndSplineSet
Validated: 1
EndChar

StartChar: uni2759
Encoding: 10073 10073 389
Width: 585
VWidth: 1023
Flags: MW
LayerCount: 3
Fore
SplineSet
354 621 m 1
 354 -1 l 1
 231 -1 l 1
 231 621 l 1
 354 621 l 1
EndSplineSet
Validated: 1
EndChar

StartChar: circle
Encoding: 9675 9675 390
Width: 859
VWidth: 1023
Flags: MW
LayerCount: 3
Fore
SplineSet
430 589 m 0
 396.601 589 363.169 582.527 330.428 569.43 c 0
 297.747 556.358 268.975 537.768 244.862 514.583 c 0
 220.948 491.589 202.405 463.902 188.298 431.927 c 0
 174.534 400.728 168 366.428 168 333 c 0
 168 299.589 174.481 266.393 188.298 235.073 c 0
 202.405 203.098 220.949 175.411 244.862 152.417 c 0
 268.975 129.232 297.747 110.642 330.428 97.5695 c 0
 363.169 84.473 396.601 78 430 78 c 0
 463.399 78 496.831 84.473 529.572 97.5695 c 0
 562.114 110.586 589.842 129.055 614.138 152.417 c 0
 638.052 175.411 656.596 203.098 670.702 235.073 c 0
 684.519 266.394 691 299.589 691 333 c 0
 691 366.427 684.466 400.728 670.702 431.927 c 0
 656.596 463.902 638.051 491.589 614.138 514.583 c 0
 589.842 537.945 562.114 556.413 529.572 569.43 c 0
 496.832 582.527 463.399 589 430 589 c 0
289.496 665.539 m 0
 333.457 683.332 380.018 694 428 694 c 0
 475.684 694 522.261 684.428 567.353 666.599 c 0
 612.592 648.713 652.926 623.292 686.916 590.365 c 0
 720.741 557.597 748.374 518.295 767.449 472.723 c 0
 786.41 427.422 796 380.685 796 333 c 0
 796 285.323 786.428 238.56 767.383 194.122 c 0
 748.416 149.867 721.901 110.557 687.916 77.6352 c 0
 654.091 44.8687 613.849 18.3879 568.353 0.400785 c 0
 523.358 -17.3885 477.697 -27 430 -27 c 0
 382.315 -27 335.74 -17.4266 290.647 0.400785 c 0
 245.039 18.4317 205.758 45.0135 172.084 77.6352 c 0
 138.261 110.401 110.692 149.614 91.6171 194.122 c 0
 72.572 238.56 63 285.324 63 333 c 0
 63 380.677 72.5723 427.44 91.6171 471.878 c 0
 110.533 516.015 136.949 556.296 171.084 589.365 c 0
 205.07 622.289 245.321 647.659 289.496 665.539 c 0
EndSplineSet
Validated: 1
EndChar

StartChar: uni232B
Encoding: 9003 9003 391
Width: 748
VWidth: 0
Flags: MW
LayerCount: 3
Fore
SplineSet
255 481 m 1
 616 481 l 2
 643 481 656 463 656 442 c 2
 656 40 l 2
 656 20 639 1 618 0 c 2
 255 0 l 1
 14 241 l 1
 255 481 l 1
295 361 m 1
 295 321 l 2
 294 310 298 299 306 291 c 2
 358 240 l 1
 306 190 l 2
 298 182 295 172 295 161 c 2
 295 120 l 1
 335 120 l 2
 346 120 356 124 364 132 c 2
 415 183 l 1
 467 132 l 2
 475 124 485 120 496 120 c 2
 536 120 l 1
 536 161 l 2
 536 172 533 182 525 190 c 2
 474 240 l 1
 526 291 l 2
 535 299 536 310 536 321 c 2
 536 361 l 1
 496 361 l 2
 486 361 479 358 468 349 c 2
 415 298 l 1
 364 349 l 2
 357 356 346 361 336 361 c 0
 335 361 l 2
 295 361 l 1
EndSplineSet
Validated: 33
EndChar

StartChar: uni2328
Encoding: 9000 9000 392
Width: 625
VWidth: 0
Flags: MW
LayerCount: 3
Fore
SplineSet
574 472 m 6
 51 472 l 6
 30 472 13 455 13 433 c 6
 13 42 l 6
 13 20 30 3 51 3 c 6
 574 3 l 6
 595 3 611 20 611 42 c 6
 611 433 l 6
 611 455 595 472 574 472 c 6
537 394 m 5
 537 316 l 5
 462 316 l 5
 462 394 l 5
 537 394 l 5
424 394 m 5
 424 316 l 5
 350 316 l 5
 350 394 l 5
 424 394 l 5
312 394 m 5
 312 316 l 5
 238 316 l 5
 238 394 l 5
 312 394 l 5
200 394 m 5
 200 316 l 5
 125 316 l 5
 125 394 l 5
 200 394 l 5
499 275 m 5
 499 197 l 5
 424 197 l 5
 424 275 l 5
 499 275 l 5
387 275 m 5
 387 197 l 5
 312 197 l 5
 312 275 l 5
 387 275 l 5
275 275 m 5
 275 197 l 5
 200 197 l 5
 200 275 l 5
 275 275 l 5
163 275 m 5
 163 197 l 5
 88 197 l 5
 88 275 l 5
 163 275 l 5
537 158 m 5
 537 80 l 5
 462 80 l 5
 462 158 l 5
 537 158 l 5
424 158 m 5
 424 80 l 5
 200 80 l 5
 200 158 l 5
 424 158 l 5
163 158 m 5
 163 80 l 5
 51 80 l 5
 51 158 l 5
 163 158 l 5
EndSplineSet
Validated: 9
EndChar

StartChar: uni25FE
Encoding: 9726 9726 393
Width: 680
VWidth: 0
Flags: MW
LayerCount: 3
Fore
SplineSet
578 99 m 1
 102 99 l 1
 102 575 l 1
 578 575 l 1
 578 99 l 1
EndSplineSet
Validated: 1
EndChar

StartChar: afii10017
Encoding: 1040 1040 394
Width: 681
Flags: MW
AnchorPoint: "cedilla" 340 0 basechar 0
AnchorPoint: "above" 340 670 basechar 0
AnchorPoint: "below" 340 0 basechar 0
LayerCount: 3
Fore
SplineSet
280 694 m 1
 401 694 l 1
 661 0 l 1
 534 0 l 1
 464 182 l 1
 209 182 l 1
 140 0 l 1
 20 0 l 1
 280 694 l 1
425 294 m 1
 337 552 l 1
 248 294 l 1
 425 294 l 1
EndSplineSet
Validated: 1
EndChar

StartChar: afii10018
Encoding: 1041 1041 395
Width: 621
Flags: MW
AnchorPoint: "below" 320 0 basechar 0
AnchorPoint: "above" 320 670 basechar 0
AnchorPoint: "cedilla" 320 0 basechar 0
LayerCount: 3
Back
SplineSet
203 113 m 5
 294 113 l 6
 383 113 465 124 465 209 c 4
 465 305 369 314 264 314 c 4
 243 314 224 312 203 311 c 5
 203 113 l 5
80 0 m 5
 80 694 l 5
 232.667 694 385.333 694 538 694 c 5
 538 581 l 5
 203 581 l 5
 203 424 l 5
 221 425 238 426 257 426 c 4
 407 426 591 406 591 195 c 4
 591 4 406 0 316 0 c 6
 80 0 l 5
EndSplineSet
Fore
SplineSet
80 0 m 1
 80 694 l 1
 519 694 l 1
 519 581 l 1
 203 581 l 1
 203 428 l 1
 247 428 l 2
 401 428 581 403 581 205 c 0
 581 14 386 0 296 0 c 2
 80 0 l 1
203 314 m 1
 203 113 l 1
 284 113 l 2
 373 113 455 124 455 209 c 0
 455 305 359 314 254 314 c 2
 203 314 l 1
EndSplineSet
Validated: 1
EndChar

StartChar: afii10020
Encoding: 1043 1043 397
Width: 548
Flags: MW
AnchorPoint: "below" 307 0 basechar 0
AnchorPoint: "above" 307 670 basechar 0
AnchorPoint: "cedilla" 139 0 basechar 0
LayerCount: 3
Back
SplineSet
203 0 m 5
 80 0 l 5
 80 694 l 5
 538 694 l 5
 538 581 l 5
 203 581 l 5
 203 0 l 5
EndSplineSet
Fore
SplineSet
203 581 m 1
 203 0 l 1
 80 0 l 1
 80 694 l 1
 528 694 l 1
 528 581 l 1
 203 581 l 1
EndSplineSet
Validated: 1
EndChar

StartChar: afii10021
Encoding: 1044 1044 398
Width: 779
Flags: MW
AnchorPoint: "below" 446 -160 basechar 0
AnchorPoint: "above" 446 670 basechar 0
AnchorPoint: "cedilla" 686 -160 basechar 0
LayerCount: 3
Back
SplineSet
264 694 m 5xb4
 650 694 l 5
 650 92 l 6xb8
 740 92 l 5
 740 -178 l 5
 633 -178 l 5xb4
 633 0 l 5
 117 0 l 5x74
 117 -178 l 5
 10 -178 l 5
 10 92 l 5
 113 92 l 5
 194 279 248 478 264 694 c 5xb4
527 114 m 5x78
 527 580 l 5
 384 580 l 5
 365 408 318 253 259 114 c 5
 527 114 l 5x78
EndSplineSet
Fore
SplineSet
30 -159 m 1
 30 112 l 1
 84 112 106 125 124 148 c 0
 159 192 152 282 152 372 c 2
 152 694 l 1
 668 694 l 1
 668 112 l 1
 749 112 l 1
 749 -159 l 1
 631 -159 l 1
 631 0 l 1
 148 0 l 1
 148 -159 l 1
 30 -159 l 1
270 311 m 2
 270 225 265 157 244 108 c 1
 550 108 l 1
 550 586 l 1
 270 586 l 1
 270 311 l 2
EndSplineSet
Validated: 33
EndChar

StartChar: afii10022
Encoding: 1045 1045 399
Width: 587
Flags: MW
AnchorPoint: "cedilla" 314 0 basechar 0
AnchorPoint: "above" 314 670 basechar 0
AnchorPoint: "below" 314 0 basechar 0
LayerCount: 3
Fore
SplineSet
80 0 m 1
 80 694 l 1
 532 694 l 1
 532 581 l 1
 203 581 l 1
 203 408 l 1
 496 408 l 1
 496 295 l 1
 203 295 l 1
 203 113 l 1
 532 113 l 1
 532 0 l 1
 80 0 l 1
EndSplineSet
Validated: 1
EndChar

StartChar: afii10024
Encoding: 1046 1046 400
Width: 903
VWidth: 1023
Flags: MW
AnchorPoint: "below" 453 0 basechar 0
AnchorPoint: "above" 453 670 basechar 0
AnchorPoint: "cedilla" 453 0 basechar 0
LayerCount: 3
Fore
SplineSet
513 0 m 1
 390 0 l 1
 390 336 l 1
 171 0 l 1
 12 0 l 1
 264 362 l 1
 29 694 l 1
 185 694 l 1
 390 376 l 1
 390 694 l 1
 513 694 l 1
 513 376 l 1
 718 694 l 1
 874 694 l 1
 639 362 l 1
 891 0 l 1
 732 0 l 1
 513 336 l 1
 513 0 l 1
EndSplineSet
Validated: 1
EndChar

StartChar: afii10025
Encoding: 1047 1047 401
Width: 680
VWidth: 1023
Flags: MW
AnchorPoint: "below" 328 0 basechar 0
AnchorPoint: "above" 328 670 basechar 0
AnchorPoint: "cedilla" 328 0 basechar 0
LayerCount: 3
Back
SplineSet
73.125 650 m 6xf0
 121.425 673 208.575 702 308.325 702 c 4
 465.825 702 571.875 629 571.875 527 c 4xf0
 571.875 466 541.425 413 491.025 381 c 5
 571.875 347 603.375 287 603.375 220 c 4
 603.375 75 473.175 -22 272.625 -22 c 4
 202.275 -22 129.825 -10 60.5254 17 c 6
 41.625 24 l 5
 79.4248 127 l 5
 98.3252 123 l 6
 187.575 101 235.875 95 273.675 95 c 4
 380.775 95 472.125 139 472.125 205 c 4xe8
 472.125 248 431.175 314 227.475 314 c 6
 150.825 314 l 5
 150.825 425 l 5
 227.475 425 l 6
 394.425 425 435.375 479 435.375 514 c 4
 435.375 556 380.775 587 295.725 587 c 4
 258.975 587 197.025 580 120.375 548 c 5
 100.425 540 l 5
 56.3252 642 l 5
 73.125 650 l 6xf0
EndSplineSet
Fore
SplineSet
317 590 m 0
 286 590 223 578 155 558 c 2
 136 552 l 1
 96 666 l 1
 116 671 l 2
 155 683 224 700 297 700 c 0
 524 700 581 597 581 517 c 0
 581 471 553 422 518 392 c 1
 591 362 631 294 631 218 c 0
 631 152 578 -10 316 -10 c 0
 228 -10 161 13 94 39 c 1
 76 45 l 1
 118 164 l 1
 137 156 l 1
 227 123 287 112 325 112 c 0
 384 112 508 115 508 212 c 0
 508 279 436 320 324 320 c 0
 313 320 301 318 215 314 c 1
 215 398 l 1
 317 400 445 400 445 503 c 0
 445 538 429 590 317 590 c 0
EndSplineSet
Validated: 1
EndChar

StartChar: afii10026
Encoding: 1048 1048 402
Width: 766
VWidth: 1023
Flags: MW
AnchorPoint: "below" 382 0 basechar 0
AnchorPoint: "above" 382 670 basechar 0
AnchorPoint: "cedilla" 624 0 basechar 0
LayerCount: 3
Fore
SplineSet
80 0 m 1
 80 694 l 1
 203 694 l 1
 203 160 l 1
 536 694 l 1
 686 694 l 1
 686 0 l 1
 563 0 l 1
 563 533 l 1
 228 0 l 1
 80 0 l 1
EndSplineSet
Validated: 1
EndChar

StartChar: afii10029
Encoding: 1051 1051 405
Width: 750
Flags: MW
AnchorPoint: "below" 330 0 basechar 0
AnchorPoint: "above" 430 670 basechar 0
AnchorPoint: "cedilla" 330 0 basechar 0
LayerCount: 3
Back
SplineSet
244 694 m 5
 630 694 l 5
 630 0 l 5
 507 0 l 5
 507 580 l 5
 364 580 l 5
 340 360 269 168 187 0 c 5
 50 0 l 5
 155 214 225 443 244 694 c 5
EndSplineSet
Fore
SplineSet
670 694 m 5
 670 0 l 5
 547 0 l 5
 547 581 l 5
 267 581 l 5
 267 311 l 6
 267 198 259 122 216 70 c 4
 178 23 109 -7 0 -7 c 5
 0 110 l 5
 49 113 94 120 116 148 c 4
 151 192 144 282 144 372 c 6
 144 694 l 5
 670 694 l 5
EndSplineSet
Validated: 33
EndChar

StartChar: afii10030
Encoding: 1052 1052 406
Width: 860
Flags: MW
AnchorPoint: "below" 430 0 basechar 0
AnchorPoint: "above" 430 670 basechar 0
AnchorPoint: "cedilla" 430 0 basechar 0
LayerCount: 3
Fore
SplineSet
80 694 m 1
 244 694 l 1
 431 314 l 1
 622 694 l 1
 780 694 l 1
 780 0 l 1
 657 0 l 1
 657 523 l 1
 481 178 l 1
 377 178 l 1
 203 523 l 1
 203 0 l 1
 80 0 l 1
 80 694 l 1
EndSplineSet
Validated: 1
EndChar

StartChar: afii10031
Encoding: 1053 1053 407
Width: 740
Flags: HMW
AnchorPoint: "cedilla" 370 0 basechar 0
AnchorPoint: "above" 370 670 basechar 0
AnchorPoint: "below" 370 0 basechar 0
LayerCount: 3
Fore
SplineSet
537 694 m 1
 660 694 l 1
 660 0 l 1
 537 0 l 1
 537 290 l 1
 203 290 l 1
 203 0 l 1
 80 0 l 1
 80 694 l 1
 203 694 l 1
 203 403 l 1
 537 403 l 1
 537 694 l 1
EndSplineSet
Validated: 1
EndChar

StartChar: afii10032
Encoding: 1054 1054 408
Width: 784
Flags: MW
AnchorPoint: "cedilla" 392 0 basechar 0
AnchorPoint: "above" 392 670 basechar 0
AnchorPoint: "below" 392 0 basechar 0
LayerCount: 3
Fore
SplineSet
393 701 m 4
 584 701 734 568 734 354 c 4
 734 139 587 -7 389 -7 c 4
 220 -7 50 109 50 345 c 4
 50 562 200 701 393 701 c 4
388 588 m 4
 285 588 176 518 176 355 c 4
 176 201 274 106 396 106 c 4
 497 106 608 176 608 346 c 4
 608 518 490 588 388 588 c 4
EndSplineSet
Validated: 1
EndChar

StartChar: afii10033
Encoding: 1055 1055 409
Width: 740
Flags: MW
AnchorPoint: "cedilla" 370 0 basechar 0
AnchorPoint: "above" 370 670 basechar 0
AnchorPoint: "below" 370 0 basechar 0
LayerCount: 3
Back
SplineSet
80 694 m 5
 273 694 467 694 660 694 c 5
 660 0 l 5
 537 0 l 5
 537 580 l 5
 203 580 l 5
 203 0 l 5
 80 0 l 5
 80 694 l 5
EndSplineSet
Fore
SplineSet
80 694 m 1
 660 694 l 1
 660 0 l 1
 537 0 l 1
 537 580 l 1
 203 580 l 1
 203 0 l 1
 80 0 l 1
 80 694 l 1
EndSplineSet
Validated: 1
EndChar

StartChar: afii10034
Encoding: 1056 1056 410
Width: 631
Flags: HMW
AnchorPoint: "cedilla" 141 0 basechar 0
AnchorPoint: "above" 310 670 basechar 0
AnchorPoint: "below" 310 0 basechar 0
LayerCount: 3
Fore
SplineSet
80 694 m 1
 306 694 l 2
 396 694 591 680 591 489 c 0
 591 291 407 268 257 268 c 0
 238 268 221 269 203 270 c 1
 203 0 l 1
 80 0 l 1
 80 694 l 1
203 581 m 1
 203 383 l 1
 224 382 243 380 264 380 c 0
 369 380 465 389 465 485 c 0
 465 570 383 581 294 581 c 2
 203 581 l 1
EndSplineSet
Validated: 1
EndChar

StartChar: afii10035
Encoding: 1057 1057 411
Width: 682
Flags: MW
AnchorPoint: "cedilla" 356 0 basechar 0
AnchorPoint: "above" 380 670 basechar 0
AnchorPoint: "below" 380 0 basechar 0
LayerCount: 3
Fore
SplineSet
419 699 m 0
 473 699 541 689 614 660 c 2
 632 653 l 1
 592 555 l 1
 573 562 l 2
 497 590 448 590 416 590 c 0
 266 590 176 479 176 347 c 0
 176 200 272 103 434 103 c 0
 478 103 531 114 584 135 c 2
 602 142 l 1
 642 43 l 1
 624 36 l 1
 551 5 476 -10 412 -10 c 0
 187 -10 50 149 50 346 c 0
 50 546 194 699 419 699 c 0
EndSplineSet
Validated: 1
EndChar

StartChar: afii10037
Encoding: 1059 1059 413
Width: 628
VWidth: 1023
Flags: MW
AnchorPoint: "below" 319 0 basechar 0
AnchorPoint: "above" 319 670 basechar 0
AnchorPoint: "cedilla" 167 0 basechar 0
LayerCount: 3
Fore
SplineSet
264 0 m 1
 133 0 l 1
 254 244 l 1
 25 694 l 1
 160 694 l 1
 322 376 l 1
 482 694 l 1
 615 694 l 1
 264 0 l 1
EndSplineSet
Validated: 1
EndChar

StartChar: afii10038
Encoding: 1060 1060 414
Width: 841
VWidth: 1023
Flags: MW
AnchorPoint: "below" 421 0 basechar 0
AnchorPoint: "above" 421 670 basechar 0
AnchorPoint: "cedilla" 421 0 basechar 0
LayerCount: 3
Back
SplineSet
154.609 538.202 m 0
 214.916 580.717 301.264 604.947 399.94 611.571 c 1
 399.94 695.8 l 1
 535.2 695.8 l 1
 535.2 611.365 l 1
 642.836 603.635 729.699 578.044 785.621 532.85 c 0
 841.342 483.698 869.885 420.932 869.885 348.356 c 0
 869.885 277.371 842.286 215.24 788.523 165.407 c 0
 734.794 118.871 645.133 92.8105 535.2 84.9023 c 1
 535.2 0 l 1
 399.94 0 l 1
 399.94 84.6973 l 1
 299.416 91.4961 215.26 115.81 154.815 158.542 c 0
 95.0469 206.411 64.7598 271.239 64.7598 348.356 c 0
 64.7598 425.727 94.9248 490.594 154.609 538.202 c 0
663.457 458.663 m 1
 624.443 486.92 580.238 504.285 535.055 511.152 c 1
 533.385 185.807 l 1
 580.037 192.535 622.813 209.314 662.52 237.372 c 1
 698.754 263.283 717.869 298.69 717.869 348.39 c 0
 717.869 397.1 699.139 432.382 663.457 458.663 c 1
396.984 186.368 m 1
 399.703 510.749 l 1
 356.556 503.96 315.162 487.467 274.122 459.544 c 0
 236.406 433.841 216.767 398.605 216.767 348.39 c 0
 216.767 298.852 236.171 263.668 273.75 237.542 c 0
 314.245 209.326 356.131 192.792 396.984 186.368 c 1
EndSplineSet
Fore
SplineSet
482 708 m 1
 482 668 l 1
 498 680 510 687 574 687 c 0
 702 687 800 580 800 389 c 0
 800 178 686 81 536 81 c 0
 517 81 500 81 482 83 c 1
 482 0 l 1
 359 0 l 1
 359 83 l 1
 341 81 324 81 305 81 c 0
 155 81 41 178 41 389 c 0
 41 580 139 687 267 687 c 0
 331 687 343 680 359 668 c 1
 359 708 l 1
 482 708 l 1
482 571 m 1
 482 196 l 1
 503 195 522 193 543 193 c 0
 648 193 674 279 674 375 c 0
 674 460 622 571 533 571 c 2
 482 571 l 1
359 571 m 1
 308 571 l 2
 219 571 167 460 167 375 c 0
 167 279 193 193 298 193 c 0
 319 193 338 195 359 196 c 1
 359 571 l 1
EndSplineSet
Validated: 1
EndChar

StartChar: afii10039
Encoding: 1061 1061 415
Width: 692
Flags: MW
AnchorPoint: "cedilla" 347 0 basechar 0
AnchorPoint: "above" 347 670 basechar 0
AnchorPoint: "below" 347 0 basechar 0
LayerCount: 3
Fore
SplineSet
346 463 m 1
 503 694 l 1
 642 694 l 1
 416 361 l 1
 662 0 l 1
 521 0 l 1
 346 258 l 1
 171 0 l 1
 30 0 l 1
 276 361 l 1
 50 694 l 1
 189 694 l 1
 346 463 l 1
EndSplineSet
Validated: 1
EndChar

StartChar: afii10040
Encoding: 1062 1062 416
Width: 761
Flags: MW
AnchorPoint: "below" 370 0 basechar 0
AnchorPoint: "above" 370 670 basechar 0
AnchorPoint: "cedilla" 370 0 basechar 0
LayerCount: 3
Back
SplineSet
643 -178 m 5xe8
 643 0 l 5xe8
 80 0 l 5
 80 694 l 5
 203 694 l 5
 203 114 l 5
 537 114 l 5
 537 694 l 5
 660 694 l 5
 660 92 l 5xf0
 750 92 l 5
 750 -178 l 5
 643 -178 l 5xe8
EndSplineSet
Fore
SplineSet
617 -178 m 1
 617 0 l 1
 80 0 l 1
 80 694 l 1
 203 694 l 1
 203 114 l 1
 527 114 l 1
 527 694 l 1
 650 694 l 1
 650 113 l 1
 731 113 l 1
 731 -178 l 1
 617 -178 l 1
EndSplineSet
Validated: 1
EndChar

StartChar: afii10041
Encoding: 1063 1063 417
Width: 740
VWidth: 1023
Flags: MW
AnchorPoint: "below" 368 0 basechar 0
AnchorPoint: "above" 368 670 basechar 0
AnchorPoint: "cedilla" 599 0 basechar 0
LayerCount: 3
Fore
SplineSet
80 400 m 2
 80 694 l 1
 203 694 l 1
 203 405 l 2
 202 351 286 301 342 301 c 0
 398 301 478 335 537 405 c 1
 537 694 l 1
 660 694 l 1
 660 0 l 1
 537 0 l 1
 537 291 l 1
 470 211 398 175 304 177 c 0
 192 179 80 287 80 400 c 2
EndSplineSet
Validated: 33
EndChar

StartChar: afii10042
Encoding: 1064 1064 418
Width: 973
Flags: MW
AnchorPoint: "below" 498 0 basechar 0
AnchorPoint: "above" 498 670 basechar 0
AnchorPoint: "cedilla" 498 0 basechar 0
LayerCount: 3
Back
SplineSet
436 114 m 5
 436 694 l 5
 560 694 l 5
 560 114 l 5
 793 114 l 5
 793 694 l 5
 916 694 l 5
 916 0 l 5
 80 0 l 5
 80 694 l 5
 203 694 l 5
 203 490.247 203 306.092 203 114 c 5
 436 114 l 5
EndSplineSet
Fore
SplineSet
893 694 m 1
 893 0 l 1
 80 0 l 1
 80 694 l 1
 200 694 l 1
 200 111 l 1
 423 111 l 1
 423 694 l 1
 543 694 l 1
 543 111 l 1
 773 111 l 1
 773 694 l 1
 893 694 l 1
EndSplineSet
Validated: 1
EndChar

StartChar: afii10043
Encoding: 1065 1065 419
Width: 1004
Flags: MW
AnchorPoint: "cedilla" 498 0 basechar 0
AnchorPoint: "above" 498 670 basechar 0
AnchorPoint: "below" 498 0 basechar 0
LayerCount: 3
Back
SplineSet
436 114 m 5xf4
 436 694 l 5
 560 694 l 5
 560 114 l 5
 793 114 l 5
 793 694 l 5
 916 694 l 5
 916 92 l 5xf8
 1006 92 l 5
 1006 -178 l 5
 899 -178 l 5
 899 0 l 5
 80 0 l 5
 80 694 l 5
 203 694 l 5
 203 114 l 5
 436 114 l 5xf4
EndSplineSet
Fore
SplineSet
860 -178 m 1
 860 0 l 1
 80 0 l 1
 80 694 l 1
 200 694 l 1
 200 111 l 1
 423 111 l 1
 423 694 l 1
 543 694 l 1
 543 111 l 1
 773 111 l 1
 773 694 l 1
 893 694 l 1
 893 113 l 1
 974 113 l 1
 974 -178 l 1
 860 -178 l 1
EndSplineSet
Validated: 1
EndChar

StartChar: afii10044
Encoding: 1066 1066 420
Width: 729
Flags: MW
AnchorPoint: "below" 400 0 basechar 0
AnchorPoint: "above" 400 670 basechar 0
AnchorPoint: "cedilla" 400 0 basechar 0
LayerCount: 3
Back
SplineSet
328 113 m 5
 419 113 l 6
 508 113 590 124 590 209 c 4
 590 305 494 314 389 314 c 4
 368 314 349 312 328 311 c 5
 328 113 l 5
205 0 m 5
 205 581 l 5
 27 581 l 5
 27 694 l 5
 328 694 l 5
 328 424 l 5
 346 425 363 426 382 426 c 4
 532 426 716 406 716 195 c 4
 716 4 531 0 441 0 c 6
 205 0 l 5
EndSplineSet
Fore
SplineSet
10 581 m 1
 10 694 l 1
 311 694 l 1
 311 428 l 1
 355 428 l 2
 509 428 689 403 689 205 c 0
 689 14 494 0 404 0 c 2
 188 0 l 1
 188 581 l 1
 10 581 l 1
311 314 m 1
 311 113 l 1
 392 113 l 2
 481 113 563 124 563 209 c 0
 563 305 467 314 362 314 c 2
 311 314 l 1
EndSplineSet
Validated: 1
EndChar

StartChar: afii10045
Encoding: 1067 1067 421
Width: 841
Flags: MW
AnchorPoint: "below" 430 0 basechar 0
AnchorPoint: "above" 430 670 basechar 0
AnchorPoint: "cedilla" 430 0 basechar 0
LayerCount: 3
Back
SplineSet
80 0 m 5
 80 694 l 5
 203 694 l 5
 203 424 l 5
 221 425 228 426 247 426 c 4
 397 426 561 406 561 195 c 4
 561 4 396 0 306 0 c 6
 80 0 l 5
203 113 m 5
 284 113 l 6
 373 113 435 124 435 209 c 4
 435 305 359 314 254 314 c 4
 233 314 224 312 203 311 c 5
 203 113 l 5
648 694 m 5
 771 694 l 5
 771 0 l 5
 648 0 l 5
 648 694 l 5
EndSplineSet
Fore
SplineSet
638 694 m 1
 761 694 l 1
 761 0 l 1
 638 0 l 1
 638 694 l 1
276 0 m 2
 80 0 l 1
 80 694 l 1
 203 694 l 1
 203 428 l 1
 227 428 l 2
 381 428 561 403 561 205 c 0
 561 14 366 0 276 0 c 2
203 314 m 1
 203 113 l 1
 264 113 l 2
 353 113 435 124 435 209 c 0
 435 305 339 314 234 314 c 2
 203 314 l 1
EndSplineSet
Validated: 1
EndChar

StartChar: afii10046
Encoding: 1068 1068 422
Width: 621
Flags: MW
AnchorPoint: "below" 320 0 basechar 0
AnchorPoint: "above" 320 670 basechar 0
AnchorPoint: "cedilla" 320 0 basechar 0
LayerCount: 3
Back
SplineSet
80 0 m 5
 80 694 l 5
 203 694 l 5
 203 424 l 5
 221 425 238 426 257 426 c 4
 407 426 591 406 591 195 c 4
 591 4 406 0 316 0 c 6
 80 0 l 5
203 113 m 5
 294 113 l 6
 383 113 465 124 465 209 c 4
 465 305 369 314 264 314 c 4
 243 314 224 312 203 311 c 5
 203 113 l 5
337.955 432.45 m 1
 594.497 432.45 659.3 336.661 659.3 222.157 c 0
 659.3 160.929 633.893 107.623 585.039 65.6367 c 1
 533.743 23.0186 472.719 0 364.681 0 c 0
 91.2998 0 l 1
 91.2998 693.9 l 1
 227.92 694.437 l 1
 226.742 431.307 l 1
 337.955 432.45 l 1
522.782 227 m 0
 522.782 285.154 495.032 333.934 340.604 333.45 c 2
 226.638 333.093 l 1
 226.638 123 l 1
 377.66 123 l 0
 475.653 123 522.782 166.844 522.782 227 c 0
EndSplineSet
Fore
SplineSet
296 0 m 2
 80 0 l 1
 80 694 l 1
 203 694 l 1
 203 428 l 1
 247 428 l 2
 401 428 581 403 581 205 c 0
 581 14 386 0 296 0 c 2
203 314 m 1
 203 113 l 1
 284 113 l 2
 373 113 455 124 455 209 c 0
 455 305 359 314 254 314 c 2
 203 314 l 1
EndSplineSet
Validated: 1
EndChar

StartChar: afii10047
Encoding: 1069 1069 423
Width: 702
VWidth: 1023
Flags: MW
AnchorPoint: "below" 338 0 basechar 0
AnchorPoint: "above" 338 670 basechar 0
AnchorPoint: "cedilla" 338 0 basechar 0
LayerCount: 3
Back
SplineSet
95.9424 671.57 m 0
 162.044 697.815 235.631 711.075 312.981 711.075 c 0
 397.63 711.075 475.333 694.83 540.285 663.414 c 1
 607.655 630.982 651.796 588.087 682.485 533.409 c 1
 713.233 478.919 728.478 417.695 728.478 350.959 c 0
 728.478 311.486 723.135 273.609 712.371 237.627 c 1
 701.596 201.278 685.324 167.553 663.555 136.731 c 1
 642.427 107.138 616.731 81.0527 583.381 58.2119 c 1
 548.429 35.4414 508.964 18.2041 464.107 5.77441 c 1
 418.851 -7.30078 370.892 -13.6396 319.645 -13.6396 c 0
 237.071 -13.6396 158.025 2.05762 85.9971 32.9775 c 0
 63.3799 42.6855 l 1
 107.769 150.728 l 1
 130.235 142.704 l 0
 182.77 123.941 239.93 114.76 295.211 114.76 c 0
 341.972 114.76 383.351 120.769 419.11 132.172 c 1
 456.164 144.143 486.634 160.327 511.532 180.91 c 0
 536.469 201.545 555.898 225.526 570.412 254.097 c 1
 574.134 261.575 577.998 270.777 580.695 278.39 c 1
 260.215 278.39 l 1
 260.215 412.18 l 1
 584.126 412.18 l 1
 580.567 424.805 577.377 433.097 571.691 444.742 c 1
 558.647 471.833 540.198 496.399 516.721 517.662 c 1
 493.634 538.783 465.316 555.291 430.456 567.562 c 1
 396.413 579.92 359.209 586.095 316.869 586.095 c 0
 266.463 586.095 205.317 575.598 139.854 553.683 c 0
 116.742 545.628 l 1
 73.1992 662.541 l 1
 95.9424 671.57 l 0
EndSplineSet
Fore
SplineSet
290 -10 m 0
 236 -10 168 0 95 29 c 2
 77 36 l 1
 115 142 l 1
 134 135 l 1
 211 108 261 104 293 104 c 0
 412 104 495 176 524 268 c 1
 187 268 l 1
 187 375 l 1
 533 375 l 1
 518 490 423 583 275 583 c 0
 231 583 179 573 125 554 c 2
 107 548 l 1
 67 646 l 1
 85 653 l 1
 158 684 233 699 297 699 c 0
 522 699 659 540 659 343 c 0
 659 143 515 -10 290 -10 c 0
EndSplineSet
Validated: 1
EndChar

StartChar: afii10048
Encoding: 1070 1070 424
Width: 1012
VWidth: 1023
Flags: MW
AnchorPoint: "below" 478 0 basechar 0
AnchorPoint: "above" 478 670 basechar 0
AnchorPoint: "cedilla" 478 0 basechar 0
LayerCount: 3
Fore
SplineSet
616 588 m 0
 513 588 404 518 404 355 c 0
 404 201 502 105 624 105 c 0
 725 105 836 176 836 346 c 0
 836 518 718 588 616 588 c 0
621 701 m 0
 812 701 962 568 962 354 c 0
 962 139 815 -7 617 -7 c 0
 459 -7 300 95 280 301 c 1
 203 301 l 1
 203 0 l 1
 80 0 l 1
 80 694 l 1
 203 694 l 1
 203 415 l 1
 284 415 l 1
 313 591 449 701 621 701 c 0
EndSplineSet
Validated: 1
EndChar

StartChar: afii10049
Encoding: 1071 1071 425
Width: 654
VWidth: 1023
Flags: MW
AnchorPoint: "below" 338 0 basechar 0
AnchorPoint: "above" 338 670 basechar 0
AnchorPoint: "cedilla" 338 0 basechar 0
LayerCount: 3
Back
SplineSet
33.585 495 m 0
 33.585 410 72.585 324 183.185 290 c 1
 -21.8154 0 l 1
 138.185 0 l 5
 313.685 269 l 1
 418.984 269 l 1
 418.984 0 l 1
 541.984 0 l 1
 541.984 694 l 1
 264.185 694 l 2
 188.585 694 33.585 681 33.585 495 c 0
418.984 581 m 1
 418.984 382 l 1
 317.285 382 l 2
 238.984 382 161.585 394 161.585 484 c 0
 161.585 549 206.585 581 296.585 581 c 2
 418.984 581 l 1
EndSplineSet
Fore
SplineSet
65 495 m 0
 65 681 220 694 296 694 c 2
 574 694 l 1
 574 0 l 1
 451 0 l 1
 451 269 l 1
 346 269 l 1
 301 166 247 71 170 0 c 1
 10 0 l 1
 95 92 184 183 215 290 c 1
 104 324 65 410 65 495 c 0
451 581 m 1
 328 581 l 2
 238 581 193 549 193 484 c 0
 193 394 271 382 349 382 c 2
 451 382 l 1
 451 581 l 1
EndSplineSet
Validated: 1
EndChar

StartChar: afii10066
Encoding: 1073 1073 427
Width: 596
VWidth: 2048
Flags: MW
AnchorPoint: "below" 292 0 basechar 0
AnchorPoint: "above" 292 670 basechar 0
AnchorPoint: "cedilla" 292 0 basechar 0
LayerCount: 3
Fore
SplineSet
479 710 m 0
 504 711 l 1
 504 567 l 1
 478 569 l 0
 426 573 354 569 320 559 c 0
 283 551 239 532 220 511 c 0
 207 496 199 487 191 468 c 1
 190 466 190 466 190 465 c 1
 215 477 239 484 265 488 c 0
 325 496 389 484 442 449 c 0
 480 424 509 389 526 350 c 0
 544 310 549 269 547 228 c 0
 546 193 537 157 522 125 c 0
 507 91 482 60 451 38 c 0
 402 2 341 -13 284 -10 c 0
 246 -9 212 -1 178 17 c 1
 144 34 114 59 93 89 c 0
 64 131 53 178 48 223 c 1
 42 280 44 338 49 393 c 0
 53 448 62 495 97 546 c 0
 127 594 173 629 220 653 c 0
 262 675 307 687 352 695 c 0
 393 703 435 709 479 710 c 0
330 390 m 0
 308 399 284 403 242 396 c 1
 215 390 191 374 174 354 c 1
 173 323 173 293 173 263 c 1
 174 225 175 194 186 165 c 0
 195 141 211 118 232 103 c 0
 252 88 278 80 302 81 c 0
 335 82 368 100 386 127 c 0
 403 152 410 186 412 222 c 0
 414 256 411 290 400 318 c 0
 386 351 360 377 330 390 c 0
EndSplineSet
Validated: 33
EndChar

StartChar: afii10067
Encoding: 1074 1074 428
Width: 524
VWidth: 820
Flags: HMW
AnchorPoint: "below" 255 0 basechar 0
AnchorPoint: "above" 255 482 basechar 0
AnchorPoint: "cedilla" 255 0 basechar 0
LayerCount: 3
Back
SplineSet
256.815 266 m 2xf8
 331.857 266.371 374.293 303.598 374.293 334 c 0
 374.293 363.529 350.216 391.512 271.614 387.995 c 0
 188.052 384.257 185.304 339.014 184 302.193 c 2
 184 266 l 1
 256.815 266 l 2xf8
390.182 157.31 m 0xf4
 387.974 206.158 322.836 212.41 256.506 212 c 2
 184.173 212 l 1
 184.173 137.535 l 1
 186.731 136.107 l 0
 209.432 122.98 242.485 99.499 291.309 99 c 0
 336.658 98.5361 391.806 121.412 390.182 157.31 c 0xf4
150.524 0.124023 m 1
 60.1729 0.124023 l 1
 60.1729 20.4766 l 0
 59.7832 139.197 60.1729 174.871 60.1729 318.069 c 0
 60.1729 476.075 213.679 487.584 288.938 488 c 0
 378.643 488.496 497.873 455.418 497.873 353.236 c 0xf8
 497.873 303.251 466.709 270.904 440.198 254.115 c 0
 432.931 249.513 l 1
 440.425 245.307 l 0
 475.014 225.896 511.276 196.774 511.872 134.861 c 0
 512.646 54.4346 422.592 -4.98926 312.417 -5.99805 c 0
 244.69 -6.6416 194.434 13.5605 168.17 29.1982 c 1
 162.873 32.3369 l 1
 150.524 0.124023 l 1
66.291 694 m 5x7c
 186.291 694 l 5
 186.291 471 l 5
 219.591 484 258.291 492 301.49 492 c 4
 406.791 492 541.891 436 541.891 247 c 4
 541.891 86 436.891 -10 287.091 -10 c 4xbc
 238.49 -10 194.391 2 161.291 16 c 5
 155.291 0 l 5
 66.291 0 l 5
 66.291 694 l 5x7c
272.69 386 m 4
 246.591 386 217.791 382 186.291 370 c 5
 186.291 107 l 5
 208.791 100 240.291 93 274.49 93 c 4
 334.791 93 423.891 118 423.891 234 c 4
 423.891 362 332.99 386 272.69 386 c 4
EndSplineSet
Refer: 426 1072 N 1 0 0 1 0 0 2
Fore
SplineSet
254 379 m 2
 183 379 l 1
 183 289 l 1
 273 289 l 2
 317 289 337 300 337 331 c 0
 337 355 332 379 254 379 c 2
259 207 m 0
 251 207 243 206 183 203 c 1
 183 102 l 1
 262 102 l 2
 304 102 352 111 352 157 c 0
 352 187 321 207 259 207 c 0
63 481 m 1
 272 481 l 2
 414 481 455 403 454 362 c 0
 453 314 432 276 395 265 c 1
 446 244 475 206 475 153 c 0
 475 81 447 0 264 0 c 2
 63 0 l 1
 63 481 l 1
EndSplineSet
EndChar

StartChar: afii10068
Encoding: 1075 1075 429
Width: 385
VWidth: 1023
Flags: MW
AnchorPoint: "below" 225 0 basechar 0
AnchorPoint: "above" 225 482 basechar 0
AnchorPoint: "cedilla" 123 0 basechar 0
LayerCount: 3
Fore
SplineSet
372 377 m 1
 183 377 l 1
 183 0 l 1
 63 0 l 1
 63 482 l 1
 372 482 l 1
 372 377 l 1
EndSplineSet
Validated: 1
EndChar

StartChar: afii10069
Encoding: 1076 1076 430
Width: 587
VWidth: 1023
Flags: MW
AnchorPoint: "below" 345 -121 basechar 0
AnchorPoint: "above" 345 482 basechar 0
AnchorPoint: "cedilla" 535 -121 basechar 0
LayerCount: 3
Back
SplineSet
44.9072 233 m 4xbc
 44.9072 402 154.907 492 299.807 492 c 4
 338.507 492 372.707 486 402.407 476 c 5
 402.407 693 l 5
 522.407 693 l 5
 522.407 0 l 5
 434.407 0 l 5x7c
 424.407 22 l 5
 377.207 -1 327.707 -10 285.407 -10 c 4
 175.606 -10 44.9072 50 44.9072 233 c 4xbc
313.307 96 m 4xbc
 347.507 96 379.007 104 402.407 113 c 5
 402.407 375 l 5
 379.007 382 346.606 389 312.407 389 c 4
 253.907 389 163.907 367 163.907 245 c 4
 163.907 122 253.007 96 313.307 96 c 4xbc
164.14 1.85449 m 1xe8
 164.14 -129.455 l 2
 164.14 -135.272 162.794 -142.056 159.108 -148.196 c 0
 153.493 -157.558 145.363 -161.083 139.691 -162.975 c 0
 134.671 -164.647 129.615 -165.659 124.062 -166.453 c 0
 118.494 -167.25 113.087 -167.686 107.78 -167.686 c 0
 99.8281 -167.686 92.9629 -167.363 86.6035 -166.454 c 0
 81.0352 -165.658 76 -164.65 70.9619 -162.972 c 0
 65.3154 -161.089 58.5254 -157.89 52.9766 -150.95 c 0
 47.9736 -144.695 45.54 -136.586 45.54 -129.455 c 0
 45.54 77.8145 l 0
 45.54 87.9922 45.333 101.193 57.0244 112.885 c 0
 68.0322 123.896 80.8613 124.375 90.6299 124.375 c 0
 111.88 124.375 l 1
 121.613 135.585 129.48 146.25 137.841 159.41 c 0
 147.855 175.172 157.635 195.721 166.907 220.874 c 0
 177.171 245.871 186.771 276.629 195.505 312.943 c 0
 204.266 349.368 212.237 392.527 219.694 444.333 c 1
 220.787 450.208 222.068 454.525 224.154 459.533 c 0
 226.526 466.068 230.137 472.896 236.942 478.901 c 0
 241.931 483.3 247.706 486.684 253.726 489.201 c 0
 261.817 492.583 270.321 493.814 278.359 493.814 c 0
 571.623 493.814 l 0
 586.806 493.814 601.416 488.987 611.399 478.302 c 0
 622.088 468.293 625.252 455.359 625.25 443.369 c 0
 625.25 124.375 l 1xf0
 664.93 124.375 l 0
 674.744 124.375 686.679 123.103 697.04 113.837 c 0
 709.789 102.424 710.019 88.209 710.02 77.8145 c 0
 710.02 -129.455 l 0
 710.02 -135.283 708.685 -142.025 704.988 -148.196 c 0
 699.373 -157.558 691.24 -161.084 685.573 -162.974 c 0
 680.304 -164.729 675.092 -165.702 669.219 -166.485 c 0
 662.876 -167.332 656.128 -167.686 648.76 -167.686 c 0
 643.001 -167.686 637.264 -167.272 631.622 -166.436 c 0
 626.209 -165.633 621.268 -164.61 616.35 -162.972 c 0
 610.695 -161.085 603.927 -157.899 598.36 -150.943 c 0
 593.368 -144.696 590.93 -136.595 590.93 -129.455 c 0
 590.93 1.85449 l 1
 164.14 1.85449 l 1xe8
487.187 124.375 m 1
 487.187 381.095 l 1
 347.1 381.095 l 1
 338.103 331.115 330.77 295.656 324.414 272.192 c 1
 315.484 239.771 305.645 211.326 295.294 188.398 c 1
 285.276 165.638 273.928 145.911 261.25 129.906 c 1
 260 128.281 258.103 125.883 256.896 124.375 c 1
 487.187 124.375 l 1
EndSplineSet
Fore
SplineSet
180 482 m 1
 509 482 l 1
 509 84 l 1
 587 84 l 1
 587 -135 l 1
 482 -135 l 1
 482 0 l 1
 105 0 l 1
 105 -135 l 1
 0 -135 l 1
 0 84 l 1
 97 84 l 1
 148 210 182 341 180 482 c 1
389 105 m 1
 389 377 l 1
 300 377 l 1
 291 287 274 196 235 105 c 1
 389 105 l 1
EndSplineSet
Validated: 33
EndChar

StartChar: afii10072
Encoding: 1078 1078 432
Width: 786
VWidth: 1023
Flags: MW
AnchorPoint: "below" 392 0 basechar 0
AnchorPoint: "above" 392 482 basechar 0
AnchorPoint: "cedilla" 392 0 basechar 0
LayerCount: 3
Fore
SplineSet
453 0 m 1
 333 0 l 1
 333 240 l 1
 171 0 l 1
 23 0 l 1
 219 271 l 1
 31 482 l 1
 175 482 l 1
 333 289 l 1
 333 482 l 1
 453 482 l 1
 453 289 l 1
 611 482 l 1
 755 482 l 1
 567 271 l 1
 763 0 l 1
 615 0 l 1
 453 240 l 1
 453 0 l 1
EndSplineSet
Validated: 1
EndChar

StartChar: afii10073
Encoding: 1079 1079 433
Width: 502
VWidth: 819
Flags: MW
AnchorPoint: "below" 253 0 basechar 0
AnchorPoint: "above" 253 482 basechar 0
AnchorPoint: "cedilla" 253 0 basechar 0
LayerCount: 3
Back
SplineSet
97.8682 471.61 m 0
 142.841 485.341 186.209 491.761 239.613 492.298 c 0
 408.98 493.875 498.637 430.713 498.278 345.207 c 1
 498.001 309.56 480.644 274.201 454.593 250.454 c 1
 490.185 228.817 518.938 195.717 518.938 143.346 c 0
 518.938 83.083 470.944 44.8633 435.495 22.7471 c 1
 399.915 0.731445 334.605 -10.4199 263.063 -10.4199 c 0
 177.757 -10.4199 136.614 4.71191 86.1768 24.6514 c 0
 65 33.0234 l 1
 98.4863 148.058 l 1
 123.703 138.655 l 0
 180.084 117.631 235.467 107.89 272.654 107.89 c 0
 343.766 107.89 376.505 121.622 376.505 147.205 c 0
 376.505 173.163 354.903 180.19 262.902 180.19 c 1
 143.968 181.186 l 1
 143.969 289.996 l 1
 256.84 288.98 l 1
 285.268 288.98 307.62 292.056 322.581 296.669 c 0
 344.612 303.461 355.912 313.271 355.912 332.416 c 1
 356.693 354.605 326.872 373.93 246.437 373.93 c 0
 210.162 373.93 170.572 368.43 131.374 356.828 c 0
 107.173 349.665 l 1
 74.3857 464.441 l 1
 97.8682 471.61 l 0
EndSplineSet
Fore
SplineSet
236 388 m 0
 215 388 170 380 122 366 c 2
 109 362 l 1
 81 466 l 1
 95 469 l 2
 122 477 171 490 222 490 c 0
 381 490 433 417 433 361 c 0
 433 329 417 282 377 265 c 1
 428 244 456 205 456 152 c 0
 456 88 418 -8 235 -8 c 0
 173 -8 127 9 80 27 c 1
 67 31 l 1
 97 134 l 1
 110 129 l 1
 173 106 216 98 242 98 c 0
 284 98 332 109 332 148 c 0
 332 184 320 209 241 209 c 0
 233 209 225 207 165 204 c 1
 165 282 l 1
 236 283 316 296 316 342 c 0
 316 358 295 388 236 388 c 0
EndSplineSet
Validated: 1
EndChar

StartChar: afii10074
Encoding: 1080 1080 434
Width: 575
VWidth: 1023
Flags: MW
AnchorPoint: "below" 286 0 basechar 0
AnchorPoint: "above" 286 482 basechar 0
AnchorPoint: "cedilla" 286 0 basechar 0
LayerCount: 3
Back
SplineSet
82.3584 29.6553 m 1xd0
 82.3584 483 l 1
 214.358 483 l 1xd0
 221.752 175.925 l 1
 454.965 465.725 l 1
 454.965 483 l 1xe8
 469.307 483 l 1
 594.358 483 l 1
 616.717 483 l 1
 594.358 453.345 l 1
 594.358 0 l 1
 462.358 0 l 1xc4
 454.965 307.075 l 1
 221.752 17.2754 l 1
 221.752 0 l 1xe8
 207.409 0 l 5
 82.3584 0 l 5
 60 0 l 5
 82.3584 29.6553 l 1xd0
EndSplineSet
Fore
SplineSet
63 482 m 1
 183 482 l 1
 183 155 l 1
 370 482 l 1
 413 482 469 482 512 482 c 1
 512 0 l 1
 392 0 l 1
 392 327 l 1
 205 0 l 1
 63 0 l 1
 63 482 l 1
EndSplineSet
Validated: 1
EndChar

StartChar: afii10076
Encoding: 1082 1082 436
Width: 558
VWidth: 1023
Flags: MW
AnchorPoint: "below" 262 0 basechar 0
AnchorPoint: "above" 262 482 basechar 0
AnchorPoint: "cedilla" 400 0 basechar 0
LayerCount: 3
Fore
SplineSet
183 289 m 1
 391 482 l 5
 535 482 l 5
 297 271 l 1
 543 0 l 1
 395 0 l 1
 183 240 l 1
 183 0 l 1
 63 0 l 1
 63 482 l 5
 183 482 l 5
 183 289 l 1
EndSplineSet
Validated: 1
EndChar

StartChar: afii10077
Encoding: 1083 1083 437
Width: 555
VWidth: 1023
Flags: MW
AnchorPoint: "below" 262 0 basechar 0
AnchorPoint: "above" 342 482 basechar 0
AnchorPoint: "cedilla" 428 0 basechar 0
LayerCount: 3
Back
SplineSet
475.21 495.88 m 0
 511.799 495.88 l 2
 532.649 495.88 552.191 492.998 564.952 490.1 c 5
 569.066 493.92 l 5
 661.703 493.92 l 1
 661.703 0 l 1
 528.113 0 l 1
 528.113 25 l 0
 528.113 79.4697 531.797 290.68 531.638 371.922 c 1
 524.589 372.308 521.454 372.38 516.302 372.38 c 0
 466.129 372.38 429.577 356.911 420.885 339.812 c 1
 387.517 275.308 350.997 198.132 322.25 129.934 c 0
 321.946 129.212 l 1
 321.577 128.509 l 0
 310.13 106.642 292.072 74.8203 268.691 54.5996 c 1
 251.261 39.1602 221.146 18.8213 192.718 9.30566 c 0
 191.325 8.77539 l 1
 189.877 8.37598 l 0
 143.842 -4.7998 103.117 -10.7158 63.5879 -8.93457 c 0
 35.71 -7.67871 l 1
 53.8887 98.0195 l 1
 73.9346 99.1553 l 0
 114.565 101.459 137.329 105.382 145.675 115.115 c 0
 159.29 130.457 170.831 149.21 182.496 172.142 c 1
 263.546 350.154 l 0
 268.407 360.83 273.864 377.006 283.64 396.309 c 1
 304.514 436.86 337.863 466.785 383.168 481.241 c 1
 409.784 491.118 441.286 495.88 475.21 495.88 c 0
EndSplineSet
Fore
SplineSet
163 482 m 1
 492 482 l 1
 492 0 l 1
 372 0 l 1
 372 377 l 1
 283 377 l 1
 270 252 243 127 163 0 c 1
 43 0 l 1
 115 152 165 309 163 482 c 1
EndSplineSet
Validated: 33
EndChar

StartChar: afii10078
Encoding: 1084 1084 438
Width: 658
VWidth: 1023
Flags: HMW
AnchorPoint: "below" 329 0 basechar 0
AnchorPoint: "above" 329 482 basechar 0
AnchorPoint: "cedilla" 329 0 basechar 0
LayerCount: 3
Fore
SplineSet
61 482 m 1
 192 482 l 1
 318 272 l 1
 338 272 l 1
 465 482 l 1
 597 482 l 1
 597 0 l 1
 477 0 l 1
 477 308 l 1
 373 152 l 1
 292 152 l 1
 181 308 l 1
 181 0 l 1
 61 0 l 1
 61 482 l 1
EndSplineSet
Validated: 1
EndChar

StartChar: afii10079
Encoding: 1085 1085 439
Width: 575
VWidth: 1023
Flags: MW
AnchorPoint: "below" 287 0 basechar 0
AnchorPoint: "above" 287 482 basechar 0
AnchorPoint: "cedilla" 287 0 basechar 0
LayerCount: 3
Fore
SplineSet
63 482 m 1
 183 482 l 1
 183 304 l 1
 392 304 l 1
 392 482 l 1
 512 482 l 1
 512 0 l 1
 392 0 l 1
 392 199 l 1
 183 199 l 1
 183 0 l 1
 63 0 l 1
 63 482 l 1
EndSplineSet
Validated: 1
EndChar

StartChar: afii10081
Encoding: 1087 1087 441
Width: 575
VWidth: 1023
Flags: MW
AnchorPoint: "cedilla" 287 0 basechar 0
AnchorPoint: "above" 287 482 basechar 0
AnchorPoint: "below" 287 0 basechar 0
LayerCount: 3
Fore
SplineSet
63 482 m 1
 512 482 l 1
 512 0 l 1
 392 0 l 1
 392 377 l 1
 183 377 l 1
 183 0 l 1
 63 0 l 1
 63 482 l 1
EndSplineSet
Validated: 1
EndChar

StartChar: afii10084
Encoding: 1090 1090 444
Width: 447
VWidth: 1023
Flags: MW
AnchorPoint: "below" 223 0 basechar 0
AnchorPoint: "above" 223 482 basechar 0
AnchorPoint: "cedilla" 223 0 basechar 0
LayerCount: 3
Back
SplineSet
57.7373 694 m 5xf0
 191.737 694 l 5
 191.737 562 l 5
 57.7373 562 l 5
 57.7373 694 l 5xf0
64.7373 482 m 5xe8
 184.737 482 l 5
 184.737 0 l 5
 64.7373 0 l 5
 64.7373 482 l 5xe8
EndSplineSet
Fore
SplineSet
24 377 m 1
 24 482 l 1
 423 482 l 1
 423 377 l 1
 284 377 l 1
 284 0 l 1
 163 0 l 1
 163 377 l 1
 24 377 l 1
EndSplineSet
Validated: 1
EndChar

StartChar: afii10086
Encoding: 1092 1092 446
Width: 851
VWidth: 1023
Flags: MW
AnchorPoint: "below" 423 -261 basechar 0
AnchorPoint: "above" 425 615 basechar 0
AnchorPoint: "cedilla" 423 -261 basechar 0
LayerCount: 3
Back
SplineSet
419.266 464.38 m 1
 419.266 617.33 l 1
 562.942 617.33 l 1
 562.942 464.38 l 1
 598.797 483.664 639.168 492.38 684.846 492.38 c 0
 720.387 492.38 754.585 486.181 786.705 473.792 c 0
 818.637 462.63 845.194 446.752 868.044 426.377 c 1
 891.842 404.8 909.72 379.249 922.342 349.491 c 1
 935.07 319.184 941.154 285.639 941.154 249.002 c 0
 941.154 176.313 917.901 113.645 870.918 64.5576 c 1
 822.913 14.8184 756.687 -10.8496 679.556 -10.8496 c 0
 637.536 -10.8496 597.528 -1.47363 563.463 15.7881 c 1
 566.39 -259.279 l 1
 422.138 -259.279 l 1
 419.694 16.2754 l 1
 383.792 -2.13867 345.026 -10.8496 302.658 -10.8496 c 0
 225.525 -10.8496 159.234 14.8008 111.179 64.5879 c 1
 63.7275 114.068 40 176.796 40 249.001 c 0
 40 284.648 46.5469 318.361 59.793 349.516 c 1
 72.5947 379.817 90.4932 405.769 113.613 426.387 c 0
 136.391 446.707 162.916 462.609 194.654 473.771 c 0
 226.71 486.21 261.191 492.38 297.357 492.38 c 0
 343.155 492.38 385.029 482.793 419.266 464.38 c 1
361.492 365.657 m 1
 349.488 370.424 333.577 373.29 312.2 373.29 c 0
 294.676 373.29 278.29 370.579 262.873 365.251 c 1
 246.04 359.279 229.843 350.591 215.71 339.834 c 1
 203.242 330.137 191.8 316.121 182.692 297.801 c 1
 173.684 279.443 169.087 259.448 169.087 237.262 c 0
 169.087 219.106 172.683 201.78 179.892 184.962 c 0
 186.987 168.406 195.097 156.539 203.367 148.656 c 1
 213.063 139.232 223.605 131.913 236.59 125.571 c 1
 249.607 119.063 262.266 114.636 274.203 112.046 c 1
 286.591 109.523 298.974 108.24 310.079 108.24 c 0
 372.044 108.24 404.612 129.304 419.266 178.176 c 1
 419.266 297.726 l 1
 417.046 304.495 415.355 309.346 413.521 314.463 c 1
 407.45 328.904 401.368 338.127 393.814 345.959 c 1
 387.173 353.037 377.291 359.514 361.492 365.657 c 1
719.45 365.209 m 0
 703.845 370.603 686.245 373.29 667.614 373.29 c 0
 645.887 373.29 631.475 370.351 619.749 365.696 c 0
 605.35 359.98 595.727 353.699 588.213 345.763 c 1
 580.312 337.865 574.087 328.304 568.603 314.258 c 1
 566.277 308.607 564.117 302.199 562.942 298.097 c 1
 562.942 175.065 l 1
 578.736 127.308 611.045 108.24 672.135 108.24 c 0
 683.323 108.24 695.438 109.487 708.134 112.073 c 1
 719.314 114.404 730.892 118.493 744.376 125.479 c 1
 757.69 131.984 768.631 139.537 778.34 148.689 c 1
 787.358 157.394 795.66 169.502 802.297 185.13 c 0
 808.668 200.092 812.056 217.397 812.056 237.262 c 0
 812.056 260.752 807.607 281.015 799.514 297.819 c 1
 790.832 315.416 779.435 329.174 765.487 339.8 c 1
 750.289 351.618 735.2 359.769 719.45 365.209 c 0
EndSplineSet
Fore
SplineSet
463 522 m 1
 463 459 l 1
 513 482 542 492 583 492 c 0
 687 492 801 434 801 246 c 0
 801 85 715 -10 568 -10 c 0
 529 -10 517 -3 488 7 c 1
 488 -259 l 1
 363 -259 l 1
 363 7 l 1
 334 -3 321 -10 282 -10 c 0
 135 -10 50 85 50 246 c 0
 50 434 163 492 267 492 c 0
 308 492 338 482 388 459 c 1
 388 522 l 1
 463 522 l 1
555 385 m 0
 529 385 520 380 488 368 c 1
 488 108 l 1
 510 101 522 93 556 93 c 0
 615 93 683 119 683 234 c 0
 683 362 614 385 555 385 c 0
295 385 m 0
 236 385 168 362 168 234 c 0
 168 119 235 93 294 93 c 0
 328 93 341 101 363 108 c 1
 363 368 l 1
 331 380 321 385 295 385 c 0
EndSplineSet
Validated: 1
EndChar

StartChar: afii10088
Encoding: 1094 1094 448
Width: 613
VWidth: 1023
Flags: MW
AnchorPoint: "below" 287 0 basechar 0
AnchorPoint: "above" 287 482 basechar 0
AnchorPoint: "cedilla" 287 0 basechar 0
LayerCount: 3
Back
SplineSet
415.737 482 m 5xe8
 535.737 482 l 5
 535.737 0 l 5
 415.737 0 l 5
 415.737 482 l 5xe8
57.7373 694 m 1xf0
 191.737 694 l 1
 191.737 562 l 1
 57.7373 562 l 1
 57.7373 694 l 1xf0
64.7373 482 m 1xe8
 184.737 482 l 1
 184.737 0 l 1
 64.7373 0 l 1
 64.7373 482 l 1xe8
EndSplineSet
Fore
SplineSet
512 84 m 1
 590 84 l 1
 590 -135 l 1
 485 -135 l 1
 485 0 l 1
 63 0 l 1
 63 482 l 1
 183 482 l 1
 183 105 l 1
 392 105 l 1
 392 482 l 1
 512 482 l 1
 512 84 l 1
EndSplineSet
Validated: 1
EndChar

StartChar: afii10089
Encoding: 1095 1095 449
Width: 574
VWidth: 1023
Flags: MW
AnchorPoint: "below" 289 0 basechar 0
AnchorPoint: "above" 289 482 basechar 0
AnchorPoint: "cedilla" 451 0 basechar 0
LayerCount: 3
Back
SplineSet
410.737 482 m 5xe8
 530.737 482 l 5
 530.737 0 l 5
 410.737 0 l 5
 410.737 482 l 5xe8
EndSplineSet
Fore
SplineSet
276 229 m 0
 298 229 338 234 391 256 c 1
 391 482 l 1
 511 482 l 1
 511 0 l 1
 391 0 l 1
 391 151 l 1
 353 135 300 118 244 118 c 0
 67 118 60 261 60 335 c 2
 60 482 l 1
 179 482 l 1
 179 327 l 2
 179 301 182 229 276 229 c 0
EndSplineSet
Validated: 1
EndChar

StartChar: afii10090
Encoding: 1096 1096 450
Width: 764
VWidth: 1023
Flags: MW
AnchorPoint: "below" 382 0 basechar 0
AnchorPoint: "above" 382 482 basechar 0
AnchorPoint: "cedilla" 382 0 basechar 0
LayerCount: 3
Back
SplineSet
57.7373 694 m 5xf0
 191.737 694 l 5
 191.737 562 l 5
 57.7373 562 l 5
 57.7373 694 l 5xf0
64.7373 482 m 5xe8
 184.737 482 l 5
 184.737 0 l 5
 64.7373 0 l 5
 64.7373 482 l 5xe8
EndSplineSet
Fore
SplineSet
322 105 m 1
 322 482 l 1
 442 482 l 1
 442 105 l 1
 581 105 l 1
 581 482 l 1
 701 482 l 1
 701 0 l 1
 63 0 l 1
 63 482 l 1
 183 482 l 1
 183 105 l 1
 322 105 l 1
EndSplineSet
Validated: 1
EndChar

StartChar: afii10091
Encoding: 1097 1097 451
Width: 789
VWidth: 1023
Flags: MW
AnchorPoint: "cedilla" 382 0 basechar 0
AnchorPoint: "above" 382 482 basechar 0
AnchorPoint: "below" 382 0 basechar 0
LayerCount: 3
Fore
SplineSet
322 105 m 1
 322 482 l 1
 442 482 l 1
 442 105 l 1
 581 105 l 1
 581 482 l 1
 701 482 l 1
 701 84 l 1
 779 84 l 1
 779 -135 l 1
 674 -135 l 1
 674 0 l 1
 63 0 l 1
 63 482 l 1
 183 482 l 1
 183 105 l 1
 322 105 l 1
EndSplineSet
Validated: 1
EndChar

StartChar: afii10092
Encoding: 1098 1098 452
Width: 571
VWidth: 820
Flags: MW
AnchorPoint: "below" 280 0 basechar 0
AnchorPoint: "above" 280 482 basechar 0
AnchorPoint: "cedilla" 280 0 basechar 0
LayerCount: 3
Fore
SplineSet
230 102 m 1
 302 102 l 2
 364 102 399 119 399 153 c 0
 399 199 348 206 292 206 c 0
 277 206 245 205 230 204 c 1
 230 102 l 1
10 377 m 1
 10 482 l 1
 230 482 l 1
 230 307 l 1
 243 308 275 308 288 308 c 0
 393 308 521 297 521 149 c 0
 521 15 392 0 329 0 c 2
 110 0 l 1
 110 377 l 1
 10 377 l 1
EndSplineSet
Validated: 1
EndChar

StartChar: afii10093
Encoding: 1099 1099 453
Width: 678
VWidth: 820
Flags: MW
AnchorPoint: "below" 331 0 basechar 0
AnchorPoint: "above" 331 482 basechar 0
AnchorPoint: "cedilla" 331 0 basechar 0
LayerCount: 3
Fore
SplineSet
495 482 m 1
 615 482 l 1
 615 0 l 1
 495 0 l 1
 495 482 l 1
63 0 m 1
 63 482 l 1
 183 482 l 1
 183 307 l 1
 196 308 218 308 231 308 c 0
 336 308 454 297 454 149 c 0
 454 15 335 0 272 0 c 2
 63 0 l 1
183 102 m 1
 245 102 l 2
 307 102 332 119 332 153 c 0
 332 199 291 206 235 206 c 0
 220 206 198 205 183 204 c 1
 183 102 l 1
EndSplineSet
Validated: 1
EndChar

StartChar: afii10094
Encoding: 1100 1100 454
Width: 524
VWidth: 820
Flags: MW
AnchorPoint: "below" 230 0 basechar 0
AnchorPoint: "above" 230 482 basechar 0
AnchorPoint: "cedilla" 230 0 basechar 0
LayerCount: 3
Back
SplineSet
186.973 494.737 m 1x78
 186.973 473.92 l 2
 186.973 449.348 186.443 389.891 185.41 297.846 c 1
 293.127 299.343 371.608 291.42 426.628 271.236 c 1
 446.676 262.933 464.199 253.552 478.965 242.943 c 0
 494.834 231.542 507.189 217.036 516.408 199.298 c 1
 525.41 180.859 529.561 161.635 529.561 140.773 c 0
 529.561 99.3154 510.154 62.7949 474.219 33.6221 c 1
 437.365 3.96094 387.858 -10.7803 324.752 -10.7803 c 0xb8
 274.392 -10.7803 220.467 5.50781 170.235 33.1445 c 1
 150.739 0 l 1
 60.0098 0 l 1
 60.0098 493.431 l 1
 80.0098 493.431 l 0
 128.827 493.431 157.808 493.617 164.96 493.904 c 0
 186.973 494.737 l 1x78
199.231 202.46 m 1
 185.193 202.46 l 1
 185.193 128.712 l 1
 219.549 105.397 254.999 95.3701 298.049 95.3701 c 0
 329.373 95.3701 355.161 101.346 376.967 112.895 c 1
 398.621 124.484 406.157 135.505 406.157 147.883 c 0
 406.157 157.17 402.63 164.089 395.396 170.428 c 0
 384.845 179.663 375.262 184.419 368.595 186.158 c 1
 322.053 197.888 265.929 203.533 199.231 202.46 c 1
EndSplineSet
Fore
SplineSet
63 0 m 1
 63 482 l 1
 183 482 l 1
 183 307 l 1
 196 308 228 308 241 308 c 0
 346 308 474 297 474 149 c 0
 474 15 345 0 282 0 c 2
 63 0 l 1
183 102 m 1
 255 102 l 2
 317 102 352 119 352 153 c 0
 352 199 301 206 245 206 c 0
 230 206 198 205 183 204 c 1
 183 102 l 1
EndSplineSet
Validated: 1
EndChar

StartChar: afii10095
Encoding: 1101 1101 455
Width: 508
VWidth: 1023
Flags: MW
AnchorPoint: "below" 230 0 basechar 0
AnchorPoint: "above" 230 482 basechar 0
AnchorPoint: "cedilla" 230 0 basechar 0
LayerCount: 3
Back
SplineSet
77.5156 463.748 m 0
 124.298 484.043 172.701 494.311 231.517 494.311 c 0
 263.4 494.311 292.984 491.604 321.725 485.829 c 1
 349.621 480.565 378.116 471.109 404.041 458.277 c 1
 427.454 444.622 447.129 428.236 463.684 408.606 c 1
 480.432 388.646 493.339 363.256 503.31 332.581 c 0
 513.415 301.49 518.364 267.725 518.365 231.44 c 0
 518.365 196.135 513.33 163.349 503.255 134.438 c 1
 493.19 104.916 480.062 80.7949 463.205 62.7871 c 1
 447.09 45.4619 427.748 31.3145 404.183 19.0996 c 1
 377.9 7.71094 351.143 -0.166992 324.358 -4.5459 c 0
 298.495 -9.12012 271.324 -11.3701 242.923 -11.3701 c 0
 181.773 -11.3701 132.17 -1.86523 83.6416 16.9297 c 0
 65.4385 23.9805 l 1
 98.8096 116.765 l 1
 117.458 110.354 l 0
 146.829 100.258 175.916 95.2705 209.085 95.2705 c 1
 230.289 95.5225 249.162 96.3848 263.942 97.7217 c 0
 278.229 99.0146 292.126 101.416 305.77 104.958 c 0
 318.677 108.309 329.264 112.662 338.088 118.017 c 0
 347.148 123.516 356.289 131.05 365.141 140.802 c 0
 373.629 150.151 381.939 162.6 388.821 176.207 c 1
 390.354 179.782 391.17 181.884 392.053 184.23 c 1
 192.004 184.23 l 1
 192.004 287.44 l 1
 396.661 287.44 l 1
 394.691 297.049 392.537 303.603 389.432 310.207 c 1
 382.493 325.54 373.335 337.29 362.143 346.427 c 0
 350.259 356.128 337.327 363.454 321.396 369.446 c 1
 306.902 374.924 290.563 379.041 273.401 381.412 c 1
 257.249 383.552 238.755 384.73 219.51 384.73 c 0
 180.158 384.73 146.577 378.967 111.45 367.153 c 0
 92.3955 360.745 l 1
 60.75 456.475 l 1
 77.5156 463.748 l 0
EndSplineSet
Fore
SplineSet
468 250 m 0
 468 54 331 -10 200 -10 c 0
 146 -10 98 0 53 20 c 1
 35 27 l 1
 67 123 l 1
 86 116 l 2
 118 105 152 99 189 99 c 0
 260 99 331 120 347 199 c 1
 163 199 l 1
 163 304 l 1
 338 304 l 1
 314 361 256 385 179 385 c 0
 148 385 119 380 92 370 c 2
 73 363 l 1
 40 456 l 1
 58 462 l 1
 112 483 165 491 210 491 c 0
 333 491 468 438 468 250 c 0
EndSplineSet
Validated: 1
EndChar

StartChar: afii10096
Encoding: 1102 1102 456
Width: 796
VWidth: 1023
Flags: MW
AnchorPoint: "below" 379 0 basechar 0
AnchorPoint: "above" 379 482 basechar 0
AnchorPoint: "cedilla" 379 0 basechar 0
LayerCount: 3
Fore
SplineSet
505 492 m 0
 647 492 759 406 759 250 c 0
 759 89 650 -10 497 -10 c 0
 364 -10 263 67 247 199 c 1
 183 199 l 1
 183 0 l 1
 63 0 l 1
 63 482 l 1
 183 482 l 1
 183 304 l 1
 252 304 l 1
 278 421 374 492 505 492 c 0
498 383 m 0
 433 383 364 340 364 249 c 0
 364 166 420 99 506 99 c 0
 581 99 641 152 641 236 c 0
 641 335 566 383 498 383 c 0
EndSplineSet
Validated: 1
EndChar

StartChar: afii10097
Encoding: 1103 1103 457
Width: 517
VWidth: 820
Flags: MW
AnchorPoint: "below" 279 0 basechar 0
AnchorPoint: "above" 279 482 basechar 0
AnchorPoint: "cedilla" 279 0 basechar 0
LayerCount: 3
Fore
SplineSet
334 380 m 1
 287 380 l 2
 225 380 190 363 190 329 c 0
 190 283 241 276 297 276 c 0
 312 276 319 277 334 278 c 1
 334 380 l 1
454 482 m 1
 454 1 l 1
 334 1 l 1
 334 175 l 1
 321 174 314 174 301 174 c 0
 299 174 297 174 295 174 c 1
 270 110 225 48 173 0 c 1
 39 0 l 1
 88 55 152 119 173 187 c 1
 114 204 68 244 68 333 c 0
 68 467 197 482 260 482 c 2
 454 482 l 1
EndSplineSet
Validated: 1
EndChar

StartChar: afii10051
Encoding: 1026 1026 461
Width: 892
VWidth: 1023
Flags: MW
AnchorPoint: "below" 420 -198 basechar 0
AnchorPoint: "above" 420 670 basechar 0
AnchorPoint: "cedilla" 584 -198 basechar 0
LayerCount: 3
Fore
SplineSet
528 496 m 0
 706 496 804 390 802 161 c 0
 800 -66 712 -178 624 -234 c 0
 605 -246 l 1
 533 -155 l 1
 553 -143 l 0
 630 -100 674 6 674 161 c 0
 674 346 621 387 522 387 c 0
 488 387 432 378 387 360 c 1
 387 0 l 1
 259 0 l 1
 259 581 l 1
 38 581 l 1
 38 694 l 1
 633 694 l 1
 633 581 l 1
 387 581 l 1
 387 463 l 1
 441 484 479 496 528 496 c 0
EndSplineSet
Validated: 33
EndChar

StartChar: afii10053
Encoding: 1028 1028 463
Width: 682
Flags: MW
AnchorPoint: "below" 390 0 basechar 0
AnchorPoint: "above" 390 670 basechar 0
AnchorPoint: "cedilla" 366 0 basechar 0
LayerCount: 3
Fore
SplineSet
419 699 m 4
 473 699 541 689 614 660 c 6
 632 653 l 5
 592 555 l 5
 573 562 l 6
 497 590 448 590 416 590 c 4
 288 590 200 509 178 403 c 5
 491 403 l 5
 491 296 l 5
 177 296 l 5
 197 178 291 103 434 103 c 4
 478 103 531 114 584 135 c 6
 602 142 l 5
 642 43 l 5
 624 36 l 5
 551 5 476 -10 412 -10 c 4
 187 -10 50 149 50 346 c 4
 50 546 194 699 419 699 c 4
EndSplineSet
Validated: 1
EndChar

StartChar: afii10057
Encoding: 1032 1032 467
Width: 492
Flags: MW
AnchorPoint: "cedilla" 162 0 basechar 0
AnchorPoint: "above" 350 670 basechar 0
AnchorPoint: "below" 222 0 basechar 0
LayerCount: 3
Fore
SplineSet
289 694 m 1
 412 694 l 1
 412 250 l 2
 412 141 384 -8 154 -8 c 0
 120 -8 86 -4 53 4 c 1
 35 9 l 1
 55 117 l 1
 76 112 l 2
 97 107 119 105 140 105 c 0
 283 105 289 207 289 250 c 2
 289 694 l 1
EndSplineSet
Validated: 1
EndChar

StartChar: afii10058
Encoding: 1033 1033 468
Width: 1043
Flags: MW
AnchorPoint: "below" 450 0 basechar 0
AnchorPoint: "above" 450 670 basechar 0
AnchorPoint: "cedilla" 670 0 basechar 0
LayerCount: 3
Back
SplineSet
630 311 m 5
 630 113 l 5
 721 113 l 6
 810 113 892 124 892 209 c 4
 892 305 796 314 691 314 c 4
 670 314 651 312 630 311 c 5
743 0 m 4
 664 0 586 0 507 0 c 5
 507 580 l 5
 364 580 l 5
 340 360 269 168 187 0 c 5
 50 0 l 5
 155 214 225 443 244 694 c 5
 630 694 l 5
 630 424 l 5
 648 425 665 426 684 426 c 4
 834 426 1018 406 1018 195 c 4
 1018 4 833 0 743 0 c 4
EndSplineSet
Fore
SplineSet
718 0 m 2
 522 0 l 1
 522 581 l 1
 287 581 l 1
 287 311 l 2
 287 198 279 122 236 70 c 0
 198 23 129 -7 20 -7 c 1
 20 110 l 1
 69 113 114 120 136 148 c 0
 171 192 164 282 164 372 c 2
 164 694 l 1
 645 694 l 1
 645 428 l 1
 669 428 l 2
 823 428 1003 403 1003 205 c 0
 1003 14 808 0 718 0 c 2
645 314 m 1
 645 113 l 1
 706 113 l 2
 795 113 877 124 877 209 c 0
 877 305 781 314 676 314 c 2
 645 314 l 1
EndSplineSet
Validated: 33
EndChar

StartChar: afii10059
Encoding: 1034 1034 469
Width: 1018
Flags: MW
AnchorPoint: "below" 555 0 basechar 0
AnchorPoint: "above" 555 670 basechar 0
AnchorPoint: "cedilla" 555 0 basechar 0
LayerCount: 3
Fore
SplineSet
693 0 m 2
 497 0 l 1
 497 290 l 1
 203 290 l 1
 203 0 l 1
 80 0 l 1
 80 694 l 1
 203 694 l 1
 203 403 l 1
 497 403 l 1
 497 694 l 1
 620 694 l 1
 620 428 l 1
 644 428 l 2
 798 428 978 403 978 205 c 0
 978 14 783 0 693 0 c 2
620 314 m 1
 620 113 l 1
 681 113 l 2
 770 113 852 124 852 209 c 0
 852 305 756 314 651 314 c 2
 620 314 l 1
EndSplineSet
Validated: 1
EndChar

StartChar: afii10060
Encoding: 1035 1035 470
Width: 729
Flags: MW
AnchorPoint: "below" 524 0 basechar 0
AnchorPoint: "above" 524 670 basechar 0
AnchorPoint: "cedilla" 773 0 basechar 0
LayerCount: 3
Back
SplineSet
38 581 m 5
 38 694 l 5
 245 694 452 694 659 694 c 5
 659 581 l 5
 322 581 l 5
 322 455 l 5
 386 481 475 495 562 495 c 4
 803 495 833 363 833 296 c 4
 833 0 l 5
 712 0 l 5
 712 267 l 4
 712 340 655 385 527 385 c 4
 462 385 376 369 322 343 c 5
 322 0 l 5
 199 0 l 5
 199 581 l 5
 38 581 l 5
EndSplineSet
Fore
SplineSet
311 581 m 1
 311 418 l 1
 496 462 689 403 689 205 c 0
 689 14 494 0 404 0 c 2
 396 0 l 1
 396 113 l 1
 475 113 563 124 563 209 c 0
 563 305 467 336 311 300 c 1
 311 0 l 1
 188 0 l 1
 188 581 l 1
 10 581 l 1
 10 694 l 1
 554 694 l 1
 554 581 l 1
 311 581 l 1
EndSplineSet
Validated: 33
EndChar

StartChar: afii10145
Encoding: 1039 1039 474
Width: 730
Flags: MW
AnchorPoint: "below" 369 -164 basechar 0
AnchorPoint: "above" 369 670 basechar 0
AnchorPoint: "cedilla" 369 -164 basechar 0
LayerCount: 3
Back
SplineSet
424 -0 m 5
 424 -178 l 5
 317 -178 l 5
 317 0 l 5
 80 0 l 5
 80 694 l 5
 203 694 l 5
 203 114 l 5
 537 114 l 5
 537 694 l 5
 660 694 l 5
 660 0 l 5
 424 -0 l 5
EndSplineSet
Fore
SplineSet
424 0 m 1
 424 -178 l 1
 305 -178 l 1
 305 0 l 1
 80 0 l 1
 80 694 l 1
 203 694 l 1
 203 114 l 1
 527 114 l 1
 527 694 l 1
 650 694 l 1
 650 0 l 1
 424 0 l 1
EndSplineSet
Validated: 1
EndChar

StartChar: afii10099
Encoding: 1106 1106 476
Width: 644
VWidth: 1023
Flags: MW
AnchorPoint: "below" 299 0 basechar 0
AnchorPoint: "above" 299 482 basechar 0
AnchorPoint: "cedilla" 437 -160 basechar 0
LayerCount: 3
Fore
SplineSet
448 -197 m 0
 432 -205 l 1
 384 -119 l 1
 395 -111 l 0
 450 -76 488 -43 488 70 c 0
 488 219 441 263 368 263 c 0
 332 263 295 254 248 234 c 1
 248 0 l 1
 131 0 l 1
 131 416 l 1
 20 416 l 1
 20 510 l 1
 456 510 l 1
 456 416 l 1
 248 416 l 1
 248 327 l 1
 303 350 351 362 402 362 c 0
 537 362 600 239 600 76 c 0
 600 -80 539 -150 448 -197 c 0
EndSplineSet
Validated: 1
EndChar

StartChar: afii10101
Encoding: 1108 1108 478
Width: 508
VWidth: 1023
Flags: MW
AnchorPoint: "below" 272 0 basechar 0
AnchorPoint: "above" 272 482 basechar 0
AnchorPoint: "cedilla" 290 0 basechar 0
LayerCount: 3
Fore
SplineSet
35 250 m 0
 35 54 172 -10 303 -10 c 0
 357 -10 405 0 450 20 c 1
 468 27 l 1
 436 123 l 1
 417 116 l 2
 385 105 351 99 314 99 c 0
 243 99 172 120 156 199 c 1
 340 199 l 1
 340 304 l 1
 165 304 l 1
 189 361 247 385 324 385 c 0
 355 385 384 380 411 370 c 2
 430 363 l 1
 463 456 l 1
 445 462 l 1
 391 483 338 491 293 491 c 0
 170 491 35 438 35 250 c 0
EndSplineSet
Validated: 9
EndChar

StartChar: afii10106
Encoding: 1113 1113 483
Width: 833
VWidth: 1023
Flags: MW
AnchorPoint: "below" 332 0 basechar 0
AnchorPoint: "above" 332 482 basechar 0
AnchorPoint: "cedilla" 500 0 basechar 0
LayerCount: 3
Fore
SplineSet
372 377 m 1
 283 377 l 1
 270 252 243 127 163 0 c 1
 43 0 l 1
 115 152 165 309 163 482 c 1
 492 482 l 1
 492 307 l 1
 505 308 537 308 550 308 c 0
 655 308 783 297 783 149 c 0
 783 15 654 0 591 0 c 0
 518 0 445 0 372 0 c 1
 372 377 l 1
492 204 m 1
 492 102 l 1
 564 102 l 2
 626 102 661 119 661 153 c 0
 661 199 610 206 554 206 c 0
 539 206 507 205 492 204 c 1
EndSplineSet
Validated: 33
EndChar

StartChar: afii10107
Encoding: 1114 1114 484
Width: 823
VWidth: 1023
Flags: MW
AnchorPoint: "below" 272 0 basechar 0
AnchorPoint: "above" 272 482 basechar 0
AnchorPoint: "cedilla" 510 0 basechar 0
LayerCount: 3
Fore
SplineSet
63 482 m 1
 183 482 l 1
 183 304 l 1
 362 304 l 1
 362 482 l 1
 482 482 l 1
 482 307 l 1
 495 308 527 308 540 308 c 0
 645 308 773 297 773 149 c 0
 773 15 644 0 581 0 c 2
 482 0 l 1
 362 0 l 1
 362 199 l 1
 183 199 l 1
 183 0 l 1
 63 0 l 1
 63 482 l 1
482 204 m 1
 482 102 l 1
 554 102 l 2
 616 102 651 119 651 153 c 0
 651 199 600 206 544 206 c 0
 529 206 497 205 482 204 c 1
EndSplineSet
Validated: 1
EndChar

StartChar: afii10108
Encoding: 1115 1115 485
Width: 584
VWidth: 1023
Flags: HMW
AnchorPoint: "below" 290 0 basechar 0
AnchorPoint: "above" 290 482 basechar 0
AnchorPoint: "cedilla" 455 0 basechar 0
LayerCount: 3
Fore
SplineSet
301 272 m 0
 279 272 239 267 186 245 c 1
 186 0 l 1
 66 0 l 1
 66 430 l 1
 5 430 l 1
 5 537 l 1
 388 537 l 1
 388 430 l 1
 186 430 l 1
 186 350 l 1
 224 366 277 383 333 383 c 0
 510 383 517 240 517 166 c 2
 517 0 l 1
 398 0 l 1
 398 174 l 2
 398 200 395 272 301 272 c 0
EndSplineSet
Validated: 1
EndChar

StartChar: afii10193
Encoding: 1119 1119 489
Width: 575
VWidth: 1023
Flags: MW
AnchorPoint: "below" 287 -136 basechar 0
AnchorPoint: "above" 287 482 basechar 0
AnchorPoint: "cedilla" 287 -136 basechar 0
LayerCount: 3
Fore
SplineSet
340 0 m 1
 340 -135 l 1
 235 -135 l 1
 235 0 l 1
 63 0 l 1
 63 482 l 1
 183 482 l 1
 183 105 l 1
 392 105 l 1
 392 482 l 1
 512 482 l 1
 512 0 l 1
 340 0 l 1
EndSplineSet
Validated: 1
EndChar

StartChar: uni0492
Encoding: 1170 1170 490
Width: 631
VWidth: 1023
Flags: MW
AnchorPoint: "cedilla" 149 0 basechar 0
AnchorPoint: "above" 317 670 basechar 0
AnchorPoint: "below" 317 0 basechar 0
LayerCount: 3
Fore
SplineSet
374 313 m 1
 213 313 l 1
 213 0 l 1
 90 0 l 1
 90 313 l 1
 15 313 l 1
 15 427 l 1
 90 427 l 1
 90 694 l 1
 571 694 l 1
 571 581 l 1
 224 581 l 1
 224 427 l 1
 374 427 l 1
 374 313 l 1
EndSplineSet
Validated: 1
EndChar

StartChar: uni0493
Encoding: 1171 1171 491
Width: 411
VWidth: 1023
Flags: MW
AnchorPoint: "cedilla" 123 0 basechar 0
AnchorPoint: "above" 225 482 basechar 0
AnchorPoint: "below" 225 0 basechar 0
LayerCount: 3
Fore
SplineSet
401 480 m 1
 401 386 l 1
 178 386 l 1
 178 297 l 1
 356 297 l 1
 356 203 l 1
 178 203 l 1
 178 0 l 1
 60 0 l 1
 60 203 l 1
 6 203 l 1
 6 297 l 1
 60 297 l 1
 60 480 l 1
 401 480 l 1
EndSplineSet
Validated: 1
EndChar

StartChar: uni0496
Encoding: 1174 1174 492
Width: 903
VWidth: 1023
Flags: MW
AnchorPoint: "cedilla" 453 0 basechar 0
AnchorPoint: "above" 453 670 basechar 0
AnchorPoint: "below" 453 0 basechar 0
LayerCount: 3
Back
SplineSet
785 94 m 1
 873 94 l 1
 873 -164 l 1
 765 -164 l 1
 765 0 l 1
 785 94 l 1
513 0 m 1
 390 0 l 1
 390 336 l 1
 171 0 l 1
 12 0 l 1
 264 362 l 1
 29 694 l 1
 185 694 l 1
 390 376 l 1
 390 694 l 1
 513 694 l 1
 513 376 l 1
 718 694 l 1
 874 694 l 1
 639 362 l 1
 842.967 69 l 1
 845 0 l 1
 732 0 l 1
 513 336 l 1
 513 0 l 1
EndSplineSet
Fore
SplineSet
513 0 m 1
 390 0 l 1
 390 336 l 1
 171 0 l 1
 12 0 l 1
 264 362 l 1
 29 694 l 1
 185 694 l 1
 390 376 l 1
 390 694 l 1
 513 694 l 1
 513 376 l 1
 718 694 l 1
 874 694 l 1
 639 362 l 1
 825.564 94 l 1
 873 94 l 1
 873 -164 l 1
 765 -164 l 1
 765 0 l 1
 732 0 l 1
 513 336 l 1
 513 0 l 1
EndSplineSet
Validated: 1
EndChar

StartChar: uni0497
Encoding: 1175 1175 493
Width: 786
VWidth: 1023
Flags: MW
AnchorPoint: "below" 392 0 basechar 0
AnchorPoint: "above" 392 482 basechar 0
AnchorPoint: "cedilla" 392 0 basechar 0
LayerCount: 3
Back
SplineSet
453 0 m 1
 333 0 l 1
 333 240 l 1
 171 0 l 1
 23 0 l 1
 219 271 l 1
 31 482 l 1
 175 482 l 1
 333 289 l 1
 333 482 l 1
 453 482 l 1
 453 289 l 1
 611 482 l 1
 755 482 l 1
 567 271 l 1
 722.498 56 l 1
 715.5 0 l 1
 615 0 l 1
 453 240 l 1
 453 0 l 1
706.5 79 m 1
 753.5 79 l 1
 753.5 -146 l 1
 655.5 -146 l 1
 655.5 0 l 1
 706.5 79 l 1
EndSplineSet
Fore
SplineSet
706.5 79 m 2
 753.5 79 l 1
 753.5 -146 l 1
 655.5 -146 l 1
 655.5 0 l 1
 615 0 l 1
 453 240 l 1
 453 0 l 1
 333 0 l 1
 333 240 l 1
 171 0 l 1
 23 0 l 1
 219 271 l 1
 31 482 l 1
 175 482 l 1
 333 289 l 1
 333 482 l 1
 453 482 l 1
 453 289 l 1
 611 482 l 1
 755 482 l 1
 567 271 l 1
 706.2 78.535 l 2
 706.3 78.69 706.4 78.845 706.5 79 c 2
EndSplineSet
Validated: 1
EndChar

